G04 #@! TF.GenerationSoftware,KiCad,Pcbnew,8.0.1*
G04 #@! TF.CreationDate,2024-05-06T16:29:22+03:00*
G04 #@! TF.ProjectId,SmartAtt,536d6172-7441-4747-942e-6b696361645f,rev?*
G04 #@! TF.SameCoordinates,Original*
G04 #@! TF.FileFunction,Soldermask,Top*
G04 #@! TF.FilePolarity,Negative*
%FSLAX46Y46*%
G04 Gerber Fmt 4.6, Leading zero omitted, Abs format (unit mm)*
G04 Created by KiCad (PCBNEW 8.0.1) date 2024-05-06 16:29:22*
%MOMM*%
%LPD*%
G01*
G04 APERTURE LIST*
G04 Aperture macros list*
%AMRoundRect*
0 Rectangle with rounded corners*
0 $1 Rounding radius*
0 $2 $3 $4 $5 $6 $7 $8 $9 X,Y pos of 4 corners*
0 Add a 4 corners polygon primitive as box body*
4,1,4,$2,$3,$4,$5,$6,$7,$8,$9,$2,$3,0*
0 Add four circle primitives for the rounded corners*
1,1,$1+$1,$2,$3*
1,1,$1+$1,$4,$5*
1,1,$1+$1,$6,$7*
1,1,$1+$1,$8,$9*
0 Add four rect primitives between the rounded corners*
20,1,$1+$1,$2,$3,$4,$5,0*
20,1,$1+$1,$4,$5,$6,$7,0*
20,1,$1+$1,$6,$7,$8,$9,0*
20,1,$1+$1,$8,$9,$2,$3,0*%
G04 Aperture macros list end*
%ADD10C,0.100000*%
%ADD11C,7.653453*%
%ADD12R,1.700000X1.700000*%
%ADD13O,1.700000X1.700000*%
%ADD14C,3.000000*%
%ADD15C,1.500000*%
%ADD16R,1.000000X1.000000*%
%ADD17C,2.000000*%
%ADD18RoundRect,0.250001X0.462499X0.624999X-0.462499X0.624999X-0.462499X-0.624999X0.462499X-0.624999X0*%
%ADD19RoundRect,0.375000X-0.375000X-1.125000X0.375000X-1.125000X0.375000X1.125000X-0.375000X1.125000X0*%
%ADD20RoundRect,0.250000X0.350000X0.625000X-0.350000X0.625000X-0.350000X-0.625000X0.350000X-0.625000X0*%
%ADD21O,1.200000X1.750000*%
%ADD22O,2.000000X2.000000*%
G04 APERTURE END LIST*
D10*
X74750000Y-87000000D02*
X85750000Y-87000000D01*
X85750000Y-94250000D01*
X74750000Y-94250000D01*
X74750000Y-87000000D01*
G36*
X74750000Y-87000000D02*
G01*
X85750000Y-87000000D01*
X85750000Y-94250000D01*
X74750000Y-94250000D01*
X74750000Y-87000000D01*
G37*
D11*
X235726726Y-77103453D02*
G75*
G02*
X228073274Y-77103453I-3826726J0D01*
G01*
X228073274Y-77103453D02*
G75*
G02*
X235726726Y-77103453I3826726J0D01*
G01*
D10*
X217250000Y-87000000D02*
X228500000Y-87000000D01*
X228500000Y-94250000D01*
X217250000Y-94250000D01*
X217250000Y-87000000D01*
G36*
X217250000Y-87000000D02*
G01*
X228500000Y-87000000D01*
X228500000Y-94250000D01*
X217250000Y-94250000D01*
X217250000Y-87000000D01*
G37*
D11*
X74576726Y-104103453D02*
G75*
G02*
X66923274Y-104103453I-3826726J0D01*
G01*
X66923274Y-104103453D02*
G75*
G02*
X74576726Y-104103453I3826726J0D01*
G01*
X74826726Y-77103453D02*
G75*
G02*
X67173274Y-77103453I-3826726J0D01*
G01*
X67173274Y-77103453D02*
G75*
G02*
X74826726Y-77103453I3826726J0D01*
G01*
X235626726Y-104003453D02*
G75*
G02*
X227973274Y-104003453I-3826726J0D01*
G01*
X227973274Y-104003453D02*
G75*
G02*
X235626726Y-104003453I3826726J0D01*
G01*
D12*
X237800000Y-134575000D03*
D13*
X237800000Y-137115000D03*
X237800000Y-139655000D03*
D14*
X107000000Y-139000000D03*
X107000000Y-124000000D03*
X155000000Y-130000000D03*
X155000000Y-140000000D03*
D15*
X147450000Y-39750000D03*
X149950000Y-39750000D03*
X152450000Y-39750000D03*
X154950000Y-39750000D03*
D16*
X65400000Y-104000000D03*
D17*
X119800000Y-44900000D03*
X123800000Y-44900000D03*
D16*
X222800000Y-90700000D03*
X80300000Y-90600000D03*
D18*
X102487500Y-42750000D03*
X99512500Y-42750000D03*
D19*
X186200000Y-55700000D03*
X188700000Y-55700000D03*
X191200000Y-55700000D03*
X191200000Y-40700000D03*
X186200000Y-40700000D03*
D16*
X237400000Y-104200000D03*
D20*
X71100000Y-138250000D03*
D21*
X69100000Y-138250000D03*
D12*
X221980000Y-139400000D03*
D13*
X224520000Y-139400000D03*
X227060000Y-139400000D03*
X229600000Y-139400000D03*
D17*
X171200000Y-90700000D03*
X161200000Y-90700000D03*
X90850000Y-84595000D03*
D22*
X90850000Y-54115000D03*
D17*
X212800000Y-84795000D03*
D22*
X212800000Y-54315000D03*
D17*
X149400000Y-90700000D03*
X139400000Y-90700000D03*
M02*
