G04 #@! TF.GenerationSoftware,KiCad,Pcbnew,8.0.1*
G04 #@! TF.CreationDate,2024-07-09T16:40:46+03:00*
G04 #@! TF.ProjectId,UA-1_v2,55412d31-5f76-4322-9e6b-696361645f70,rev?*
G04 #@! TF.SameCoordinates,Original*
G04 #@! TF.FileFunction,Soldermask,Bot*
G04 #@! TF.FilePolarity,Negative*
%FSLAX46Y46*%
G04 Gerber Fmt 4.6, Leading zero omitted, Abs format (unit mm)*
G04 Created by KiCad (PCBNEW 8.0.1) date 2024-07-09 16:40:46*
%MOMM*%
%LPD*%
G01*
G04 APERTURE LIST*
G04 Aperture macros list*
%AMRoundRect*
0 Rectangle with rounded corners*
0 $1 Rounding radius*
0 $2 $3 $4 $5 $6 $7 $8 $9 X,Y pos of 4 corners*
0 Add a 4 corners polygon primitive as box body*
4,1,4,$2,$3,$4,$5,$6,$7,$8,$9,$2,$3,0*
0 Add four circle primitives for the rounded corners*
1,1,$1+$1,$2,$3*
1,1,$1+$1,$4,$5*
1,1,$1+$1,$6,$7*
1,1,$1+$1,$8,$9*
0 Add four rect primitives between the rounded corners*
20,1,$1+$1,$2,$3,$4,$5,0*
20,1,$1+$1,$4,$5,$6,$7,0*
20,1,$1+$1,$6,$7,$8,$9,0*
20,1,$1+$1,$8,$9,$2,$3,0*%
G04 Aperture macros list end*
%ADD10C,7.740254*%
%ADD11C,0.100000*%
%ADD12R,1.700000X1.700000*%
%ADD13O,1.700000X1.700000*%
%ADD14C,3.000000*%
%ADD15C,1.500000*%
%ADD16C,2.000000*%
%ADD17RoundRect,0.250000X0.350000X0.625000X-0.350000X0.625000X-0.350000X-0.625000X0.350000X-0.625000X0*%
%ADD18O,1.200000X1.750000*%
%ADD19RoundRect,0.250000X0.450000X-0.350000X0.450000X0.350000X-0.450000X0.350000X-0.450000X-0.350000X0*%
%ADD20RoundRect,0.250000X-1.500000X-0.900000X1.500000X-0.900000X1.500000X0.900000X-1.500000X0.900000X0*%
%ADD21RoundRect,0.250000X-0.475000X0.337500X-0.475000X-0.337500X0.475000X-0.337500X0.475000X0.337500X0*%
%ADD22RoundRect,0.250000X0.875000X1.025000X-0.875000X1.025000X-0.875000X-1.025000X0.875000X-1.025000X0*%
%ADD23RoundRect,0.250000X0.350000X0.450000X-0.350000X0.450000X-0.350000X-0.450000X0.350000X-0.450000X0*%
%ADD24RoundRect,0.250000X0.475000X-0.337500X0.475000X0.337500X-0.475000X0.337500X-0.475000X-0.337500X0*%
%ADD25RoundRect,0.250000X1.025000X-0.875000X1.025000X0.875000X-1.025000X0.875000X-1.025000X-0.875000X0*%
%ADD26RoundRect,0.250000X-0.350000X-0.450000X0.350000X-0.450000X0.350000X0.450000X-0.350000X0.450000X0*%
%ADD27RoundRect,0.250000X1.500000X0.900000X-1.500000X0.900000X-1.500000X-0.900000X1.500000X-0.900000X0*%
%ADD28R,1.500000X0.900000*%
%ADD29R,0.900000X1.500000*%
%ADD30C,0.600000*%
%ADD31R,3.800000X3.800000*%
%ADD32RoundRect,0.375000X0.625000X0.375000X-0.625000X0.375000X-0.625000X-0.375000X0.625000X-0.375000X0*%
%ADD33RoundRect,0.500000X0.500000X1.400000X-0.500000X1.400000X-0.500000X-1.400000X0.500000X-1.400000X0*%
%ADD34RoundRect,0.062500X-0.350000X-0.062500X0.350000X-0.062500X0.350000X0.062500X-0.350000X0.062500X0*%
%ADD35RoundRect,0.062500X-0.062500X-0.350000X0.062500X-0.350000X0.062500X0.350000X-0.062500X0.350000X0*%
%ADD36R,2.600000X2.600000*%
%ADD37C,2.500000*%
%ADD38RoundRect,0.250000X0.337500X0.475000X-0.337500X0.475000X-0.337500X-0.475000X0.337500X-0.475000X0*%
%ADD39RoundRect,0.250000X-1.025000X0.875000X-1.025000X-0.875000X1.025000X-0.875000X1.025000X0.875000X0*%
%ADD40R,1.475000X0.450000*%
G04 APERTURE END LIST*
D10*
X235670127Y-77100000D02*
G75*
G02*
X227929873Y-77100000I-3870127J0D01*
G01*
X227929873Y-77100000D02*
G75*
G02*
X235670127Y-77100000I3870127J0D01*
G01*
D11*
X164350000Y-107800000D02*
X165950000Y-107800000D01*
X165950000Y-115600000D01*
X164350000Y-115600000D01*
X164350000Y-107800000D01*
G36*
X164350000Y-107800000D02*
G01*
X165950000Y-107800000D01*
X165950000Y-115600000D01*
X164350000Y-115600000D01*
X164350000Y-107800000D01*
G37*
D10*
X74860381Y-77200000D02*
G75*
G02*
X67120127Y-77200000I-3870127J0D01*
G01*
X67120127Y-77200000D02*
G75*
G02*
X74860381Y-77200000I3870127J0D01*
G01*
D11*
X74750000Y-87000000D02*
X85750000Y-87000000D01*
X85750000Y-94250000D01*
X74750000Y-94250000D01*
X74750000Y-87000000D01*
G36*
X74750000Y-87000000D02*
G01*
X85750000Y-87000000D01*
X85750000Y-94250000D01*
X74750000Y-94250000D01*
X74750000Y-87000000D01*
G37*
X170200000Y-107900000D02*
X171850000Y-107900000D01*
X171850000Y-115550000D01*
X170200000Y-115550000D01*
X170200000Y-107900000D01*
G36*
X170200000Y-107900000D02*
G01*
X171850000Y-107900000D01*
X171850000Y-115550000D01*
X170200000Y-115550000D01*
X170200000Y-107900000D01*
G37*
D10*
X74560381Y-104100000D02*
G75*
G02*
X66820127Y-104100000I-3870127J0D01*
G01*
X66820127Y-104100000D02*
G75*
G02*
X74560381Y-104100000I3870127J0D01*
G01*
D11*
X217250000Y-87000000D02*
X228500000Y-87000000D01*
X228500000Y-94250000D01*
X217250000Y-94250000D01*
X217250000Y-87000000D01*
G36*
X217250000Y-87000000D02*
G01*
X228500000Y-87000000D01*
X228500000Y-94250000D01*
X217250000Y-94250000D01*
X217250000Y-87000000D01*
G37*
D10*
X235660381Y-104000000D02*
G75*
G02*
X227920127Y-104000000I-3870127J0D01*
G01*
X227920127Y-104000000D02*
G75*
G02*
X235660381Y-104000000I3870127J0D01*
G01*
D12*
X237800000Y-134575000D03*
D13*
X237800000Y-137115000D03*
X237800000Y-139655000D03*
D14*
X107000000Y-139000000D03*
X107000000Y-124000000D03*
X155000000Y-130000000D03*
X155000000Y-140000000D03*
D15*
X147450000Y-39750000D03*
X149950000Y-39750000D03*
X152450000Y-39750000D03*
X154950000Y-39750000D03*
D16*
X121800000Y-42950000D03*
X121800000Y-46900000D03*
D17*
X71100000Y-138250000D03*
D18*
X69100000Y-138250000D03*
D12*
X221980000Y-139400000D03*
D13*
X224520000Y-139400000D03*
X227060000Y-139400000D03*
X229600000Y-139400000D03*
D19*
X177000000Y-109500000D03*
X177000000Y-107500000D03*
D20*
X80500000Y-135500000D03*
X85900000Y-135500000D03*
D21*
X182750000Y-56212500D03*
X182750000Y-58287500D03*
D16*
X212850000Y-90650000D03*
X202850000Y-90650000D03*
D22*
X178450000Y-132250000D03*
X172050000Y-132250000D03*
D23*
X149500000Y-46000000D03*
X147500000Y-46000000D03*
D24*
X158000000Y-85837500D03*
X158000000Y-83762500D03*
D25*
X171000000Y-105500000D03*
X171000000Y-99100000D03*
D26*
X174250000Y-126000000D03*
X176250000Y-126000000D03*
D24*
X155000000Y-85837500D03*
X155000000Y-83762500D03*
D27*
X96400000Y-130400000D03*
X91000000Y-130400000D03*
D25*
X148000000Y-137600000D03*
X148000000Y-131200000D03*
D28*
X182650000Y-134105000D03*
X182650000Y-132835000D03*
X182650000Y-131565000D03*
X182650000Y-130295000D03*
X182650000Y-129025000D03*
X182650000Y-127755000D03*
X182650000Y-126485000D03*
X182650000Y-125215000D03*
X182650000Y-123945000D03*
X182650000Y-122675000D03*
X182650000Y-121405000D03*
X182650000Y-120135000D03*
X182650000Y-118865000D03*
X182650000Y-117595000D03*
D29*
X185690000Y-116345000D03*
X186960000Y-116345000D03*
X188230000Y-116345000D03*
X189500000Y-116345000D03*
X190770000Y-116345000D03*
X192040000Y-116345000D03*
X193310000Y-116345000D03*
X194580000Y-116345000D03*
X195850000Y-116345000D03*
X197120000Y-116345000D03*
D28*
X200150000Y-117595000D03*
X200150000Y-118865000D03*
X200150000Y-120135000D03*
X200150000Y-121405000D03*
X200150000Y-122675000D03*
X200150000Y-123945000D03*
X200150000Y-125215000D03*
X200150000Y-126485000D03*
X200150000Y-127755000D03*
X200150000Y-129025000D03*
X200150000Y-130295000D03*
X200150000Y-131565000D03*
X200150000Y-132835000D03*
X200150000Y-134105000D03*
D30*
X188500000Y-125685000D03*
X188500000Y-127085000D03*
X189200000Y-124985000D03*
X189200000Y-126385000D03*
X189200000Y-127785000D03*
X189875000Y-125685000D03*
X189875000Y-127085000D03*
D31*
X189900000Y-126385000D03*
D30*
X190600000Y-124985000D03*
X190600000Y-126385000D03*
X190600000Y-127785000D03*
X191300000Y-125685000D03*
X191300000Y-127085000D03*
D20*
X91100000Y-135500000D03*
X96500000Y-135500000D03*
D32*
X139750000Y-127800000D03*
X139750000Y-130100000D03*
D33*
X133450000Y-130100000D03*
D32*
X139750000Y-132400000D03*
D34*
X153562500Y-92200000D03*
X153562500Y-91700000D03*
X153562500Y-91200000D03*
X153562500Y-90700000D03*
X153562500Y-90200000D03*
X153562500Y-89700000D03*
D35*
X154250000Y-89012500D03*
X154750000Y-89012500D03*
X155250000Y-89012500D03*
X155750000Y-89012500D03*
X156250000Y-89012500D03*
X156750000Y-89012500D03*
D34*
X157437500Y-89700000D03*
X157437500Y-90200000D03*
X157437500Y-90700000D03*
X157437500Y-91200000D03*
X157437500Y-91700000D03*
X157437500Y-92200000D03*
D35*
X156750000Y-92887500D03*
X156250000Y-92887500D03*
X155750000Y-92887500D03*
X155250000Y-92887500D03*
X154750000Y-92887500D03*
X154250000Y-92887500D03*
D36*
X155500000Y-90950000D03*
D19*
X121800000Y-55150000D03*
X121800000Y-53150000D03*
D37*
X90850000Y-84595000D03*
X90850000Y-54115000D03*
D22*
X140000000Y-138600000D03*
X133600000Y-138600000D03*
D19*
X99500000Y-49600000D03*
X99500000Y-47600000D03*
D38*
X182787500Y-40750000D03*
X180712500Y-40750000D03*
D25*
X165700000Y-105500000D03*
X165700000Y-99100000D03*
D37*
X212800000Y-84795000D03*
X212800000Y-54315000D03*
D39*
X149300000Y-96700000D03*
X149300000Y-103100000D03*
D24*
X161200000Y-85837500D03*
X161200000Y-83762500D03*
D26*
X204500000Y-117500000D03*
X206500000Y-117500000D03*
D40*
X171038000Y-108125000D03*
X171038000Y-108775000D03*
X171038000Y-109425000D03*
X171038000Y-110075000D03*
X171038000Y-110725000D03*
X171038000Y-111375000D03*
X171038000Y-112025000D03*
X171038000Y-112675000D03*
X171038000Y-113325000D03*
X171038000Y-113975000D03*
X171038000Y-114625000D03*
X171038000Y-115275000D03*
X165162000Y-115275000D03*
X165162000Y-114625000D03*
X165162000Y-113975000D03*
X165162000Y-113325000D03*
X165162000Y-112675000D03*
X165162000Y-112025000D03*
X165162000Y-111375000D03*
X165162000Y-110725000D03*
X165162000Y-110075000D03*
X165162000Y-109425000D03*
X165162000Y-108775000D03*
X165162000Y-108125000D03*
D21*
X195000000Y-56212500D03*
X195000000Y-58287500D03*
D24*
X151900000Y-85837500D03*
X151900000Y-83762500D03*
D16*
X101300000Y-90750000D03*
X91300000Y-90750000D03*
D26*
X147500000Y-50000000D03*
X149500000Y-50000000D03*
D22*
X140000000Y-121000000D03*
X133600000Y-121000000D03*
M02*
