M48
; DRILL file {KiCad 8.0.1} date 2024-07-09T16:41:17+0300
; FORMAT={-:-/ absolute / inch / decimal}
; #@! TF.CreationDate,2024-07-09T16:41:17+03:00
; #@! TF.GenerationSoftware,Kicad,Pcbnew,8.0.1
; #@! TF.FileFunction,Plated,1,2,PTH
FMAT,2
INCH
; #@! TA.AperFunction,Plated,PTH,ViaDrill
T1C0.0118
; #@! TA.AperFunction,Plated,PTH,ComponentDrill
T2C0.0118
; #@! TA.AperFunction,Plated,PTH,ViaDrill
T3C0.0236
; #@! TA.AperFunction,Plated,PTH,ComponentDrill
T4C0.0295
; #@! TA.AperFunction,Plated,PTH,ComponentDrill
T5C0.0394
; #@! TA.AperFunction,Plated,PTH,ComponentDrill
T6C0.0591
; #@! TA.AperFunction,Plated,PTH,ComponentDrill
T7C0.0787
; #@! TA.AperFunction,Plated,PTH,ViaDrill
T8C0.1378
; #@! TA.AperFunction,Plated,PTH,ViaDrill
T9C0.2559
%
G90
G05
T1
X3.9173Y-1.7835
X4.0945Y-2.2402
X4.0945Y-2.4902
X4.0945Y-3.315
X4.0945Y-3.815
X4.7953Y-2.2835
X4.8228Y-2.4685
X5.1772Y-4.7638
X5.1791Y-5.4567
X5.5531Y-4.0374
X5.5768Y-5.0335
X5.6909Y-4.1811
X5.7657Y-3.4646
X5.7657Y-3.6457
X5.8268Y-5.0906
X5.9803Y-3.25
X6.1024Y-3.252
X6.2205Y-3.2539
X6.2894Y-4.2972
X6.3228Y-4.2815
X6.3228Y-4.3583
X6.3465Y-3.252
X6.3602Y-4.2618
X6.3878Y-4.3839
X6.439Y-4.4094
X6.4469Y-4.5394
X6.4724Y-3.4035
X6.4724Y-3.6949
X6.5Y-4.6063
X6.5276Y-2.2598
X6.6161Y-2.2579
X6.628Y-3.9016
X6.6496Y-2.4902
X6.6752Y-5.2047
X6.7264Y-2.4921
X6.7933Y-4.5138
X6.8917Y-3.752
X6.8917Y-4.1752
X6.8937Y-3.3976
X6.9409Y-4.5177
X6.9449Y-4.4646
X6.9882Y-3.3937
X6.9882Y-3.7539
X6.998Y-4.5177
X7.0354Y-3.7559
X7.0394Y-3.3898
X7.0472Y-4.5197
X7.061Y-1.6043
X7.061Y-4.1142
X7.061Y-4.1752
X7.0945Y-4.6811
X7.0984Y-3.3858
X7.0984Y-3.752
X7.0984Y-4.3327
X7.1004Y-2.5138
X7.1004Y-2.7638
X7.128Y-5.2815
X7.1339Y-2.7638
X7.1339Y-3.3858
X7.1339Y-3.7559
X7.1339Y-4.3327
X7.1732Y-2.5354
X7.1732Y-2.7657
X7.1732Y-3.3878
X7.1732Y-3.75
X7.1752Y-4.3346
X7.1831Y-4.5059
X7.1949Y-2.3543
X7.2618Y-2.2126
X7.2657Y-1.6024
X7.378Y-4.685
X7.3819Y-4.5
X7.4134Y-4.6752
X7.4193Y-4.498
X7.4567Y-4.4665
X7.5Y-4.4587
X7.5118Y-4.6732
X7.5571Y-4.6673
X7.6083Y-2.2126
X7.6496Y-4.6594
X7.6752Y-5.2333
X7.6772Y-2.3504
X7.6988Y-4.6575
X7.9469Y-5.2795
X8.0123Y-4.8962
X8.1722Y-4.7313
X8.5197Y-5.1693
X8.6181Y-5.2677
T2
X6.0807Y-3.5394
X6.0807Y-3.5807
X6.0807Y-3.622
X6.122Y-3.5394
X6.122Y-3.5807
X6.122Y-3.622
X6.1634Y-3.5394
X6.1634Y-3.5807
X6.1634Y-3.622
X7.4213Y-4.9482
X7.4213Y-5.0033
X7.4488Y-4.9207
X7.4488Y-4.9758
X7.4488Y-5.0309
X7.4754Y-4.9482
X7.4754Y-5.0033
X7.5039Y-4.9207
X7.5039Y-4.9758
X7.5039Y-5.0309
X7.5315Y-4.9482
X7.5315Y-5.0033
T3
X5.876Y-4.1555
X5.8858Y-2.1831
X6.0315Y-2.5709
X6.1417Y-2.1535
X6.1417Y-2.6673
X6.4705Y-4.6791
X6.622Y-4.6791
X6.624Y-4.9921
T4
X2.7205Y-5.4429
X2.7992Y-5.4429
T5
X3.5945Y-3.5728
X3.9882Y-3.5728
X4.7953Y-1.6909
X4.7953Y-1.8465
X5.8051Y-1.565
X5.9035Y-1.565
X6.002Y-1.565
X6.1004Y-1.565
X7.9862Y-3.5689
X8.3799Y-3.5689
X8.7394Y-5.4882
X8.8394Y-5.4882
X8.9394Y-5.4882
X9.0394Y-5.4882
X9.3622Y-5.2982
X9.3622Y-5.3982
X9.3622Y-5.4982
T6
X3.5768Y-2.1305
X3.5768Y-3.3305
X8.378Y-2.1384
X8.378Y-3.3384
T7
X4.2126Y-4.8819
X4.2126Y-5.4724
X6.1024Y-5.1181
X6.1024Y-5.5118
T8
X3.0399Y-3.5677
X3.2761Y-3.5677
X8.658Y-3.5716
X8.8942Y-3.5716
T9
X2.784Y-4.0953
X2.7958Y-3.0362
X9.1265Y-3.0362
X9.1265Y-4.0953
M30
