G04 #@! TF.GenerationSoftware,KiCad,Pcbnew,8.0.1*
G04 #@! TF.CreationDate,2024-07-09T16:40:46+03:00*
G04 #@! TF.ProjectId,UA-1_v2,55412d31-5f76-4322-9e6b-696361645f70,rev?*
G04 #@! TF.SameCoordinates,Original*
G04 #@! TF.FileFunction,Copper,L2,Bot*
G04 #@! TF.FilePolarity,Positive*
%FSLAX46Y46*%
G04 Gerber Fmt 4.6, Leading zero omitted, Abs format (unit mm)*
G04 Created by KiCad (PCBNEW 8.0.1) date 2024-07-09 16:40:46*
%MOMM*%
%LPD*%
G01*
G04 APERTURE LIST*
G04 Aperture macros list*
%AMRoundRect*
0 Rectangle with rounded corners*
0 $1 Rounding radius*
0 $2 $3 $4 $5 $6 $7 $8 $9 X,Y pos of 4 corners*
0 Add a 4 corners polygon primitive as box body*
4,1,4,$2,$3,$4,$5,$6,$7,$8,$9,$2,$3,0*
0 Add four circle primitives for the rounded corners*
1,1,$1+$1,$2,$3*
1,1,$1+$1,$4,$5*
1,1,$1+$1,$6,$7*
1,1,$1+$1,$8,$9*
0 Add four rect primitives between the rounded corners*
20,1,$1+$1,$2,$3,$4,$5,0*
20,1,$1+$1,$4,$5,$6,$7,0*
20,1,$1+$1,$6,$7,$8,$9,0*
20,1,$1+$1,$8,$9,$2,$3,0*%
G04 Aperture macros list end*
G04 #@! TA.AperFunction,Conductor*
%ADD10C,0.200000*%
G04 #@! TD*
G04 #@! TA.AperFunction,ComponentPad*
%ADD11R,1.700000X1.700000*%
G04 #@! TD*
G04 #@! TA.AperFunction,ComponentPad*
%ADD12O,1.700000X1.700000*%
G04 #@! TD*
G04 #@! TA.AperFunction,ComponentPad*
%ADD13C,3.000000*%
G04 #@! TD*
G04 #@! TA.AperFunction,ComponentPad*
%ADD14C,1.500000*%
G04 #@! TD*
G04 #@! TA.AperFunction,ComponentPad*
%ADD15C,2.000000*%
G04 #@! TD*
G04 #@! TA.AperFunction,ComponentPad*
%ADD16RoundRect,0.250000X0.350000X0.625000X-0.350000X0.625000X-0.350000X-0.625000X0.350000X-0.625000X0*%
G04 #@! TD*
G04 #@! TA.AperFunction,ComponentPad*
%ADD17O,1.200000X1.750000*%
G04 #@! TD*
G04 #@! TA.AperFunction,SMDPad,CuDef*
%ADD18RoundRect,0.250000X0.450000X-0.350000X0.450000X0.350000X-0.450000X0.350000X-0.450000X-0.350000X0*%
G04 #@! TD*
G04 #@! TA.AperFunction,SMDPad,CuDef*
%ADD19RoundRect,0.250000X-1.500000X-0.900000X1.500000X-0.900000X1.500000X0.900000X-1.500000X0.900000X0*%
G04 #@! TD*
G04 #@! TA.AperFunction,SMDPad,CuDef*
%ADD20RoundRect,0.250000X-0.475000X0.337500X-0.475000X-0.337500X0.475000X-0.337500X0.475000X0.337500X0*%
G04 #@! TD*
G04 #@! TA.AperFunction,SMDPad,CuDef*
%ADD21RoundRect,0.250000X0.875000X1.025000X-0.875000X1.025000X-0.875000X-1.025000X0.875000X-1.025000X0*%
G04 #@! TD*
G04 #@! TA.AperFunction,SMDPad,CuDef*
%ADD22RoundRect,0.250000X0.350000X0.450000X-0.350000X0.450000X-0.350000X-0.450000X0.350000X-0.450000X0*%
G04 #@! TD*
G04 #@! TA.AperFunction,SMDPad,CuDef*
%ADD23RoundRect,0.250000X0.475000X-0.337500X0.475000X0.337500X-0.475000X0.337500X-0.475000X-0.337500X0*%
G04 #@! TD*
G04 #@! TA.AperFunction,SMDPad,CuDef*
%ADD24RoundRect,0.250000X1.025000X-0.875000X1.025000X0.875000X-1.025000X0.875000X-1.025000X-0.875000X0*%
G04 #@! TD*
G04 #@! TA.AperFunction,SMDPad,CuDef*
%ADD25RoundRect,0.250000X-0.350000X-0.450000X0.350000X-0.450000X0.350000X0.450000X-0.350000X0.450000X0*%
G04 #@! TD*
G04 #@! TA.AperFunction,SMDPad,CuDef*
%ADD26RoundRect,0.250000X1.500000X0.900000X-1.500000X0.900000X-1.500000X-0.900000X1.500000X-0.900000X0*%
G04 #@! TD*
G04 #@! TA.AperFunction,SMDPad,CuDef*
%ADD27R,1.500000X0.900000*%
G04 #@! TD*
G04 #@! TA.AperFunction,SMDPad,CuDef*
%ADD28R,0.900000X1.500000*%
G04 #@! TD*
G04 #@! TA.AperFunction,SMDPad,CuDef*
%ADD29R,0.900000X0.900000*%
G04 #@! TD*
G04 #@! TA.AperFunction,HeatsinkPad*
%ADD30C,0.600000*%
G04 #@! TD*
G04 #@! TA.AperFunction,SMDPad,CuDef*
%ADD31R,3.800000X3.800000*%
G04 #@! TD*
G04 #@! TA.AperFunction,SMDPad,CuDef*
%ADD32RoundRect,0.375000X0.625000X0.375000X-0.625000X0.375000X-0.625000X-0.375000X0.625000X-0.375000X0*%
G04 #@! TD*
G04 #@! TA.AperFunction,SMDPad,CuDef*
%ADD33RoundRect,0.500000X0.500000X1.400000X-0.500000X1.400000X-0.500000X-1.400000X0.500000X-1.400000X0*%
G04 #@! TD*
G04 #@! TA.AperFunction,SMDPad,CuDef*
%ADD34RoundRect,0.062500X-0.350000X-0.062500X0.350000X-0.062500X0.350000X0.062500X-0.350000X0.062500X0*%
G04 #@! TD*
G04 #@! TA.AperFunction,SMDPad,CuDef*
%ADD35RoundRect,0.062500X-0.062500X-0.350000X0.062500X-0.350000X0.062500X0.350000X-0.062500X0.350000X0*%
G04 #@! TD*
G04 #@! TA.AperFunction,HeatsinkPad*
%ADD36C,0.500000*%
G04 #@! TD*
G04 #@! TA.AperFunction,HeatsinkPad*
%ADD37R,2.600000X2.600000*%
G04 #@! TD*
G04 #@! TA.AperFunction,ComponentPad*
%ADD38C,2.500000*%
G04 #@! TD*
G04 #@! TA.AperFunction,SMDPad,CuDef*
%ADD39RoundRect,0.250000X0.337500X0.475000X-0.337500X0.475000X-0.337500X-0.475000X0.337500X-0.475000X0*%
G04 #@! TD*
G04 #@! TA.AperFunction,SMDPad,CuDef*
%ADD40RoundRect,0.250000X-1.025000X0.875000X-1.025000X-0.875000X1.025000X-0.875000X1.025000X0.875000X0*%
G04 #@! TD*
G04 #@! TA.AperFunction,SMDPad,CuDef*
%ADD41R,1.475000X0.450000*%
G04 #@! TD*
G04 #@! TA.AperFunction,ViaPad*
%ADD42C,15.000000*%
G04 #@! TD*
G04 #@! TA.AperFunction,ViaPad*
%ADD43C,0.600000*%
G04 #@! TD*
G04 #@! TA.AperFunction,ViaPad*
%ADD44C,1.200000*%
G04 #@! TD*
G04 #@! TA.AperFunction,ViaPad*
%ADD45C,5.000000*%
G04 #@! TD*
G04 #@! TA.AperFunction,Conductor*
%ADD46C,0.400000*%
G04 #@! TD*
G04 #@! TA.AperFunction,Conductor*
%ADD47C,1.300000*%
G04 #@! TD*
G04 #@! TA.AperFunction,Conductor*
%ADD48C,2.000000*%
G04 #@! TD*
G04 #@! TA.AperFunction,Conductor*
%ADD49C,1.000000*%
G04 #@! TD*
G04 APERTURE END LIST*
D10*
X217500000Y-87100000D02*
X228300000Y-87100000D01*
X228300000Y-94200000D01*
X217500000Y-94200000D01*
X217500000Y-87100000D01*
G04 #@! TA.AperFunction,Conductor*
G36*
X217500000Y-87100000D02*
G01*
X228300000Y-87100000D01*
X228300000Y-94200000D01*
X217500000Y-94200000D01*
X217500000Y-87100000D01*
G37*
G04 #@! TD.AperFunction*
X74800000Y-87100000D02*
X85600000Y-87100000D01*
X85600000Y-94200000D01*
X74800000Y-94200000D01*
X74800000Y-87100000D01*
G04 #@! TA.AperFunction,Conductor*
G36*
X74800000Y-87100000D02*
G01*
X85600000Y-87100000D01*
X85600000Y-94200000D01*
X74800000Y-94200000D01*
X74800000Y-87100000D01*
G37*
G04 #@! TD.AperFunction*
D11*
X237800000Y-134575000D03*
D12*
X237800000Y-137115000D03*
X237800000Y-139655000D03*
D13*
X107000000Y-139000000D03*
X107000000Y-124000000D03*
X155000000Y-130000000D03*
X155000000Y-140000000D03*
D14*
X147450000Y-39750000D03*
X149950000Y-39750000D03*
X152450000Y-39750000D03*
X154950000Y-39750000D03*
D15*
X121800000Y-42950000D03*
X121800000Y-46900000D03*
D16*
X71100000Y-138250000D03*
D17*
X69100000Y-138250000D03*
D11*
X221980000Y-139400000D03*
D12*
X224520000Y-139400000D03*
X227060000Y-139400000D03*
X229600000Y-139400000D03*
D18*
X177000000Y-109500000D03*
X177000000Y-107500000D03*
D19*
X80500000Y-135500000D03*
X85900000Y-135500000D03*
D20*
X182750000Y-56212500D03*
X182750000Y-58287500D03*
D15*
X212850000Y-90650000D03*
X202850000Y-90650000D03*
D21*
X178450000Y-132250000D03*
X172050000Y-132250000D03*
D22*
X149500000Y-46000000D03*
X147500000Y-46000000D03*
D23*
X158000000Y-85837500D03*
X158000000Y-83762500D03*
D24*
X171000000Y-105500000D03*
X171000000Y-99100000D03*
D25*
X174250000Y-126000000D03*
X176250000Y-126000000D03*
D23*
X155000000Y-85837500D03*
X155000000Y-83762500D03*
D26*
X96400000Y-130400000D03*
X91000000Y-130400000D03*
D24*
X148000000Y-137600000D03*
X148000000Y-131200000D03*
D27*
X182650000Y-134105000D03*
X182650000Y-132835000D03*
X182650000Y-131565000D03*
X182650000Y-130295000D03*
X182650000Y-129025000D03*
X182650000Y-127755000D03*
X182650000Y-126485000D03*
X182650000Y-125215000D03*
X182650000Y-123945000D03*
X182650000Y-122675000D03*
X182650000Y-121405000D03*
X182650000Y-120135000D03*
X182650000Y-118865000D03*
X182650000Y-117595000D03*
D28*
X185690000Y-116345000D03*
X186960000Y-116345000D03*
X188230000Y-116345000D03*
X189500000Y-116345000D03*
X190770000Y-116345000D03*
X192040000Y-116345000D03*
X193310000Y-116345000D03*
X194580000Y-116345000D03*
X195850000Y-116345000D03*
X197120000Y-116345000D03*
D27*
X200150000Y-117595000D03*
X200150000Y-118865000D03*
X200150000Y-120135000D03*
X200150000Y-121405000D03*
X200150000Y-122675000D03*
X200150000Y-123945000D03*
X200150000Y-125215000D03*
X200150000Y-126485000D03*
X200150000Y-127755000D03*
X200150000Y-129025000D03*
X200150000Y-130295000D03*
X200150000Y-131565000D03*
X200150000Y-132835000D03*
X200150000Y-134105000D03*
D29*
X188500000Y-124985000D03*
D30*
X188500000Y-125685000D03*
D29*
X188500000Y-126385000D03*
D30*
X188500000Y-127085000D03*
D29*
X188500000Y-127785000D03*
D30*
X189200000Y-124985000D03*
X189200000Y-126385000D03*
X189200000Y-127785000D03*
X189875000Y-125685000D03*
X189875000Y-127085000D03*
D29*
X189900000Y-124985000D03*
X189900000Y-126385000D03*
D31*
X189900000Y-126385000D03*
D29*
X189900000Y-127785000D03*
D30*
X190600000Y-124985000D03*
X190600000Y-126385000D03*
X190600000Y-127785000D03*
D29*
X191300000Y-124985000D03*
D30*
X191300000Y-125685000D03*
D29*
X191300000Y-126385000D03*
D30*
X191300000Y-127085000D03*
D29*
X191300000Y-127785000D03*
D19*
X91100000Y-135500000D03*
X96500000Y-135500000D03*
D32*
X139750000Y-127800000D03*
X139750000Y-130100000D03*
D33*
X133450000Y-130100000D03*
D32*
X139750000Y-132400000D03*
D34*
X153562500Y-92200000D03*
X153562500Y-91700000D03*
X153562500Y-91200000D03*
X153562500Y-90700000D03*
X153562500Y-90200000D03*
X153562500Y-89700000D03*
D35*
X154250000Y-89012500D03*
X154750000Y-89012500D03*
X155250000Y-89012500D03*
X155750000Y-89012500D03*
X156250000Y-89012500D03*
X156750000Y-89012500D03*
D34*
X157437500Y-89700000D03*
X157437500Y-90200000D03*
X157437500Y-90700000D03*
X157437500Y-91200000D03*
X157437500Y-91700000D03*
X157437500Y-92200000D03*
D35*
X156750000Y-92887500D03*
X156250000Y-92887500D03*
X155750000Y-92887500D03*
X155250000Y-92887500D03*
X154750000Y-92887500D03*
X154250000Y-92887500D03*
D36*
X154450000Y-89900000D03*
X154450000Y-90950000D03*
X154450000Y-92000000D03*
X155500000Y-89900000D03*
X155500000Y-90950000D03*
D37*
X155500000Y-90950000D03*
D36*
X155500000Y-92000000D03*
X156550000Y-89900000D03*
X156550000Y-90950000D03*
X156550000Y-92000000D03*
D18*
X121800000Y-55150000D03*
X121800000Y-53150000D03*
D38*
X90850000Y-84595000D03*
X90850000Y-54115000D03*
D21*
X140000000Y-138600000D03*
X133600000Y-138600000D03*
D18*
X99500000Y-49600000D03*
X99500000Y-47600000D03*
D39*
X182787500Y-40750000D03*
X180712500Y-40750000D03*
D24*
X165700000Y-105500000D03*
X165700000Y-99100000D03*
D38*
X212800000Y-84795000D03*
X212800000Y-54315000D03*
D40*
X149300000Y-96700000D03*
X149300000Y-103100000D03*
D23*
X161200000Y-85837500D03*
X161200000Y-83762500D03*
D25*
X204500000Y-117500000D03*
X206500000Y-117500000D03*
D41*
X171038000Y-108125000D03*
X171038000Y-108775000D03*
X171038000Y-109425000D03*
X171038000Y-110075000D03*
X171038000Y-110725000D03*
X171038000Y-111375000D03*
X171038000Y-112025000D03*
X171038000Y-112675000D03*
X171038000Y-113325000D03*
X171038000Y-113975000D03*
X171038000Y-114625000D03*
X171038000Y-115275000D03*
X165162000Y-115275000D03*
X165162000Y-114625000D03*
X165162000Y-113975000D03*
X165162000Y-113325000D03*
X165162000Y-112675000D03*
X165162000Y-112025000D03*
X165162000Y-111375000D03*
X165162000Y-110725000D03*
X165162000Y-110075000D03*
X165162000Y-109425000D03*
X165162000Y-108775000D03*
X165162000Y-108125000D03*
D20*
X195000000Y-56212500D03*
X195000000Y-58287500D03*
D23*
X151900000Y-85837500D03*
X151900000Y-83762500D03*
D15*
X101300000Y-90750000D03*
X91300000Y-90750000D03*
D25*
X147500000Y-50000000D03*
X149500000Y-50000000D03*
D21*
X140000000Y-121000000D03*
X133600000Y-121000000D03*
D42*
X71012461Y-77119461D03*
X231812461Y-104019461D03*
D43*
X161200000Y-82600000D03*
D44*
X149250000Y-105550000D03*
D43*
X179350000Y-40750000D03*
X158000000Y-82650000D03*
X169550000Y-132200000D03*
X163750000Y-115300000D03*
X155000000Y-82600000D03*
X181050000Y-134150000D03*
D42*
X231812461Y-77119461D03*
D43*
X151900000Y-82550000D03*
X131550000Y-138600000D03*
D42*
X70712461Y-104019461D03*
D43*
X148000000Y-129300000D03*
X201850000Y-134100000D03*
X182750000Y-59800000D03*
X131500000Y-121000000D03*
X195000000Y-59700000D03*
X182450000Y-114450000D03*
X172550000Y-114650000D03*
X168350000Y-99100000D03*
X141650000Y-127850000D03*
D45*
X77212461Y-90619461D03*
X83212461Y-90619461D03*
D44*
X168200000Y-118850000D03*
X168250000Y-126800000D03*
X156000000Y-54700000D03*
D43*
X146450000Y-88000000D03*
D44*
X164350000Y-118850000D03*
D43*
X146450000Y-92600000D03*
D44*
X156000000Y-67750000D03*
D43*
X164400000Y-93850000D03*
X203512500Y-124362500D03*
D44*
X153200000Y-65300000D03*
X149500000Y-55450000D03*
D43*
X207575000Y-120175000D03*
X194950000Y-132925000D03*
X164400000Y-86450000D03*
X193250000Y-56200000D03*
X177750000Y-114750000D03*
X181200000Y-95400000D03*
X181200000Y-70200000D03*
X181200000Y-86000000D03*
X181200000Y-110050000D03*
X182200000Y-64400000D03*
X182200000Y-70250000D03*
X182200000Y-86050000D03*
X184450000Y-56200000D03*
X179000000Y-114800000D03*
X182200000Y-95250000D03*
X182250000Y-110100000D03*
X180350000Y-70200000D03*
X180300000Y-95300000D03*
X184550000Y-40700000D03*
X176300000Y-114750000D03*
X180350000Y-63850000D03*
X180300000Y-110050000D03*
X180300000Y-86000000D03*
D45*
X225912461Y-90719461D03*
X219912461Y-90719461D03*
D43*
X99500000Y-45300000D03*
X194300000Y-118350000D03*
X189400000Y-113450000D03*
X191950000Y-118550000D03*
X188450000Y-114250000D03*
X190800000Y-118700000D03*
X187500000Y-114300000D03*
X160600000Y-110700000D03*
X159750000Y-109150000D03*
X190500000Y-113250000D03*
X195550000Y-118300000D03*
X161550000Y-108250000D03*
X163550000Y-112000000D03*
X162250000Y-111350000D03*
X160600000Y-108750000D03*
X216400000Y-131300000D03*
X218900000Y-133800000D03*
X141050000Y-102550000D03*
X180200000Y-118900000D03*
X104000000Y-56900000D03*
X104000000Y-63250000D03*
X104000000Y-96900000D03*
X104000000Y-84200000D03*
X165100000Y-117000000D03*
X144550000Y-106200000D03*
X175050000Y-106050000D03*
X176400000Y-113400000D03*
X175100000Y-86300000D03*
X122500000Y-62700000D03*
X175050000Y-95300000D03*
X121800000Y-58000000D03*
X187400000Y-119000000D03*
X177500000Y-95350000D03*
X179350000Y-106050000D03*
X168900000Y-63250000D03*
X177500000Y-86200000D03*
X165800000Y-57400000D03*
X170850000Y-63300000D03*
X178800000Y-86100000D03*
X168050000Y-57350000D03*
X178700000Y-95400000D03*
X179350000Y-104500000D03*
X188300000Y-118750000D03*
D10*
X121800000Y-46900000D02*
X121800000Y-53150000D01*
X181045000Y-134105000D02*
X181050000Y-134100000D01*
X172050000Y-132250000D02*
X169600000Y-132250000D01*
X182750000Y-58287500D02*
X182750000Y-59800000D01*
X168350000Y-99100000D02*
X165700000Y-99100000D01*
X155000000Y-83762500D02*
X155000000Y-82600000D01*
X163775000Y-115275000D02*
X163750000Y-115300000D01*
X166400000Y-109900000D02*
X165925000Y-109425000D01*
X169600000Y-132250000D02*
X169550000Y-132200000D01*
X180712500Y-40750000D02*
X179350000Y-40750000D01*
X139750000Y-127800000D02*
X139750000Y-127150000D01*
X171038000Y-114625000D02*
X172525000Y-114625000D01*
X200150000Y-134105000D02*
X199200000Y-134105000D01*
X139750000Y-127800000D02*
X141600000Y-127800000D01*
X158000000Y-83762500D02*
X158000000Y-82650000D01*
X133600000Y-121000000D02*
X131500000Y-121000000D01*
X182450000Y-114450000D02*
X184345000Y-116345000D01*
X185690000Y-122175000D02*
X189900000Y-126385000D01*
X191480000Y-126385000D02*
X189900000Y-126385000D01*
X151900000Y-83762500D02*
X151900000Y-82550000D01*
X172525000Y-114625000D02*
X172550000Y-114650000D01*
X171038000Y-115275000D02*
X171038000Y-114625000D01*
X166400000Y-114974500D02*
X166400000Y-109900000D01*
X217105000Y-134105000D02*
X201855000Y-134105000D01*
X165162000Y-115275000D02*
X163775000Y-115275000D01*
D46*
X149300000Y-103100000D02*
X149300000Y-105500000D01*
D10*
X201845000Y-134105000D02*
X200150000Y-134105000D01*
X185690000Y-116345000D02*
X185690000Y-122175000D01*
X181000000Y-134150000D02*
X180300000Y-134850000D01*
X195000000Y-58287500D02*
X195000000Y-59700000D01*
X182650000Y-134105000D02*
X200150000Y-134105000D01*
X182650000Y-134105000D02*
X181045000Y-134105000D01*
X166099500Y-115275000D02*
X166400000Y-114974500D01*
X133600000Y-138600000D02*
X131550000Y-138600000D01*
X148000000Y-131200000D02*
X148000000Y-129300000D01*
X184345000Y-116345000D02*
X185690000Y-116345000D01*
X180300000Y-134850000D02*
X174650000Y-134850000D01*
X149300000Y-105500000D02*
X149250000Y-105550000D01*
X201850000Y-134100000D02*
X201845000Y-134105000D01*
X171000000Y-99100000D02*
X168350000Y-99100000D01*
X221980000Y-139400000D02*
X221980000Y-138980000D01*
X161200000Y-83762500D02*
X161200000Y-82600000D01*
X174650000Y-134850000D02*
X172050000Y-132250000D01*
X165162000Y-115275000D02*
X166099500Y-115275000D01*
X141600000Y-127800000D02*
X141650000Y-127850000D01*
X201855000Y-134105000D02*
X201850000Y-134100000D01*
X165925000Y-109425000D02*
X165162000Y-109425000D01*
X221980000Y-138980000D02*
X217105000Y-134105000D01*
X181050000Y-134100000D02*
X181050000Y-134150000D01*
X199200000Y-134105000D02*
X191480000Y-126385000D01*
X181050000Y-134150000D02*
X181000000Y-134150000D01*
X151700000Y-90750000D02*
X151750000Y-90700000D01*
X151750000Y-90700000D02*
X153562500Y-90700000D01*
D47*
X101300000Y-90750000D02*
X151700000Y-90750000D01*
X91300000Y-90750000D02*
X83343000Y-90750000D01*
D10*
X83212461Y-90619461D02*
X77212461Y-90619461D01*
X83343000Y-90750000D02*
X83212461Y-90619461D01*
D48*
X86255000Y-84595000D02*
X80200000Y-90650000D01*
X90850000Y-84595000D02*
X86255000Y-84595000D01*
D46*
X156000000Y-54700000D02*
X156000000Y-48900000D01*
D10*
X168250000Y-126800000D02*
X168200000Y-126800000D01*
D46*
X148700000Y-94850000D02*
X149300000Y-94850000D01*
X156000000Y-48900000D02*
X153100000Y-46000000D01*
X171663000Y-107500000D02*
X171038000Y-108125000D01*
D10*
X170100500Y-108125000D02*
X171038000Y-108125000D01*
D46*
X155000000Y-130000000D02*
X165050000Y-130000000D01*
X153100000Y-46000000D02*
X149500000Y-46000000D01*
X142700000Y-99600000D02*
X145600000Y-96700000D01*
X146450000Y-92600000D02*
X148700000Y-94850000D01*
D49*
X140000000Y-138600000D02*
X147000000Y-138600000D01*
D46*
X164350000Y-118850000D02*
X154650000Y-118850000D01*
X146450000Y-77300000D02*
X146450000Y-88000000D01*
X168200000Y-118850000D02*
X168200000Y-110025500D01*
D49*
X148000000Y-137600000D02*
X150700000Y-137600000D01*
X155000000Y-133300000D02*
X155000000Y-130000000D01*
D46*
X165050000Y-130000000D02*
X168250000Y-126800000D01*
X142700000Y-106900000D02*
X142700000Y-99600000D01*
D49*
X140000000Y-138600000D02*
X140000000Y-132650000D01*
D10*
X168200000Y-110025500D02*
X170100500Y-108125000D01*
D49*
X147000000Y-138600000D02*
X148000000Y-137600000D01*
D46*
X145600000Y-96700000D02*
X149300000Y-96700000D01*
X177000000Y-107500000D02*
X171663000Y-107500000D01*
D49*
X150700000Y-137600000D02*
X155000000Y-133300000D01*
D46*
X156000000Y-67750000D02*
X146450000Y-77300000D01*
X154650000Y-118850000D02*
X142700000Y-106900000D01*
D10*
X152450000Y-91700000D02*
X153562500Y-91700000D01*
D46*
X171000000Y-106837000D02*
X171663000Y-107500000D01*
X149300000Y-94850000D02*
X152450000Y-91700000D01*
X171000000Y-105500000D02*
X171000000Y-106837000D01*
D10*
X140000000Y-132650000D02*
X139750000Y-132400000D01*
D46*
X149300000Y-96700000D02*
X149300000Y-94850000D01*
D10*
X206500000Y-119100000D02*
X206500000Y-117500000D01*
D46*
X140000000Y-121000000D02*
X166950000Y-121000000D01*
X161000000Y-101250000D02*
X161000000Y-97250000D01*
X155700000Y-65300000D02*
X153200000Y-65300000D01*
X166950000Y-121000000D02*
X168400000Y-121000000D01*
X133450000Y-130100000D02*
X139750000Y-130100000D01*
X139750000Y-130100000D02*
X141800000Y-130100000D01*
X165162000Y-108775000D02*
X165162000Y-106038000D01*
X164400000Y-86450000D02*
X164400000Y-74000000D01*
X161000000Y-97250000D02*
X164350000Y-93900000D01*
X174250000Y-128050000D02*
X178450000Y-132250000D01*
X141800000Y-130100000D02*
X142900000Y-129000000D01*
X142900000Y-123900000D02*
X140000000Y-121000000D01*
X173400000Y-126000000D02*
X174250000Y-126000000D01*
X179035000Y-132835000D02*
X182650000Y-132835000D01*
D10*
X220350000Y-130150000D02*
X209300000Y-130150000D01*
D46*
X165250000Y-105500000D02*
X161000000Y-101250000D01*
X164350000Y-93900000D02*
X164400000Y-93850000D01*
D10*
X166775000Y-108775000D02*
X166950000Y-108950000D01*
D46*
X168475000Y-121075000D02*
X173400000Y-126000000D01*
D10*
X229600000Y-139400000D02*
X220350000Y-130150000D01*
D46*
X164400000Y-86400000D02*
X164400000Y-86450000D01*
D10*
X165162000Y-106038000D02*
X165700000Y-105500000D01*
D46*
X174250000Y-126000000D02*
X174250000Y-128050000D01*
X166950000Y-108950000D02*
X166950000Y-121000000D01*
X142900000Y-129000000D02*
X142900000Y-123900000D01*
D10*
X165700000Y-105500000D02*
X165250000Y-105500000D01*
D46*
X149500000Y-55450000D02*
X149500000Y-50000000D01*
X164400000Y-74000000D02*
X155700000Y-65300000D01*
D10*
X165162000Y-108125000D02*
X165162000Y-108775000D01*
X178450000Y-132250000D02*
X179035000Y-132835000D01*
X207575000Y-120175000D02*
X206500000Y-119100000D01*
X209300000Y-130150000D02*
X203512500Y-124362500D01*
X168400000Y-121000000D02*
X168475000Y-121075000D01*
X165162000Y-108775000D02*
X166775000Y-108775000D01*
X194860000Y-132835000D02*
X194950000Y-132925000D01*
X182650000Y-132835000D02*
X194860000Y-132835000D01*
X154750000Y-89012500D02*
X155250000Y-89012500D01*
X154250000Y-89012500D02*
X153562500Y-89700000D01*
X154250000Y-88187500D02*
X151900000Y-85837500D01*
X154250000Y-89012500D02*
X154750000Y-89012500D01*
X154250000Y-89012500D02*
X154250000Y-88187500D01*
X155750000Y-86900000D02*
X155750000Y-89012500D01*
X155000000Y-86150000D02*
X155750000Y-86900000D01*
X155000000Y-85837500D02*
X155000000Y-86150000D01*
X158000000Y-85837500D02*
X156250000Y-87587500D01*
X156250000Y-87587500D02*
X156250000Y-89012500D01*
X157437500Y-89700000D02*
X161200000Y-85937500D01*
X161200000Y-85937500D02*
X161200000Y-85837500D01*
X181200000Y-109650000D02*
X181200000Y-95350000D01*
X181200000Y-110050000D02*
X181200000Y-109650000D01*
X179205000Y-121405000D02*
X177750000Y-119950000D01*
X177750000Y-114800000D02*
X177750000Y-114750000D01*
X193262500Y-56212500D02*
X193250000Y-56200000D01*
X181200000Y-95350000D02*
X181200000Y-95400000D01*
X177750000Y-119950000D02*
X177750000Y-114800000D01*
X181200000Y-86000000D02*
X181200000Y-70200000D01*
X195000000Y-56212500D02*
X193262500Y-56212500D01*
X182650000Y-121405000D02*
X179205000Y-121405000D01*
X182250000Y-110100000D02*
X182250000Y-95350000D01*
X182200000Y-95300000D02*
X182200000Y-95250000D01*
X182200000Y-61750000D02*
X180750000Y-60300000D01*
X182250000Y-95350000D02*
X182200000Y-95300000D01*
X179385000Y-120135000D02*
X179000000Y-119750000D01*
X180750000Y-60300000D02*
X180750000Y-56250000D01*
X180950000Y-56250000D02*
X180987500Y-56212500D01*
X180987500Y-56212500D02*
X182750000Y-56212500D01*
X179000000Y-119750000D02*
X179000000Y-114800000D01*
X182750000Y-56212500D02*
X184437500Y-56212500D01*
X180750000Y-56250000D02*
X180950000Y-56250000D01*
X182200000Y-64400000D02*
X182200000Y-61750000D01*
X182650000Y-120135000D02*
X179385000Y-120135000D01*
X182200000Y-86050000D02*
X182200000Y-70250000D01*
X184437500Y-56212500D02*
X184450000Y-56200000D01*
X180300000Y-110050000D02*
X180300000Y-95400000D01*
X180350000Y-85900000D02*
X180350000Y-85600000D01*
X178400000Y-47750000D02*
X182787500Y-43362500D01*
X180350000Y-63850000D02*
X178400000Y-61900000D01*
X182837500Y-40700000D02*
X182787500Y-40750000D01*
X180300000Y-95400000D02*
X180300000Y-95300000D01*
X178925000Y-122675000D02*
X176300000Y-120050000D01*
X180300000Y-85950000D02*
X180350000Y-85900000D01*
X180350000Y-85600000D02*
X180350000Y-70200000D01*
X176300000Y-120050000D02*
X176300000Y-114750000D01*
X180300000Y-86000000D02*
X180300000Y-85950000D01*
X178400000Y-61900000D02*
X178400000Y-47750000D01*
X182787500Y-43362500D02*
X182787500Y-40750000D01*
X184550000Y-40700000D02*
X182837500Y-40700000D01*
X182650000Y-122675000D02*
X178925000Y-122675000D01*
D47*
X202850000Y-90650000D02*
X159300000Y-90650000D01*
D10*
X159250000Y-90700000D02*
X157437500Y-90700000D01*
X159300000Y-90650000D02*
X159250000Y-90700000D01*
X219893000Y-90700000D02*
X219912461Y-90719461D01*
D47*
X212850000Y-90650000D02*
X212900000Y-90700000D01*
D48*
X217045000Y-84795000D02*
X222900000Y-90650000D01*
D47*
X212900000Y-90700000D02*
X219893000Y-90700000D01*
D48*
X212800000Y-84795000D02*
X217045000Y-84795000D01*
D49*
X91100000Y-135500000D02*
X85900000Y-135500000D01*
X107000000Y-139000000D02*
X80550000Y-139000000D01*
X80500000Y-135500000D02*
X80500000Y-138950000D01*
X80550000Y-139000000D02*
X71850000Y-139000000D01*
D10*
X80500000Y-138950000D02*
X80550000Y-139000000D01*
D49*
X71850000Y-139000000D02*
X71100000Y-138250000D01*
X96400000Y-130400000D02*
X96400000Y-135400000D01*
D10*
X96400000Y-135400000D02*
X96500000Y-135500000D01*
D49*
X81200000Y-130400000D02*
X59150000Y-108350000D01*
D48*
X199915000Y-67200000D02*
X212800000Y-54315000D01*
X96935000Y-60200000D02*
X171700000Y-60200000D01*
D10*
X59150000Y-108350000D02*
X59150000Y-108200000D01*
D48*
X171700000Y-60200000D02*
X178700000Y-67200000D01*
D49*
X59150000Y-108200000D02*
X59150000Y-73750000D01*
X91000000Y-130400000D02*
X81200000Y-130400000D01*
D48*
X90850000Y-54115000D02*
X96935000Y-60200000D01*
D49*
X78785000Y-54115000D02*
X90850000Y-54115000D01*
D48*
X178700000Y-67200000D02*
X199915000Y-67200000D01*
D49*
X59150000Y-73750000D02*
X78785000Y-54115000D01*
D10*
X99500000Y-47600000D02*
X99500000Y-45300000D01*
X159375000Y-110075000D02*
X165162000Y-110075000D01*
X159350000Y-110100000D02*
X159375000Y-110075000D01*
X154250000Y-92887500D02*
X154250000Y-105000000D01*
X154250000Y-105000000D02*
X159350000Y-110100000D01*
X197355000Y-121405000D02*
X194300000Y-118350000D01*
X173725000Y-110075000D02*
X171038000Y-110075000D01*
X175150000Y-111500000D02*
X173725000Y-110075000D01*
X187450000Y-111500000D02*
X175150000Y-111500000D01*
X189400000Y-113450000D02*
X187450000Y-111500000D01*
X200150000Y-121405000D02*
X197355000Y-121405000D01*
X186300000Y-112100000D02*
X174600000Y-112100000D01*
X188450000Y-114250000D02*
X186300000Y-112100000D01*
X191960000Y-118550000D02*
X191950000Y-118550000D01*
X197355000Y-123945000D02*
X191960000Y-118550000D01*
X173225000Y-110725000D02*
X171038000Y-110725000D01*
X200150000Y-123945000D02*
X197355000Y-123945000D01*
X174600000Y-112100000D02*
X173225000Y-110725000D01*
X197315000Y-125215000D02*
X190800000Y-118700000D01*
X200150000Y-125215000D02*
X197315000Y-125215000D01*
X186000000Y-112800000D02*
X174150000Y-112800000D01*
X172750000Y-111400000D02*
X172550000Y-111400000D01*
X174150000Y-112800000D02*
X172750000Y-111400000D01*
X187500000Y-114300000D02*
X186000000Y-112800000D01*
X172525000Y-111375000D02*
X171038000Y-111375000D01*
X172550000Y-111400000D02*
X172525000Y-111375000D01*
X175300000Y-109500000D02*
X174575000Y-108775000D01*
X177000000Y-109500000D02*
X175300000Y-109500000D01*
X174575000Y-108775000D02*
X171038000Y-108775000D01*
X160600000Y-110700000D02*
X160625000Y-110725000D01*
X159700000Y-109150000D02*
X159750000Y-109150000D01*
X160625000Y-110725000D02*
X165162000Y-110725000D01*
X155250000Y-92887500D02*
X155250000Y-104700000D01*
X155250000Y-104700000D02*
X159700000Y-109150000D01*
X200150000Y-120135000D02*
X197385000Y-120135000D01*
X188150000Y-110900000D02*
X175500000Y-110900000D01*
X175500000Y-110900000D02*
X174025000Y-109425000D01*
X190500000Y-113250000D02*
X188150000Y-110900000D01*
X197385000Y-120135000D02*
X195550000Y-118300000D01*
X174025000Y-109425000D02*
X171038000Y-109425000D01*
X163550000Y-112000000D02*
X165137000Y-112000000D01*
X156250000Y-92887500D02*
X156250000Y-102950000D01*
X165137000Y-112000000D02*
X165162000Y-112025000D01*
X156250000Y-102950000D02*
X161550000Y-108250000D01*
X163000000Y-111350000D02*
X163025000Y-111375000D01*
X162250000Y-111350000D02*
X163000000Y-111350000D01*
X163025000Y-111375000D02*
X165162000Y-111375000D01*
X155750000Y-103900000D02*
X160600000Y-108750000D01*
X155750000Y-92887500D02*
X155750000Y-103900000D01*
X207000000Y-132300000D02*
X204995000Y-130295000D01*
X227060000Y-139400000D02*
X219960000Y-132300000D01*
X204995000Y-130295000D02*
X200150000Y-130295000D01*
X219960000Y-132300000D02*
X207000000Y-132300000D01*
X216400000Y-131300000D02*
X208200000Y-131300000D01*
X208200000Y-131300000D02*
X205925000Y-129025000D01*
X224520000Y-139400000D02*
X218920000Y-133800000D01*
X218920000Y-133800000D02*
X218900000Y-133800000D01*
X205925000Y-129025000D02*
X200150000Y-129025000D01*
X234225000Y-134575000D02*
X222200000Y-122550000D01*
X204405000Y-117595000D02*
X204500000Y-117500000D01*
X200150000Y-117595000D02*
X204405000Y-117595000D01*
X237800000Y-134575000D02*
X234225000Y-134575000D01*
X204500000Y-120125000D02*
X204500000Y-117500000D01*
X222200000Y-122550000D02*
X206925000Y-122550000D01*
X206925000Y-122550000D02*
X204500000Y-120125000D01*
X176250000Y-126000000D02*
X181815000Y-131565000D01*
X181815000Y-131565000D02*
X182650000Y-131565000D01*
X147450000Y-39750000D02*
X147450000Y-49950000D01*
X147450000Y-49950000D02*
X147500000Y-50000000D01*
X104000000Y-84100000D02*
X104000000Y-63250000D01*
X182650000Y-118865000D02*
X180235000Y-118865000D01*
X155350000Y-117000000D02*
X144550000Y-106200000D01*
X99500000Y-52400000D02*
X99500000Y-49600000D01*
X107450000Y-100350000D02*
X104000000Y-96900000D01*
X180235000Y-118865000D02*
X180200000Y-118900000D01*
X104000000Y-84200000D02*
X104000000Y-84100000D01*
X112350000Y-100350000D02*
X107450000Y-100350000D01*
X104000000Y-56900000D02*
X99500000Y-52400000D01*
X138850000Y-100350000D02*
X112350000Y-100350000D01*
X165100000Y-117000000D02*
X155350000Y-117000000D01*
X141050000Y-102550000D02*
X138850000Y-100350000D01*
X121800000Y-58000000D02*
X121800000Y-55150000D01*
X182850000Y-113400000D02*
X184545000Y-113400000D01*
X175100000Y-81650000D02*
X160950000Y-67500000D01*
X182800000Y-113400000D02*
X176400000Y-113400000D01*
X175100000Y-86300000D02*
X175100000Y-81650000D01*
X175050000Y-106050000D02*
X175050000Y-95300000D01*
X160950000Y-67500000D02*
X156200000Y-62750000D01*
X122550000Y-62750000D02*
X122500000Y-62700000D01*
X184545000Y-113400000D02*
X186960000Y-115815000D01*
X186960000Y-115815000D02*
X186960000Y-116345000D01*
X147250000Y-62750000D02*
X122550000Y-62750000D01*
X182850000Y-113400000D02*
X182800000Y-113400000D01*
X156200000Y-62750000D02*
X147250000Y-62750000D01*
X189950000Y-120200000D02*
X188600000Y-120200000D01*
X177500000Y-71850000D02*
X168900000Y-63250000D01*
X196900000Y-129300000D02*
X196900000Y-127150000D01*
X165800000Y-57400000D02*
X165800000Y-54950000D01*
X199165000Y-131565000D02*
X196900000Y-129300000D01*
X196900000Y-127150000D02*
X189950000Y-120200000D01*
X165800000Y-54950000D02*
X152450000Y-41600000D01*
X177500000Y-104200000D02*
X177500000Y-95350000D01*
X179350000Y-106050000D02*
X177500000Y-104200000D01*
X188600000Y-120200000D02*
X187400000Y-119000000D01*
X152450000Y-41600000D02*
X152450000Y-39750000D01*
X177500000Y-86200000D02*
X177500000Y-71850000D01*
X200150000Y-131565000D02*
X199165000Y-131565000D01*
X198655000Y-127755000D02*
X189650000Y-118750000D01*
X168050000Y-52850000D02*
X154950000Y-39750000D01*
X179350000Y-104500000D02*
X179350000Y-97400000D01*
X200150000Y-127755000D02*
X198655000Y-127755000D01*
X179350000Y-97400000D02*
X178700000Y-96750000D01*
X178700000Y-96750000D02*
X178700000Y-96400000D01*
X178800000Y-71250000D02*
X170850000Y-63300000D01*
X178700000Y-96400000D02*
X178700000Y-95400000D01*
X178800000Y-86100000D02*
X178800000Y-71250000D01*
X168050000Y-57350000D02*
X168050000Y-52850000D01*
X189650000Y-118750000D02*
X188300000Y-118750000D01*
M02*
