G04 #@! TF.GenerationSoftware,KiCad,Pcbnew,8.0.1*
G04 #@! TF.CreationDate,2024-07-09T16:40:46+03:00*
G04 #@! TF.ProjectId,UA-1_v2,55412d31-5f76-4322-9e6b-696361645f70,rev?*
G04 #@! TF.SameCoordinates,Original*
G04 #@! TF.FileFunction,Copper,L1,Top*
G04 #@! TF.FilePolarity,Positive*
%FSLAX46Y46*%
G04 Gerber Fmt 4.6, Leading zero omitted, Abs format (unit mm)*
G04 Created by KiCad (PCBNEW 8.0.1) date 2024-07-09 16:40:46*
%MOMM*%
%LPD*%
G01*
G04 APERTURE LIST*
G04 Aperture macros list*
%AMRoundRect*
0 Rectangle with rounded corners*
0 $1 Rounding radius*
0 $2 $3 $4 $5 $6 $7 $8 $9 X,Y pos of 4 corners*
0 Add a 4 corners polygon primitive as box body*
4,1,4,$2,$3,$4,$5,$6,$7,$8,$9,$2,$3,0*
0 Add four circle primitives for the rounded corners*
1,1,$1+$1,$2,$3*
1,1,$1+$1,$4,$5*
1,1,$1+$1,$6,$7*
1,1,$1+$1,$8,$9*
0 Add four rect primitives between the rounded corners*
20,1,$1+$1,$2,$3,$4,$5,0*
20,1,$1+$1,$4,$5,$6,$7,0*
20,1,$1+$1,$6,$7,$8,$9,0*
20,1,$1+$1,$8,$9,$2,$3,0*%
G04 Aperture macros list end*
G04 #@! TA.AperFunction,Conductor*
%ADD10C,0.200000*%
G04 #@! TD*
G04 #@! TA.AperFunction,EtchedComponent*
%ADD11C,0.200000*%
G04 #@! TD*
G04 #@! TA.AperFunction,ComponentPad*
%ADD12R,1.700000X1.700000*%
G04 #@! TD*
G04 #@! TA.AperFunction,ComponentPad*
%ADD13O,1.700000X1.700000*%
G04 #@! TD*
G04 #@! TA.AperFunction,ComponentPad*
%ADD14C,3.000000*%
G04 #@! TD*
G04 #@! TA.AperFunction,ComponentPad*
%ADD15C,1.500000*%
G04 #@! TD*
G04 #@! TA.AperFunction,SMDPad,CuDef*
%ADD16R,1.000000X1.000000*%
G04 #@! TD*
G04 #@! TA.AperFunction,ComponentPad*
%ADD17C,2.000000*%
G04 #@! TD*
G04 #@! TA.AperFunction,SMDPad,CuDef*
%ADD18RoundRect,0.250001X0.462499X0.624999X-0.462499X0.624999X-0.462499X-0.624999X0.462499X-0.624999X0*%
G04 #@! TD*
G04 #@! TA.AperFunction,SMDPad,CuDef*
%ADD19RoundRect,0.375000X-0.375000X-1.125000X0.375000X-1.125000X0.375000X1.125000X-0.375000X1.125000X0*%
G04 #@! TD*
G04 #@! TA.AperFunction,ComponentPad*
%ADD20RoundRect,0.250000X0.350000X0.625000X-0.350000X0.625000X-0.350000X-0.625000X0.350000X-0.625000X0*%
G04 #@! TD*
G04 #@! TA.AperFunction,ComponentPad*
%ADD21O,1.200000X1.750000*%
G04 #@! TD*
G04 #@! TA.AperFunction,HeatsinkPad*
%ADD22C,0.600000*%
G04 #@! TD*
G04 #@! TA.AperFunction,HeatsinkPad*
%ADD23C,0.500000*%
G04 #@! TD*
G04 #@! TA.AperFunction,HeatsinkPad*
%ADD24R,2.600000X2.600000*%
G04 #@! TD*
G04 #@! TA.AperFunction,ComponentPad*
%ADD25C,2.500000*%
G04 #@! TD*
G04 #@! TA.AperFunction,ViaPad*
%ADD26C,15.000000*%
G04 #@! TD*
G04 #@! TA.AperFunction,ViaPad*
%ADD27C,0.600000*%
G04 #@! TD*
G04 #@! TA.AperFunction,ViaPad*
%ADD28C,1.200000*%
G04 #@! TD*
G04 #@! TA.AperFunction,ViaPad*
%ADD29C,5.000000*%
G04 #@! TD*
G04 #@! TA.AperFunction,Conductor*
%ADD30C,1.000000*%
G04 #@! TD*
G04 #@! TA.AperFunction,Conductor*
%ADD31C,0.400000*%
G04 #@! TD*
G04 APERTURE END LIST*
D10*
X217500000Y-87100000D02*
X228300000Y-87100000D01*
X228300000Y-94200000D01*
X217500000Y-94200000D01*
X217500000Y-87100000D01*
G04 #@! TA.AperFunction,Conductor*
G36*
X217500000Y-87100000D02*
G01*
X228300000Y-87100000D01*
X228300000Y-94200000D01*
X217500000Y-94200000D01*
X217500000Y-87100000D01*
G37*
G04 #@! TD.AperFunction*
X74800000Y-87100000D02*
X85600000Y-87100000D01*
X85600000Y-94200000D01*
X74800000Y-94200000D01*
X74800000Y-87100000D01*
G04 #@! TA.AperFunction,Conductor*
G36*
X74800000Y-87100000D02*
G01*
X85600000Y-87100000D01*
X85600000Y-94200000D01*
X74800000Y-94200000D01*
X74800000Y-87100000D01*
G37*
G04 #@! TD.AperFunction*
D11*
X178700000Y-46200000D02*
X198700000Y-46200000D01*
X198700000Y-46950000D01*
X178700000Y-46950000D01*
X178700000Y-46200000D01*
G04 #@! TA.AperFunction,EtchedComponent*
G36*
X178700000Y-46200000D02*
G01*
X198700000Y-46200000D01*
X198700000Y-46950000D01*
X178700000Y-46950000D01*
X178700000Y-46200000D01*
G37*
G04 #@! TD.AperFunction*
X178700000Y-46950000D02*
X183200000Y-46950000D01*
X183200000Y-49450000D01*
X178700000Y-49450000D01*
X178700000Y-46950000D01*
G04 #@! TA.AperFunction,EtchedComponent*
G36*
X178700000Y-46950000D02*
G01*
X183200000Y-46950000D01*
X183200000Y-49450000D01*
X178700000Y-49450000D01*
X178700000Y-46950000D01*
G37*
G04 #@! TD.AperFunction*
X178700000Y-49450000D02*
X198700000Y-49450000D01*
X198700000Y-50200000D01*
X178700000Y-50200000D01*
X178700000Y-49450000D01*
G04 #@! TA.AperFunction,EtchedComponent*
G36*
X178700000Y-49450000D02*
G01*
X198700000Y-49450000D01*
X198700000Y-50200000D01*
X178700000Y-50200000D01*
X178700000Y-49450000D01*
G37*
G04 #@! TD.AperFunction*
X194200000Y-46950000D02*
X198700000Y-46950000D01*
X198700000Y-49450000D01*
X194200000Y-49450000D01*
X194200000Y-46950000D01*
G04 #@! TA.AperFunction,EtchedComponent*
G36*
X194200000Y-46950000D02*
G01*
X198700000Y-46950000D01*
X198700000Y-49450000D01*
X194200000Y-49450000D01*
X194200000Y-46950000D01*
G37*
G04 #@! TD.AperFunction*
D12*
X237800000Y-134575000D03*
D13*
X237800000Y-137115000D03*
X237800000Y-139655000D03*
D14*
X107000000Y-139000000D03*
X107000000Y-124000000D03*
X155000000Y-130000000D03*
X155000000Y-140000000D03*
D15*
X147450000Y-39750000D03*
X149950000Y-39750000D03*
X152450000Y-39750000D03*
X154950000Y-39750000D03*
D16*
X65400000Y-104000000D03*
D17*
X121800000Y-42950000D03*
X121800000Y-46900000D03*
D16*
X222800000Y-90700000D03*
X80300000Y-90600000D03*
D18*
X102487500Y-42750000D03*
X99512500Y-42750000D03*
D19*
X186200000Y-55700000D03*
X188700000Y-55700000D03*
X191200000Y-55700000D03*
X191200000Y-40700000D03*
X186200000Y-40700000D03*
D16*
X237400000Y-104200000D03*
D20*
X71100000Y-138250000D03*
D21*
X69100000Y-138250000D03*
D12*
X221980000Y-139400000D03*
D13*
X224520000Y-139400000D03*
X227060000Y-139400000D03*
X229600000Y-139400000D03*
D17*
X212850000Y-90650000D03*
X202850000Y-90650000D03*
D22*
X188500000Y-125685000D03*
X188500000Y-127085000D03*
X189200000Y-124985000D03*
X189200000Y-126385000D03*
X189200000Y-127785000D03*
X189875000Y-125685000D03*
X189875000Y-127085000D03*
X190600000Y-124985000D03*
X190600000Y-126385000D03*
X190600000Y-127785000D03*
X191300000Y-125685000D03*
X191300000Y-127085000D03*
D23*
X154450000Y-89900000D03*
X154450000Y-90950000D03*
X154450000Y-92000000D03*
X155500000Y-89900000D03*
X155500000Y-90950000D03*
D24*
X155500000Y-90950000D03*
D23*
X155500000Y-92000000D03*
X156550000Y-89900000D03*
X156550000Y-90950000D03*
X156550000Y-92000000D03*
D25*
X90850000Y-84595000D03*
X90850000Y-54115000D03*
X212800000Y-84795000D03*
X212800000Y-54315000D03*
D17*
X101300000Y-90750000D03*
X91300000Y-90750000D03*
D26*
X71012461Y-77119461D03*
X231812461Y-104019461D03*
D27*
X161200000Y-82600000D03*
D28*
X149250000Y-105550000D03*
D27*
X179350000Y-40750000D03*
X158000000Y-82650000D03*
X169550000Y-132200000D03*
X163750000Y-115300000D03*
X155000000Y-82600000D03*
X181050000Y-134150000D03*
D26*
X231812461Y-77119461D03*
D27*
X151900000Y-82550000D03*
X131550000Y-138600000D03*
D26*
X70712461Y-104019461D03*
D27*
X148000000Y-129300000D03*
X201850000Y-134100000D03*
X182750000Y-59800000D03*
X131500000Y-121000000D03*
X195000000Y-59700000D03*
X182450000Y-114450000D03*
X172550000Y-114650000D03*
X168350000Y-99100000D03*
X141650000Y-127850000D03*
D29*
X77212461Y-90619461D03*
X83212461Y-90619461D03*
D28*
X168200000Y-118850000D03*
X168250000Y-126800000D03*
X156000000Y-54700000D03*
D27*
X146450000Y-88000000D03*
D28*
X164350000Y-118850000D03*
D27*
X146450000Y-92600000D03*
D28*
X156000000Y-67750000D03*
D27*
X164400000Y-93850000D03*
X203512500Y-124362500D03*
D28*
X153200000Y-65300000D03*
X149500000Y-55450000D03*
D27*
X207575000Y-120175000D03*
X194950000Y-132925000D03*
X164400000Y-86450000D03*
X193250000Y-56200000D03*
X177750000Y-114750000D03*
X181200000Y-95400000D03*
X181200000Y-70200000D03*
X181200000Y-86000000D03*
X181200000Y-110050000D03*
X182200000Y-64400000D03*
X182200000Y-70250000D03*
X182200000Y-86050000D03*
X184450000Y-56200000D03*
X179000000Y-114800000D03*
X182200000Y-95250000D03*
X182250000Y-110100000D03*
X180350000Y-70200000D03*
X180300000Y-95300000D03*
X184550000Y-40700000D03*
X176300000Y-114750000D03*
X180350000Y-63850000D03*
X180300000Y-110050000D03*
X180300000Y-86000000D03*
D29*
X225912461Y-90719461D03*
X219912461Y-90719461D03*
D27*
X99500000Y-45300000D03*
X194300000Y-118350000D03*
X189400000Y-113450000D03*
X191950000Y-118550000D03*
X188450000Y-114250000D03*
X190800000Y-118700000D03*
X187500000Y-114300000D03*
X160600000Y-110700000D03*
X159750000Y-109150000D03*
X190500000Y-113250000D03*
X195550000Y-118300000D03*
X161550000Y-108250000D03*
X163550000Y-112000000D03*
X162250000Y-111350000D03*
X160600000Y-108750000D03*
X216400000Y-131300000D03*
X218900000Y-133800000D03*
X141050000Y-102550000D03*
X180200000Y-118900000D03*
X104000000Y-56900000D03*
X104000000Y-63250000D03*
X104000000Y-96900000D03*
X104000000Y-84200000D03*
X165100000Y-117000000D03*
X144550000Y-106200000D03*
X175050000Y-106050000D03*
X176400000Y-113400000D03*
X175100000Y-86300000D03*
X122500000Y-62700000D03*
X175050000Y-95300000D03*
X121800000Y-58000000D03*
X187400000Y-119000000D03*
X177500000Y-95350000D03*
X179350000Y-106050000D03*
X168900000Y-63250000D03*
X177500000Y-86200000D03*
X165800000Y-57400000D03*
X170850000Y-63300000D03*
X178800000Y-86100000D03*
X168050000Y-57350000D03*
X178700000Y-95400000D03*
X179350000Y-104500000D03*
X188300000Y-118750000D03*
D30*
X188700000Y-55700000D02*
X188700000Y-57750000D01*
D10*
X188150000Y-58300000D02*
X183900000Y-58300000D01*
X183900000Y-58300000D02*
X182750000Y-59450000D01*
X182750000Y-59450000D02*
X182750000Y-59800000D01*
X188700000Y-57750000D02*
X188150000Y-58300000D01*
X168200000Y-126800000D02*
X168250000Y-126800000D01*
D31*
X156000000Y-67750000D02*
X156000000Y-54700000D01*
X168200000Y-126800000D02*
X168200000Y-118850000D01*
X146450000Y-88000000D02*
X146450000Y-92600000D01*
X168200000Y-118850000D02*
X164350000Y-118850000D01*
X153200000Y-65300000D02*
X149500000Y-61600000D01*
D10*
X203512500Y-124362500D02*
X207575000Y-120300000D01*
D31*
X149500000Y-61600000D02*
X149500000Y-55450000D01*
X164400000Y-93850000D02*
X164400000Y-86450000D01*
D10*
X194950000Y-132925000D02*
X203512500Y-124362500D01*
X207575000Y-120300000D02*
X207575000Y-120175000D01*
X177750000Y-114650000D02*
X181100000Y-111300000D01*
X177750000Y-114750000D02*
X177750000Y-114650000D01*
X181250000Y-110150000D02*
X181250000Y-110100000D01*
X181250000Y-111150000D02*
X181250000Y-110150000D01*
X181200000Y-94900000D02*
X181200000Y-86000000D01*
X184250000Y-60500000D02*
X189200000Y-60500000D01*
X181200000Y-70200000D02*
X181200000Y-63550000D01*
X189200000Y-60500000D02*
X191200000Y-58500000D01*
X191200000Y-58500000D02*
X191200000Y-55700000D01*
X181100000Y-111300000D02*
X181250000Y-111150000D01*
X191200000Y-55700000D02*
X191700000Y-56200000D01*
X181200000Y-95400000D02*
X181200000Y-94900000D01*
X183400000Y-61350000D02*
X184250000Y-60500000D01*
X191700000Y-56200000D02*
X193250000Y-56200000D01*
X181200000Y-63550000D02*
X183400000Y-61350000D01*
X181250000Y-110100000D02*
X181200000Y-110050000D01*
X182200000Y-95250000D02*
X182200000Y-86050000D01*
X179000000Y-114550000D02*
X181300000Y-112250000D01*
X184450000Y-56200000D02*
X185700000Y-56200000D01*
X182200000Y-70250000D02*
X182200000Y-64400000D01*
X182250000Y-111300000D02*
X182250000Y-110100000D01*
X179000000Y-114800000D02*
X179000000Y-114550000D01*
X181300000Y-112250000D02*
X182250000Y-111300000D01*
X185700000Y-56200000D02*
X186200000Y-55700000D01*
X180250000Y-110100000D02*
X180300000Y-110050000D01*
X176300000Y-114650000D02*
X177200000Y-113750000D01*
X176300000Y-114750000D02*
X176300000Y-114650000D01*
X180250000Y-110700000D02*
X180250000Y-110150000D01*
X180350000Y-70200000D02*
X180350000Y-63850000D01*
X180300000Y-95300000D02*
X180300000Y-94800000D01*
X186200000Y-40700000D02*
X184550000Y-40700000D01*
X180250000Y-110150000D02*
X180250000Y-110100000D01*
X180300000Y-94800000D02*
X180300000Y-86000000D01*
X177200000Y-113750000D02*
X180250000Y-110700000D01*
X99500000Y-45300000D02*
X99500000Y-45000000D01*
X99512500Y-44987500D02*
X99512500Y-42750000D01*
X99500000Y-45000000D02*
X99512500Y-44987500D01*
X194300000Y-118350000D02*
X189400000Y-113450000D01*
X191950000Y-118550000D02*
X188450000Y-115050000D01*
X188450000Y-115050000D02*
X188450000Y-114250000D01*
X187500000Y-115400000D02*
X187500000Y-114300000D01*
X190800000Y-118700000D02*
X187500000Y-115400000D01*
X159750000Y-109150000D02*
X159750000Y-109200000D01*
X159750000Y-109850000D02*
X160600000Y-110700000D01*
X159750000Y-109200000D02*
X159750000Y-109850000D01*
X195550000Y-118300000D02*
X190500000Y-113250000D01*
X161550000Y-108250000D02*
X161550000Y-108900000D01*
X163400000Y-111850000D02*
X163550000Y-112000000D01*
X163400000Y-110750000D02*
X163400000Y-111850000D01*
X161550000Y-108900000D02*
X163400000Y-110750000D01*
X160600000Y-109700000D02*
X162250000Y-111350000D01*
X160600000Y-108750000D02*
X160600000Y-109700000D01*
X218900000Y-133800000D02*
X216400000Y-131300000D01*
X180200000Y-118900000D02*
X171800000Y-118900000D01*
X144550000Y-106200000D02*
X141050000Y-102700000D01*
X104000000Y-63250000D02*
X104000000Y-56900000D01*
X171800000Y-118900000D02*
X169900000Y-117000000D01*
X104000000Y-96900000D02*
X104000000Y-84200000D01*
X169900000Y-117000000D02*
X165100000Y-117000000D01*
X141050000Y-102700000D02*
X141050000Y-102550000D01*
X121800000Y-62000000D02*
X121800000Y-58000000D01*
X175050000Y-95300000D02*
X175050000Y-86350000D01*
X176400000Y-113400000D02*
X176200000Y-113400000D01*
X175050000Y-86350000D02*
X175100000Y-86300000D01*
X175050000Y-112250000D02*
X175050000Y-106050000D01*
X176200000Y-113400000D02*
X175050000Y-112250000D01*
X122500000Y-62700000D02*
X121800000Y-62000000D01*
X179350000Y-106050000D02*
X179750000Y-106050000D01*
X183750000Y-115350000D02*
X187400000Y-119000000D01*
X168900000Y-60500000D02*
X165800000Y-57400000D01*
X168900000Y-63250000D02*
X168900000Y-60500000D01*
X177500000Y-95350000D02*
X177500000Y-86200000D01*
X183750000Y-110050000D02*
X183750000Y-115350000D01*
X179750000Y-106050000D02*
X183750000Y-110050000D01*
X170850000Y-60150000D02*
X168050000Y-57350000D01*
X178700000Y-86200000D02*
X178800000Y-86100000D01*
X180250000Y-104500000D02*
X185050000Y-109300000D01*
X185050000Y-115500000D02*
X188300000Y-118750000D01*
X178700000Y-95400000D02*
X178700000Y-86200000D01*
X170850000Y-63300000D02*
X170850000Y-60150000D01*
X185050000Y-109300000D02*
X185050000Y-115500000D01*
X179350000Y-104500000D02*
X180250000Y-104500000D01*
G04 #@! TA.AperFunction,Conductor*
G36*
X240542570Y-38519910D02*
G01*
X240588532Y-38572534D01*
X240599940Y-38624547D01*
X240550059Y-142426625D01*
X240530342Y-142493655D01*
X240477516Y-142539384D01*
X240426626Y-142550564D01*
X218824567Y-142649429D01*
X218757439Y-142630051D01*
X218711443Y-142577457D01*
X218700000Y-142525430D01*
X218700000Y-140297844D01*
X220630000Y-140297844D01*
X220636401Y-140357372D01*
X220636403Y-140357379D01*
X220686645Y-140492086D01*
X220686649Y-140492093D01*
X220772809Y-140607187D01*
X220772812Y-140607190D01*
X220887906Y-140693350D01*
X220887913Y-140693354D01*
X221022620Y-140743596D01*
X221022627Y-140743598D01*
X221082155Y-140749999D01*
X221082172Y-140750000D01*
X221730000Y-140750000D01*
X221730000Y-139833012D01*
X221787007Y-139865925D01*
X221914174Y-139900000D01*
X222045826Y-139900000D01*
X222172993Y-139865925D01*
X222230000Y-139833012D01*
X222230000Y-140750000D01*
X222877828Y-140750000D01*
X222877844Y-140749999D01*
X222937372Y-140743598D01*
X222937379Y-140743596D01*
X223072086Y-140693354D01*
X223072093Y-140693350D01*
X223187187Y-140607190D01*
X223187190Y-140607187D01*
X223273350Y-140492093D01*
X223273354Y-140492086D01*
X223322422Y-140360529D01*
X223364293Y-140304595D01*
X223429757Y-140280178D01*
X223498030Y-140295030D01*
X223526285Y-140316181D01*
X223648599Y-140438495D01*
X223725135Y-140492086D01*
X223842165Y-140574032D01*
X223842167Y-140574033D01*
X223842170Y-140574035D01*
X224056337Y-140673903D01*
X224284592Y-140735063D01*
X224455319Y-140750000D01*
X224519999Y-140755659D01*
X224520000Y-140755659D01*
X224520001Y-140755659D01*
X224584681Y-140750000D01*
X224755408Y-140735063D01*
X224983663Y-140673903D01*
X225197830Y-140574035D01*
X225391401Y-140438495D01*
X225558495Y-140271401D01*
X225688425Y-140085842D01*
X225743002Y-140042217D01*
X225812500Y-140035023D01*
X225874855Y-140066546D01*
X225891575Y-140085842D01*
X226021500Y-140271395D01*
X226021505Y-140271401D01*
X226188599Y-140438495D01*
X226265135Y-140492086D01*
X226382165Y-140574032D01*
X226382167Y-140574033D01*
X226382170Y-140574035D01*
X226596337Y-140673903D01*
X226824592Y-140735063D01*
X226995319Y-140750000D01*
X227059999Y-140755659D01*
X227060000Y-140755659D01*
X227060001Y-140755659D01*
X227124681Y-140750000D01*
X227295408Y-140735063D01*
X227523663Y-140673903D01*
X227737830Y-140574035D01*
X227931401Y-140438495D01*
X228098495Y-140271401D01*
X228228425Y-140085842D01*
X228283002Y-140042217D01*
X228352500Y-140035023D01*
X228414855Y-140066546D01*
X228431575Y-140085842D01*
X228561500Y-140271395D01*
X228561505Y-140271401D01*
X228728599Y-140438495D01*
X228805135Y-140492086D01*
X228922165Y-140574032D01*
X228922167Y-140574033D01*
X228922170Y-140574035D01*
X229136337Y-140673903D01*
X229364592Y-140735063D01*
X229535319Y-140750000D01*
X229599999Y-140755659D01*
X229600000Y-140755659D01*
X229600001Y-140755659D01*
X229664681Y-140750000D01*
X229835408Y-140735063D01*
X230063663Y-140673903D01*
X230277830Y-140574035D01*
X230471401Y-140438495D01*
X230638495Y-140271401D01*
X230774035Y-140077830D01*
X230873903Y-139863663D01*
X230929813Y-139655000D01*
X236444341Y-139655000D01*
X236464936Y-139890403D01*
X236464938Y-139890413D01*
X236526094Y-140118655D01*
X236526096Y-140118659D01*
X236526097Y-140118663D01*
X236597317Y-140271395D01*
X236625965Y-140332830D01*
X236625967Y-140332834D01*
X236724588Y-140473678D01*
X236761505Y-140526401D01*
X236928599Y-140693495D01*
X237017378Y-140755659D01*
X237122165Y-140829032D01*
X237122167Y-140829033D01*
X237122170Y-140829035D01*
X237336337Y-140928903D01*
X237564592Y-140990063D01*
X237742291Y-141005610D01*
X237799999Y-141010659D01*
X237800000Y-141010659D01*
X237800001Y-141010659D01*
X237857709Y-141005610D01*
X238035408Y-140990063D01*
X238263663Y-140928903D01*
X238477830Y-140829035D01*
X238671401Y-140693495D01*
X238838495Y-140526401D01*
X238974035Y-140332830D01*
X239073903Y-140118663D01*
X239135063Y-139890408D01*
X239155659Y-139655000D01*
X239135063Y-139419592D01*
X239073903Y-139191337D01*
X238974035Y-138977171D01*
X238945442Y-138936335D01*
X238838494Y-138783597D01*
X238671402Y-138616506D01*
X238671401Y-138616505D01*
X238485405Y-138486269D01*
X238441781Y-138431692D01*
X238434588Y-138362193D01*
X238466110Y-138299839D01*
X238485405Y-138283119D01*
X238671082Y-138153105D01*
X238838105Y-137986082D01*
X238973600Y-137792578D01*
X239073429Y-137578492D01*
X239073432Y-137578486D01*
X239130636Y-137365000D01*
X238233012Y-137365000D01*
X238265925Y-137307993D01*
X238300000Y-137180826D01*
X238300000Y-137049174D01*
X238265925Y-136922007D01*
X238233012Y-136865000D01*
X239130636Y-136865000D01*
X239130635Y-136864999D01*
X239073432Y-136651513D01*
X239073429Y-136651507D01*
X238973600Y-136437422D01*
X238973599Y-136437420D01*
X238838113Y-136243926D01*
X238838108Y-136243920D01*
X238716053Y-136121865D01*
X238682568Y-136060542D01*
X238687552Y-135990850D01*
X238729424Y-135934917D01*
X238760400Y-135918002D01*
X238892331Y-135868796D01*
X239007546Y-135782546D01*
X239093796Y-135667331D01*
X239144091Y-135532483D01*
X239150500Y-135472873D01*
X239150499Y-133677128D01*
X239144091Y-133617517D01*
X239093796Y-133482669D01*
X239093795Y-133482668D01*
X239093793Y-133482664D01*
X239007547Y-133367455D01*
X239007544Y-133367452D01*
X238892335Y-133281206D01*
X238892328Y-133281202D01*
X238757482Y-133230908D01*
X238757483Y-133230908D01*
X238697883Y-133224501D01*
X238697881Y-133224500D01*
X238697873Y-133224500D01*
X238697864Y-133224500D01*
X236902129Y-133224500D01*
X236902123Y-133224501D01*
X236842516Y-133230908D01*
X236707671Y-133281202D01*
X236707664Y-133281206D01*
X236592455Y-133367452D01*
X236592452Y-133367455D01*
X236506206Y-133482664D01*
X236506202Y-133482671D01*
X236455908Y-133617517D01*
X236449501Y-133677116D01*
X236449501Y-133677123D01*
X236449500Y-133677135D01*
X236449500Y-135472870D01*
X236449501Y-135472876D01*
X236455908Y-135532483D01*
X236506202Y-135667328D01*
X236506206Y-135667335D01*
X236592452Y-135782544D01*
X236592455Y-135782547D01*
X236707664Y-135868793D01*
X236707671Y-135868797D01*
X236707674Y-135868798D01*
X236839598Y-135918002D01*
X236895531Y-135959873D01*
X236919949Y-136025337D01*
X236905098Y-136093610D01*
X236883947Y-136121865D01*
X236761886Y-136243926D01*
X236626400Y-136437420D01*
X236626399Y-136437422D01*
X236526570Y-136651507D01*
X236526567Y-136651513D01*
X236469364Y-136864999D01*
X236469364Y-136865000D01*
X237366988Y-136865000D01*
X237334075Y-136922007D01*
X237300000Y-137049174D01*
X237300000Y-137180826D01*
X237334075Y-137307993D01*
X237366988Y-137365000D01*
X236469364Y-137365000D01*
X236526567Y-137578486D01*
X236526570Y-137578492D01*
X236626399Y-137792578D01*
X236761894Y-137986082D01*
X236928917Y-138153105D01*
X237114595Y-138283119D01*
X237158219Y-138337696D01*
X237165412Y-138407195D01*
X237133890Y-138469549D01*
X237114595Y-138486269D01*
X236928594Y-138616508D01*
X236761505Y-138783597D01*
X236625965Y-138977169D01*
X236625964Y-138977171D01*
X236526098Y-139191335D01*
X236526094Y-139191344D01*
X236464938Y-139419586D01*
X236464936Y-139419596D01*
X236444341Y-139654999D01*
X236444341Y-139655000D01*
X230929813Y-139655000D01*
X230935063Y-139635408D01*
X230955659Y-139400000D01*
X230935063Y-139164592D01*
X230873903Y-138936337D01*
X230774035Y-138722171D01*
X230768715Y-138714572D01*
X230638494Y-138528597D01*
X230471402Y-138361506D01*
X230471395Y-138361501D01*
X230277834Y-138225967D01*
X230277830Y-138225965D01*
X230151021Y-138166833D01*
X230063663Y-138126097D01*
X230063659Y-138126096D01*
X230063655Y-138126094D01*
X229835413Y-138064938D01*
X229835403Y-138064936D01*
X229600001Y-138044341D01*
X229599999Y-138044341D01*
X229364596Y-138064936D01*
X229364586Y-138064938D01*
X229136344Y-138126094D01*
X229136335Y-138126098D01*
X228922171Y-138225964D01*
X228922169Y-138225965D01*
X228728597Y-138361505D01*
X228561505Y-138528597D01*
X228431575Y-138714158D01*
X228376998Y-138757783D01*
X228307500Y-138764977D01*
X228245145Y-138733454D01*
X228228425Y-138714158D01*
X228098494Y-138528597D01*
X227931402Y-138361506D01*
X227931395Y-138361501D01*
X227737834Y-138225967D01*
X227737830Y-138225965D01*
X227611021Y-138166833D01*
X227523663Y-138126097D01*
X227523659Y-138126096D01*
X227523655Y-138126094D01*
X227295413Y-138064938D01*
X227295403Y-138064936D01*
X227060001Y-138044341D01*
X227059999Y-138044341D01*
X226824596Y-138064936D01*
X226824586Y-138064938D01*
X226596344Y-138126094D01*
X226596335Y-138126098D01*
X226382171Y-138225964D01*
X226382169Y-138225965D01*
X226188597Y-138361505D01*
X226021505Y-138528597D01*
X225891575Y-138714158D01*
X225836998Y-138757783D01*
X225767500Y-138764977D01*
X225705145Y-138733454D01*
X225688425Y-138714158D01*
X225558494Y-138528597D01*
X225391402Y-138361506D01*
X225391395Y-138361501D01*
X225197834Y-138225967D01*
X225197830Y-138225965D01*
X225071021Y-138166833D01*
X224983663Y-138126097D01*
X224983659Y-138126096D01*
X224983655Y-138126094D01*
X224755413Y-138064938D01*
X224755403Y-138064936D01*
X224520001Y-138044341D01*
X224519999Y-138044341D01*
X224284596Y-138064936D01*
X224284586Y-138064938D01*
X224056344Y-138126094D01*
X224056335Y-138126098D01*
X223842171Y-138225964D01*
X223842169Y-138225965D01*
X223648600Y-138361503D01*
X223526284Y-138483819D01*
X223464961Y-138517303D01*
X223395269Y-138512319D01*
X223339336Y-138470447D01*
X223322421Y-138439470D01*
X223273354Y-138307913D01*
X223273350Y-138307906D01*
X223187190Y-138192812D01*
X223187187Y-138192809D01*
X223072093Y-138106649D01*
X223072086Y-138106645D01*
X222937379Y-138056403D01*
X222937372Y-138056401D01*
X222877844Y-138050000D01*
X222230000Y-138050000D01*
X222230000Y-138966988D01*
X222172993Y-138934075D01*
X222045826Y-138900000D01*
X221914174Y-138900000D01*
X221787007Y-138934075D01*
X221730000Y-138966988D01*
X221730000Y-138050000D01*
X221082155Y-138050000D01*
X221022627Y-138056401D01*
X221022620Y-138056403D01*
X220887913Y-138106645D01*
X220887906Y-138106649D01*
X220772812Y-138192809D01*
X220772809Y-138192812D01*
X220686649Y-138307906D01*
X220686645Y-138307913D01*
X220636403Y-138442620D01*
X220636401Y-138442627D01*
X220630000Y-138502155D01*
X220630000Y-139150000D01*
X221546988Y-139150000D01*
X221514075Y-139207007D01*
X221480000Y-139334174D01*
X221480000Y-139465826D01*
X221514075Y-139592993D01*
X221546988Y-139650000D01*
X220630000Y-139650000D01*
X220630000Y-140297844D01*
X218700000Y-140297844D01*
X218700000Y-135100000D01*
X164250000Y-135100000D01*
X164200806Y-142577416D01*
X164180681Y-142644324D01*
X164127577Y-142689731D01*
X164077416Y-142700599D01*
X62124607Y-143199390D01*
X62057472Y-143180033D01*
X62011459Y-143127454D01*
X62000000Y-143075391D01*
X62000000Y-138611571D01*
X68000000Y-138611571D01*
X68027085Y-138782584D01*
X68080591Y-138947257D01*
X68159195Y-139101524D01*
X68260967Y-139241602D01*
X68383397Y-139364032D01*
X68523475Y-139465804D01*
X68677744Y-139544408D01*
X68842415Y-139597914D01*
X68842414Y-139597914D01*
X68849999Y-139599115D01*
X68850000Y-139599114D01*
X68850000Y-138530330D01*
X68869745Y-138550075D01*
X68955255Y-138599444D01*
X69050630Y-138625000D01*
X69149370Y-138625000D01*
X69244745Y-138599444D01*
X69330255Y-138550075D01*
X69350000Y-138530330D01*
X69350000Y-139599115D01*
X69357584Y-139597914D01*
X69522255Y-139544408D01*
X69676524Y-139465804D01*
X69816598Y-139364035D01*
X69924199Y-139256434D01*
X69985522Y-139222949D01*
X70055214Y-139227933D01*
X70111148Y-139269804D01*
X70117418Y-139279016D01*
X70157288Y-139343656D01*
X70281344Y-139467712D01*
X70430666Y-139559814D01*
X70597203Y-139614999D01*
X70699991Y-139625500D01*
X71500008Y-139625499D01*
X71500016Y-139625498D01*
X71500019Y-139625498D01*
X71556302Y-139619748D01*
X71602797Y-139614999D01*
X71769334Y-139559814D01*
X71918656Y-139467712D01*
X72042712Y-139343656D01*
X72134814Y-139194334D01*
X72189999Y-139027797D01*
X72192839Y-139000001D01*
X104994390Y-139000001D01*
X105014804Y-139285433D01*
X105075628Y-139565037D01*
X105075630Y-139565043D01*
X105075631Y-139565046D01*
X105175633Y-139833161D01*
X105175635Y-139833166D01*
X105312770Y-140084309D01*
X105312775Y-140084317D01*
X105484254Y-140313387D01*
X105484270Y-140313405D01*
X105686594Y-140515729D01*
X105686612Y-140515745D01*
X105915682Y-140687224D01*
X105915690Y-140687229D01*
X106166833Y-140824364D01*
X106166832Y-140824364D01*
X106166836Y-140824365D01*
X106166839Y-140824367D01*
X106434954Y-140924369D01*
X106434960Y-140924370D01*
X106434962Y-140924371D01*
X106714566Y-140985195D01*
X106714568Y-140985195D01*
X106714572Y-140985196D01*
X106968220Y-141003337D01*
X106999999Y-141005610D01*
X107000000Y-141005610D01*
X107000001Y-141005610D01*
X107028595Y-141003564D01*
X107285428Y-140985196D01*
X107544204Y-140928903D01*
X107565037Y-140924371D01*
X107565037Y-140924370D01*
X107565046Y-140924369D01*
X107833161Y-140824367D01*
X108084315Y-140687226D01*
X108313395Y-140515739D01*
X108515739Y-140313395D01*
X108687226Y-140084315D01*
X108733265Y-140000001D01*
X152994891Y-140000001D01*
X153015300Y-140285362D01*
X153076109Y-140564895D01*
X153176091Y-140832958D01*
X153313191Y-141084038D01*
X153313196Y-141084046D01*
X153419882Y-141226561D01*
X153419883Y-141226562D01*
X154137425Y-140509019D01*
X154223249Y-140637463D01*
X154362537Y-140776751D01*
X154490978Y-140862573D01*
X153773436Y-141580115D01*
X153915960Y-141686807D01*
X153915961Y-141686808D01*
X154167042Y-141823908D01*
X154167041Y-141823908D01*
X154435104Y-141923890D01*
X154714637Y-141984699D01*
X154999999Y-142005109D01*
X155000001Y-142005109D01*
X155285362Y-141984699D01*
X155564895Y-141923890D01*
X155832958Y-141823908D01*
X156084047Y-141686803D01*
X156226561Y-141580116D01*
X156226562Y-141580115D01*
X155509021Y-140862573D01*
X155637463Y-140776751D01*
X155776751Y-140637463D01*
X155862573Y-140509020D01*
X156580115Y-141226562D01*
X156580116Y-141226561D01*
X156686803Y-141084047D01*
X156823908Y-140832958D01*
X156923890Y-140564895D01*
X156984699Y-140285362D01*
X157005109Y-140000001D01*
X157005109Y-139999998D01*
X156984699Y-139714637D01*
X156923890Y-139435104D01*
X156823908Y-139167041D01*
X156686808Y-138915961D01*
X156686807Y-138915960D01*
X156580115Y-138773436D01*
X155862573Y-139490978D01*
X155776751Y-139362537D01*
X155637463Y-139223249D01*
X155509020Y-139137425D01*
X156226562Y-138419883D01*
X156226561Y-138419882D01*
X156084046Y-138313196D01*
X156084038Y-138313191D01*
X155832957Y-138176091D01*
X155832958Y-138176091D01*
X155564895Y-138076109D01*
X155285362Y-138015300D01*
X155000001Y-137994891D01*
X154999999Y-137994891D01*
X154714637Y-138015300D01*
X154435104Y-138076109D01*
X154167041Y-138176091D01*
X153915961Y-138313191D01*
X153915953Y-138313196D01*
X153773437Y-138419882D01*
X153773436Y-138419883D01*
X154490979Y-139137426D01*
X154362537Y-139223249D01*
X154223249Y-139362537D01*
X154137426Y-139490979D01*
X153419883Y-138773436D01*
X153419882Y-138773437D01*
X153313196Y-138915953D01*
X153313191Y-138915961D01*
X153176091Y-139167041D01*
X153076109Y-139435104D01*
X153015300Y-139714637D01*
X152994891Y-139999998D01*
X152994891Y-140000001D01*
X108733265Y-140000001D01*
X108824367Y-139833161D01*
X108924369Y-139565046D01*
X108956010Y-139419596D01*
X108985195Y-139285433D01*
X108985195Y-139285432D01*
X108985196Y-139285428D01*
X109005610Y-139000000D01*
X108985196Y-138714572D01*
X108925351Y-138439470D01*
X108924371Y-138434962D01*
X108924370Y-138434960D01*
X108924369Y-138434954D01*
X108824367Y-138166839D01*
X108802118Y-138126094D01*
X108687229Y-137915690D01*
X108687224Y-137915682D01*
X108515745Y-137686612D01*
X108515729Y-137686594D01*
X108313405Y-137484270D01*
X108313387Y-137484254D01*
X108084317Y-137312775D01*
X108084309Y-137312770D01*
X107833166Y-137175635D01*
X107833167Y-137175635D01*
X107725915Y-137135632D01*
X107565046Y-137075631D01*
X107565043Y-137075630D01*
X107565037Y-137075628D01*
X107285433Y-137014804D01*
X107000001Y-136994390D01*
X106999999Y-136994390D01*
X106714566Y-137014804D01*
X106434962Y-137075628D01*
X106166833Y-137175635D01*
X105915690Y-137312770D01*
X105915682Y-137312775D01*
X105686612Y-137484254D01*
X105686594Y-137484270D01*
X105484270Y-137686594D01*
X105484254Y-137686612D01*
X105312775Y-137915682D01*
X105312770Y-137915690D01*
X105175635Y-138166833D01*
X105075628Y-138434962D01*
X105014804Y-138714566D01*
X104994390Y-138999998D01*
X104994390Y-139000001D01*
X72192839Y-139000001D01*
X72200500Y-138925009D01*
X72200499Y-137574992D01*
X72189999Y-137472203D01*
X72134814Y-137305666D01*
X72042712Y-137156344D01*
X71918656Y-137032288D01*
X71769334Y-136940186D01*
X71602797Y-136885001D01*
X71602795Y-136885000D01*
X71500010Y-136874500D01*
X70699998Y-136874500D01*
X70699980Y-136874501D01*
X70597203Y-136885000D01*
X70597200Y-136885001D01*
X70430668Y-136940185D01*
X70430663Y-136940187D01*
X70281342Y-137032289D01*
X70157289Y-137156342D01*
X70117420Y-137220981D01*
X70065472Y-137267705D01*
X69996509Y-137278928D01*
X69932427Y-137251084D01*
X69924200Y-137243565D01*
X69816602Y-137135967D01*
X69676524Y-137034195D01*
X69522257Y-136955591D01*
X69357589Y-136902087D01*
X69357581Y-136902085D01*
X69350000Y-136900884D01*
X69350000Y-137969670D01*
X69330255Y-137949925D01*
X69244745Y-137900556D01*
X69149370Y-137875000D01*
X69050630Y-137875000D01*
X68955255Y-137900556D01*
X68869745Y-137949925D01*
X68850000Y-137969670D01*
X68850000Y-136900884D01*
X68849999Y-136900884D01*
X68842418Y-136902085D01*
X68842410Y-136902087D01*
X68677742Y-136955591D01*
X68523475Y-137034195D01*
X68383397Y-137135967D01*
X68260967Y-137258397D01*
X68159195Y-137398475D01*
X68080591Y-137552742D01*
X68027085Y-137717415D01*
X68000000Y-137888428D01*
X68000000Y-138000000D01*
X68819670Y-138000000D01*
X68799925Y-138019745D01*
X68750556Y-138105255D01*
X68725000Y-138200630D01*
X68725000Y-138299370D01*
X68750556Y-138394745D01*
X68799925Y-138480255D01*
X68819670Y-138500000D01*
X68000000Y-138500000D01*
X68000000Y-138611571D01*
X62000000Y-138611571D01*
X62000000Y-132925003D01*
X194144435Y-132925003D01*
X194164630Y-133104249D01*
X194164631Y-133104254D01*
X194224211Y-133274523D01*
X194320184Y-133427262D01*
X194447738Y-133554816D01*
X194600478Y-133650789D01*
X194675771Y-133677135D01*
X194770745Y-133710368D01*
X194770750Y-133710369D01*
X194949996Y-133730565D01*
X194950000Y-133730565D01*
X194950004Y-133730565D01*
X195129249Y-133710369D01*
X195129252Y-133710368D01*
X195129255Y-133710368D01*
X195299522Y-133650789D01*
X195452262Y-133554816D01*
X195579816Y-133427262D01*
X195675789Y-133274522D01*
X195735368Y-133104255D01*
X195745161Y-133017329D01*
X195772226Y-132952918D01*
X195780690Y-132943543D01*
X197424230Y-131300003D01*
X215594435Y-131300003D01*
X215614630Y-131479249D01*
X215614631Y-131479254D01*
X215674211Y-131649523D01*
X215770184Y-131802262D01*
X215897738Y-131929816D01*
X216050478Y-132025789D01*
X216220745Y-132085368D01*
X216307669Y-132095161D01*
X216372080Y-132122226D01*
X216381465Y-132130700D01*
X218069298Y-133818533D01*
X218102783Y-133879856D01*
X218104837Y-133892330D01*
X218114630Y-133979249D01*
X218174210Y-134149521D01*
X218270184Y-134302262D01*
X218397738Y-134429816D01*
X218550478Y-134525789D01*
X218720745Y-134585368D01*
X218720750Y-134585369D01*
X218899996Y-134605565D01*
X218900000Y-134605565D01*
X218900004Y-134605565D01*
X219079249Y-134585369D01*
X219079252Y-134585368D01*
X219079255Y-134585368D01*
X219249522Y-134525789D01*
X219402262Y-134429816D01*
X219529816Y-134302262D01*
X219625789Y-134149522D01*
X219685368Y-133979255D01*
X219695162Y-133892330D01*
X219705565Y-133800003D01*
X219705565Y-133799996D01*
X219685369Y-133620750D01*
X219685368Y-133620745D01*
X219625788Y-133450476D01*
X219573622Y-133367455D01*
X219529816Y-133297738D01*
X219402262Y-133170184D01*
X219297337Y-133104255D01*
X219249521Y-133074210D01*
X219079249Y-133014630D01*
X218992330Y-133004837D01*
X218927916Y-132977770D01*
X218918533Y-132969298D01*
X217230700Y-131281465D01*
X217197215Y-131220142D01*
X217195163Y-131207686D01*
X217185368Y-131120745D01*
X217125789Y-130950478D01*
X217029816Y-130797738D01*
X216902262Y-130670184D01*
X216749523Y-130574211D01*
X216579254Y-130514631D01*
X216579249Y-130514630D01*
X216400004Y-130494435D01*
X216399996Y-130494435D01*
X216220750Y-130514630D01*
X216220745Y-130514631D01*
X216050476Y-130574211D01*
X215897737Y-130670184D01*
X215770184Y-130797737D01*
X215674211Y-130950476D01*
X215614631Y-131120745D01*
X215614630Y-131120750D01*
X215594435Y-131299996D01*
X215594435Y-131300003D01*
X197424230Y-131300003D01*
X203531036Y-125193198D01*
X203592357Y-125159715D01*
X203604810Y-125157663D01*
X203691755Y-125147868D01*
X203862022Y-125088289D01*
X204014762Y-124992316D01*
X204142316Y-124864762D01*
X204238289Y-124712022D01*
X204297868Y-124541755D01*
X204307661Y-124454829D01*
X204334726Y-124390418D01*
X204343190Y-124381043D01*
X207749030Y-120975204D01*
X207795754Y-120945846D01*
X207924522Y-120900789D01*
X208077262Y-120804816D01*
X208204816Y-120677262D01*
X208300789Y-120524522D01*
X208360368Y-120354255D01*
X208371261Y-120257576D01*
X208380565Y-120175003D01*
X208380565Y-120174996D01*
X208360369Y-119995750D01*
X208360368Y-119995745D01*
X208300788Y-119825476D01*
X208261582Y-119763080D01*
X208204816Y-119672738D01*
X208077262Y-119545184D01*
X208052804Y-119529816D01*
X207924523Y-119449211D01*
X207754254Y-119389631D01*
X207754249Y-119389630D01*
X207575004Y-119369435D01*
X207574996Y-119369435D01*
X207395750Y-119389630D01*
X207395745Y-119389631D01*
X207225476Y-119449211D01*
X207072737Y-119545184D01*
X206945184Y-119672737D01*
X206849211Y-119825476D01*
X206789631Y-119995745D01*
X206789630Y-119995750D01*
X206769435Y-120174995D01*
X206769435Y-120174996D01*
X206769435Y-120175000D01*
X206770985Y-120188754D01*
X206758929Y-120257576D01*
X206735445Y-120290317D01*
X203493965Y-123531798D01*
X203432642Y-123565283D01*
X203420168Y-123567337D01*
X203333250Y-123577130D01*
X203162978Y-123636710D01*
X203010237Y-123732684D01*
X202882684Y-123860237D01*
X202786710Y-124012978D01*
X202727130Y-124183250D01*
X202717337Y-124270167D01*
X202690270Y-124334581D01*
X202681798Y-124343964D01*
X194931465Y-132094298D01*
X194870142Y-132127783D01*
X194857668Y-132129837D01*
X194770750Y-132139630D01*
X194600478Y-132199210D01*
X194447737Y-132295184D01*
X194320184Y-132422737D01*
X194224211Y-132575476D01*
X194164631Y-132745745D01*
X194164630Y-132745750D01*
X194144435Y-132924996D01*
X194144435Y-132925003D01*
X62000000Y-132925003D01*
X62000000Y-130000001D01*
X152994390Y-130000001D01*
X153014804Y-130285433D01*
X153075628Y-130565037D01*
X153075630Y-130565043D01*
X153075631Y-130565046D01*
X153162421Y-130797738D01*
X153175635Y-130833166D01*
X153312770Y-131084309D01*
X153312775Y-131084317D01*
X153484254Y-131313387D01*
X153484270Y-131313405D01*
X153686594Y-131515729D01*
X153686612Y-131515745D01*
X153915682Y-131687224D01*
X153915690Y-131687229D01*
X154166833Y-131824364D01*
X154166832Y-131824364D01*
X154166836Y-131824365D01*
X154166839Y-131824367D01*
X154434954Y-131924369D01*
X154434960Y-131924370D01*
X154434962Y-131924371D01*
X154714566Y-131985195D01*
X154714568Y-131985195D01*
X154714572Y-131985196D01*
X154968220Y-132003337D01*
X154999999Y-132005610D01*
X155000000Y-132005610D01*
X155000001Y-132005610D01*
X155028595Y-132003564D01*
X155285428Y-131985196D01*
X155540007Y-131929816D01*
X155565037Y-131924371D01*
X155565037Y-131924370D01*
X155565046Y-131924369D01*
X155833161Y-131824367D01*
X156084315Y-131687226D01*
X156313395Y-131515739D01*
X156515739Y-131313395D01*
X156687226Y-131084315D01*
X156824367Y-130833161D01*
X156924369Y-130565046D01*
X156985196Y-130285428D01*
X157005610Y-130000000D01*
X156985196Y-129714572D01*
X156924369Y-129434954D01*
X156824367Y-129166839D01*
X156687226Y-128915685D01*
X156687224Y-128915682D01*
X156515745Y-128686612D01*
X156515729Y-128686594D01*
X156330796Y-128501661D01*
X188836892Y-128501661D01*
X188850692Y-128510333D01*
X188850691Y-128510333D01*
X189020861Y-128569878D01*
X189199997Y-128590062D01*
X189200003Y-128590062D01*
X189379138Y-128569878D01*
X189379141Y-128569877D01*
X189549305Y-128510334D01*
X189549306Y-128510334D01*
X189563106Y-128501661D01*
X190236892Y-128501661D01*
X190250692Y-128510333D01*
X190250691Y-128510333D01*
X190420861Y-128569878D01*
X190599997Y-128590062D01*
X190600003Y-128590062D01*
X190779138Y-128569878D01*
X190779141Y-128569877D01*
X190949305Y-128510334D01*
X190949306Y-128510334D01*
X190963106Y-128501661D01*
X190963106Y-128501660D01*
X190600001Y-128138553D01*
X190600000Y-128138553D01*
X190236892Y-128501660D01*
X190236892Y-128501661D01*
X189563106Y-128501661D01*
X189563106Y-128501660D01*
X189200001Y-128138553D01*
X189200000Y-128138553D01*
X188836892Y-128501660D01*
X188836892Y-128501661D01*
X156330796Y-128501661D01*
X156313405Y-128484270D01*
X156313387Y-128484254D01*
X156084317Y-128312775D01*
X156084309Y-128312770D01*
X155833166Y-128175635D01*
X155833167Y-128175635D01*
X155714691Y-128131446D01*
X155565046Y-128075631D01*
X155565043Y-128075630D01*
X155565037Y-128075628D01*
X155285433Y-128014804D01*
X155000001Y-127994390D01*
X154999999Y-127994390D01*
X154714566Y-128014804D01*
X154434962Y-128075628D01*
X154166833Y-128175635D01*
X153915690Y-128312770D01*
X153915682Y-128312775D01*
X153686612Y-128484254D01*
X153686594Y-128484270D01*
X153484270Y-128686594D01*
X153484254Y-128686612D01*
X153312775Y-128915682D01*
X153312770Y-128915690D01*
X153175635Y-129166833D01*
X153075628Y-129434962D01*
X153014804Y-129714566D01*
X152994390Y-129999998D01*
X152994390Y-130000001D01*
X62000000Y-130000001D01*
X62000000Y-124000001D01*
X104994891Y-124000001D01*
X105015300Y-124285362D01*
X105076109Y-124564895D01*
X105176091Y-124832958D01*
X105313191Y-125084038D01*
X105313196Y-125084046D01*
X105419882Y-125226561D01*
X105419883Y-125226562D01*
X106137425Y-124509019D01*
X106223249Y-124637463D01*
X106362537Y-124776751D01*
X106490978Y-124862573D01*
X105773436Y-125580115D01*
X105915960Y-125686807D01*
X105915961Y-125686808D01*
X106167042Y-125823908D01*
X106167041Y-125823908D01*
X106435104Y-125923890D01*
X106714637Y-125984699D01*
X106999999Y-126005109D01*
X107000001Y-126005109D01*
X107285362Y-125984699D01*
X107564895Y-125923890D01*
X107832958Y-125823908D01*
X108084047Y-125686803D01*
X108226561Y-125580116D01*
X108226562Y-125580115D01*
X107509021Y-124862573D01*
X107637463Y-124776751D01*
X107776751Y-124637463D01*
X107862573Y-124509020D01*
X108580115Y-125226562D01*
X108580116Y-125226561D01*
X108686803Y-125084047D01*
X108823908Y-124832958D01*
X108923890Y-124564895D01*
X108984699Y-124285362D01*
X109005109Y-124000001D01*
X109005109Y-123999998D01*
X108984699Y-123714637D01*
X108923890Y-123435104D01*
X108823908Y-123167041D01*
X108686808Y-122915961D01*
X108686807Y-122915960D01*
X108580115Y-122773436D01*
X107862573Y-123490978D01*
X107776751Y-123362537D01*
X107637463Y-123223249D01*
X107509020Y-123137425D01*
X108226562Y-122419883D01*
X108226561Y-122419882D01*
X108084046Y-122313196D01*
X108084038Y-122313191D01*
X107832957Y-122176091D01*
X107832958Y-122176091D01*
X107564895Y-122076109D01*
X107285362Y-122015300D01*
X107000001Y-121994891D01*
X106999999Y-121994891D01*
X106714637Y-122015300D01*
X106435104Y-122076109D01*
X106167041Y-122176091D01*
X105915961Y-122313191D01*
X105915953Y-122313196D01*
X105773437Y-122419882D01*
X105773436Y-122419883D01*
X106490979Y-123137426D01*
X106362537Y-123223249D01*
X106223249Y-123362537D01*
X106137426Y-123490979D01*
X105419883Y-122773436D01*
X105419882Y-122773437D01*
X105313196Y-122915953D01*
X105313191Y-122915961D01*
X105176091Y-123167041D01*
X105076109Y-123435104D01*
X105015300Y-123714637D01*
X104994891Y-123999998D01*
X104994891Y-124000001D01*
X62000000Y-124000001D01*
X62000000Y-118850000D01*
X163244785Y-118850000D01*
X163263602Y-119053082D01*
X163319417Y-119249247D01*
X163319422Y-119249260D01*
X163410327Y-119431821D01*
X163533237Y-119594581D01*
X163683958Y-119731980D01*
X163683960Y-119731982D01*
X163770182Y-119785368D01*
X163857363Y-119839348D01*
X164047544Y-119913024D01*
X164248024Y-119950500D01*
X164248026Y-119950500D01*
X164451974Y-119950500D01*
X164451976Y-119950500D01*
X164652456Y-119913024D01*
X164842637Y-119839348D01*
X165016041Y-119731981D01*
X165166764Y-119594579D01*
X165166766Y-119594577D01*
X165170063Y-119590961D01*
X165229774Y-119554680D01*
X165261699Y-119550500D01*
X167288301Y-119550500D01*
X167355340Y-119570185D01*
X167379937Y-119590961D01*
X167383229Y-119594572D01*
X167383234Y-119594577D01*
X167383236Y-119594579D01*
X167459039Y-119663682D01*
X167495319Y-119723391D01*
X167499500Y-119755318D01*
X167499500Y-125940261D01*
X167479815Y-126007300D01*
X167459040Y-126031897D01*
X167433235Y-126055421D01*
X167310327Y-126218178D01*
X167219422Y-126400739D01*
X167219417Y-126400752D01*
X167163602Y-126596917D01*
X167144785Y-126799999D01*
X167163602Y-127003082D01*
X167219417Y-127199247D01*
X167219422Y-127199260D01*
X167310327Y-127381821D01*
X167433237Y-127544581D01*
X167583958Y-127681980D01*
X167583960Y-127681982D01*
X167613112Y-127700032D01*
X167757363Y-127789348D01*
X167947544Y-127863024D01*
X168148024Y-127900500D01*
X168148026Y-127900500D01*
X168351974Y-127900500D01*
X168351976Y-127900500D01*
X168552456Y-127863024D01*
X168710853Y-127801661D01*
X188136892Y-127801661D01*
X188150692Y-127810333D01*
X188150691Y-127810333D01*
X188320862Y-127869878D01*
X188321644Y-127870057D01*
X188322097Y-127870310D01*
X188327431Y-127872177D01*
X188327104Y-127873111D01*
X188382623Y-127904166D01*
X188411952Y-127957874D01*
X188412822Y-127957570D01*
X188414670Y-127962852D01*
X188414940Y-127963346D01*
X188415121Y-127964142D01*
X188474663Y-128134300D01*
X188474663Y-128134301D01*
X188483338Y-128148107D01*
X188816609Y-127814837D01*
X189050000Y-127814837D01*
X189072836Y-127869968D01*
X189115032Y-127912164D01*
X189170163Y-127935000D01*
X189229837Y-127935000D01*
X189284968Y-127912164D01*
X189327164Y-127869968D01*
X189350000Y-127814837D01*
X189350000Y-127785000D01*
X189553553Y-127785000D01*
X189900000Y-128131446D01*
X189900001Y-128131446D01*
X190216610Y-127814837D01*
X190450000Y-127814837D01*
X190472836Y-127869968D01*
X190515032Y-127912164D01*
X190570163Y-127935000D01*
X190629837Y-127935000D01*
X190684968Y-127912164D01*
X190727164Y-127869968D01*
X190750000Y-127814837D01*
X190750000Y-127785000D01*
X190953553Y-127785000D01*
X191316660Y-128148106D01*
X191316661Y-128148106D01*
X191325334Y-128134306D01*
X191325334Y-128134305D01*
X191384876Y-127964144D01*
X191385056Y-127963358D01*
X191385311Y-127962901D01*
X191387177Y-127957570D01*
X191388110Y-127957896D01*
X191419164Y-127902379D01*
X191472875Y-127873049D01*
X191472570Y-127872177D01*
X191477870Y-127870322D01*
X191478358Y-127870056D01*
X191479144Y-127869876D01*
X191649305Y-127810334D01*
X191649306Y-127810334D01*
X191663106Y-127801661D01*
X191663106Y-127801660D01*
X191300000Y-127438553D01*
X191234240Y-127504314D01*
X191234239Y-127504314D01*
X190953553Y-127784999D01*
X190953553Y-127785000D01*
X190750000Y-127785000D01*
X190750000Y-127755163D01*
X190727164Y-127700032D01*
X190684968Y-127657836D01*
X190629837Y-127635000D01*
X190570163Y-127635000D01*
X190515032Y-127657836D01*
X190472836Y-127700032D01*
X190450000Y-127755163D01*
X190450000Y-127814837D01*
X190216610Y-127814837D01*
X190233946Y-127797501D01*
X190233946Y-127797499D01*
X189887501Y-127451053D01*
X189887500Y-127451053D01*
X189553553Y-127785000D01*
X189350000Y-127785000D01*
X189350000Y-127755163D01*
X189327164Y-127700032D01*
X189284968Y-127657836D01*
X189229837Y-127635000D01*
X189170163Y-127635000D01*
X189115032Y-127657836D01*
X189072836Y-127700032D01*
X189050000Y-127755163D01*
X189050000Y-127814837D01*
X188816609Y-127814837D01*
X188846446Y-127785000D01*
X188499999Y-127438553D01*
X188499998Y-127438553D01*
X188136892Y-127801660D01*
X188136892Y-127801661D01*
X168710853Y-127801661D01*
X168742637Y-127789348D01*
X168916041Y-127681981D01*
X169066764Y-127544579D01*
X169189673Y-127381821D01*
X169280582Y-127199250D01*
X169313089Y-127085002D01*
X187694938Y-127085002D01*
X187715121Y-127264138D01*
X187774665Y-127434304D01*
X187783338Y-127448107D01*
X188116609Y-127114837D01*
X188350000Y-127114837D01*
X188372836Y-127169968D01*
X188415032Y-127212164D01*
X188470163Y-127235000D01*
X188529837Y-127235000D01*
X188584968Y-127212164D01*
X188627164Y-127169968D01*
X188650000Y-127114837D01*
X188650000Y-127084999D01*
X188853553Y-127084999D01*
X189187500Y-127418946D01*
X189491609Y-127114837D01*
X189725000Y-127114837D01*
X189747836Y-127169968D01*
X189790032Y-127212164D01*
X189845163Y-127235000D01*
X189904837Y-127235000D01*
X189959968Y-127212164D01*
X190002164Y-127169968D01*
X190025000Y-127114837D01*
X190025000Y-127085000D01*
X190253553Y-127085000D01*
X190599998Y-127431446D01*
X190599999Y-127431446D01*
X190873578Y-127157868D01*
X190916609Y-127114837D01*
X191150000Y-127114837D01*
X191172836Y-127169968D01*
X191215032Y-127212164D01*
X191270163Y-127235000D01*
X191329837Y-127235000D01*
X191384968Y-127212164D01*
X191427164Y-127169968D01*
X191450000Y-127114837D01*
X191450000Y-127085000D01*
X191653553Y-127085000D01*
X192016660Y-127448106D01*
X192016661Y-127448106D01*
X192025334Y-127434306D01*
X192025334Y-127434305D01*
X192084877Y-127264141D01*
X192084878Y-127264138D01*
X192105062Y-127085002D01*
X192105062Y-127084997D01*
X192084878Y-126905861D01*
X192025333Y-126735692D01*
X192016661Y-126721892D01*
X192016660Y-126721892D01*
X191653553Y-127085000D01*
X191450000Y-127085000D01*
X191450000Y-127055163D01*
X191427164Y-127000032D01*
X191384968Y-126957836D01*
X191329837Y-126935000D01*
X191270163Y-126935000D01*
X191215032Y-126957836D01*
X191172836Y-127000032D01*
X191150000Y-127055163D01*
X191150000Y-127114837D01*
X190916609Y-127114837D01*
X190946446Y-127085000D01*
X190599999Y-126738553D01*
X190599998Y-126738553D01*
X190253553Y-127084999D01*
X190253553Y-127085000D01*
X190025000Y-127085000D01*
X190025000Y-127055163D01*
X190002164Y-127000032D01*
X189959968Y-126957836D01*
X189904837Y-126935000D01*
X189845163Y-126935000D01*
X189790032Y-126957836D01*
X189747836Y-127000032D01*
X189725000Y-127055163D01*
X189725000Y-127114837D01*
X189491609Y-127114837D01*
X189521446Y-127085000D01*
X189521446Y-127084999D01*
X189187500Y-126751053D01*
X189138555Y-126799999D01*
X189138554Y-126800000D01*
X188853553Y-127084999D01*
X188650000Y-127084999D01*
X188650000Y-127055163D01*
X188627164Y-127000032D01*
X188584968Y-126957836D01*
X188529837Y-126935000D01*
X188470163Y-126935000D01*
X188415032Y-126957836D01*
X188372836Y-127000032D01*
X188350000Y-127055163D01*
X188350000Y-127114837D01*
X188116609Y-127114837D01*
X188146446Y-127085000D01*
X188146446Y-127084999D01*
X187783338Y-126721891D01*
X187783337Y-126721891D01*
X187774667Y-126735691D01*
X187774662Y-126735701D01*
X187715122Y-126905858D01*
X187715121Y-126905861D01*
X187694938Y-127084997D01*
X187694938Y-127085002D01*
X169313089Y-127085002D01*
X169336397Y-127003083D01*
X169355215Y-126800000D01*
X169350679Y-126751053D01*
X169336397Y-126596917D01*
X169300276Y-126469968D01*
X169280582Y-126400750D01*
X169272739Y-126385000D01*
X188153553Y-126385000D01*
X188499998Y-126731446D01*
X188499999Y-126731446D01*
X188775869Y-126455577D01*
X188816609Y-126414837D01*
X189050000Y-126414837D01*
X189072836Y-126469968D01*
X189115032Y-126512164D01*
X189170163Y-126535000D01*
X189229837Y-126535000D01*
X189284968Y-126512164D01*
X189327164Y-126469968D01*
X189350000Y-126414837D01*
X189350000Y-126385000D01*
X189553553Y-126385000D01*
X189887500Y-126718946D01*
X189887501Y-126718946D01*
X190191610Y-126414837D01*
X190450000Y-126414837D01*
X190472836Y-126469968D01*
X190515032Y-126512164D01*
X190570163Y-126535000D01*
X190629837Y-126535000D01*
X190684968Y-126512164D01*
X190727164Y-126469968D01*
X190750000Y-126414837D01*
X190750000Y-126384999D01*
X190953553Y-126384999D01*
X191300000Y-126731446D01*
X191646446Y-126385000D01*
X191646446Y-126384999D01*
X191300000Y-126038553D01*
X191234240Y-126104314D01*
X191234239Y-126104314D01*
X190953553Y-126384999D01*
X190750000Y-126384999D01*
X190750000Y-126355163D01*
X190727164Y-126300032D01*
X190684968Y-126257836D01*
X190629837Y-126235000D01*
X190570163Y-126235000D01*
X190515032Y-126257836D01*
X190472836Y-126300032D01*
X190450000Y-126355163D01*
X190450000Y-126414837D01*
X190191610Y-126414837D01*
X190221446Y-126385001D01*
X190221446Y-126384999D01*
X189887501Y-126051053D01*
X189887500Y-126051053D01*
X189553553Y-126385000D01*
X189350000Y-126385000D01*
X189350000Y-126355163D01*
X189327164Y-126300032D01*
X189284968Y-126257836D01*
X189229837Y-126235000D01*
X189170163Y-126235000D01*
X189115032Y-126257836D01*
X189072836Y-126300032D01*
X189050000Y-126355163D01*
X189050000Y-126414837D01*
X188816609Y-126414837D01*
X188846446Y-126385000D01*
X188499999Y-126038553D01*
X188499998Y-126038553D01*
X188153553Y-126384999D01*
X188153553Y-126385000D01*
X169272739Y-126385000D01*
X169230431Y-126300032D01*
X169189673Y-126218179D01*
X169066764Y-126055421D01*
X169066762Y-126055418D01*
X168940962Y-125940737D01*
X168904680Y-125881026D01*
X168900500Y-125849100D01*
X168900500Y-125685002D01*
X187694938Y-125685002D01*
X187715121Y-125864138D01*
X187774665Y-126034304D01*
X187783338Y-126048107D01*
X188116609Y-125714837D01*
X188350000Y-125714837D01*
X188372836Y-125769968D01*
X188415032Y-125812164D01*
X188470163Y-125835000D01*
X188529837Y-125835000D01*
X188584968Y-125812164D01*
X188627164Y-125769968D01*
X188650000Y-125714837D01*
X188650000Y-125684999D01*
X188853553Y-125684999D01*
X189187500Y-126018946D01*
X189491609Y-125714837D01*
X189725000Y-125714837D01*
X189747836Y-125769968D01*
X189790032Y-125812164D01*
X189845163Y-125835000D01*
X189904837Y-125835000D01*
X189959968Y-125812164D01*
X190002164Y-125769968D01*
X190025000Y-125714837D01*
X190025000Y-125685000D01*
X190253553Y-125685000D01*
X190599998Y-126031446D01*
X190599999Y-126031446D01*
X190873578Y-125757868D01*
X190916609Y-125714837D01*
X191150000Y-125714837D01*
X191172836Y-125769968D01*
X191215032Y-125812164D01*
X191270163Y-125835000D01*
X191329837Y-125835000D01*
X191384968Y-125812164D01*
X191427164Y-125769968D01*
X191450000Y-125714837D01*
X191450000Y-125685000D01*
X191653553Y-125685000D01*
X192016660Y-126048106D01*
X192016661Y-126048106D01*
X192025334Y-126034306D01*
X192025334Y-126034305D01*
X192084877Y-125864141D01*
X192084878Y-125864138D01*
X192105062Y-125685002D01*
X192105062Y-125684997D01*
X192084878Y-125505861D01*
X192025333Y-125335692D01*
X192016661Y-125321892D01*
X192016660Y-125321892D01*
X191653553Y-125685000D01*
X191450000Y-125685000D01*
X191450000Y-125655163D01*
X191427164Y-125600032D01*
X191384968Y-125557836D01*
X191329837Y-125535000D01*
X191270163Y-125535000D01*
X191215032Y-125557836D01*
X191172836Y-125600032D01*
X191150000Y-125655163D01*
X191150000Y-125714837D01*
X190916609Y-125714837D01*
X190946446Y-125685000D01*
X190599999Y-125338553D01*
X190599998Y-125338553D01*
X190253553Y-125684999D01*
X190253553Y-125685000D01*
X190025000Y-125685000D01*
X190025000Y-125655163D01*
X190002164Y-125600032D01*
X189959968Y-125557836D01*
X189904837Y-125535000D01*
X189845163Y-125535000D01*
X189790032Y-125557836D01*
X189747836Y-125600032D01*
X189725000Y-125655163D01*
X189725000Y-125714837D01*
X189491609Y-125714837D01*
X189521446Y-125685000D01*
X189521446Y-125684999D01*
X189187500Y-125351053D01*
X189134241Y-125404313D01*
X189134240Y-125404314D01*
X188853553Y-125684999D01*
X188650000Y-125684999D01*
X188650000Y-125655163D01*
X188627164Y-125600032D01*
X188584968Y-125557836D01*
X188529837Y-125535000D01*
X188470163Y-125535000D01*
X188415032Y-125557836D01*
X188372836Y-125600032D01*
X188350000Y-125655163D01*
X188350000Y-125714837D01*
X188116609Y-125714837D01*
X188146446Y-125685000D01*
X188146446Y-125684999D01*
X187783338Y-125321891D01*
X187783337Y-125321891D01*
X187774667Y-125335691D01*
X187774662Y-125335701D01*
X187715122Y-125505858D01*
X187715121Y-125505861D01*
X187694938Y-125684997D01*
X187694938Y-125685002D01*
X168900500Y-125685002D01*
X168900500Y-124968338D01*
X188136891Y-124968338D01*
X188499998Y-125331446D01*
X188499999Y-125331446D01*
X188775868Y-125055577D01*
X188816607Y-125014837D01*
X189050000Y-125014837D01*
X189072836Y-125069968D01*
X189115032Y-125112164D01*
X189170163Y-125135000D01*
X189229837Y-125135000D01*
X189284968Y-125112164D01*
X189327164Y-125069968D01*
X189350000Y-125014837D01*
X189350000Y-124985000D01*
X189553553Y-124985000D01*
X189887500Y-125318946D01*
X189887501Y-125318946D01*
X190191608Y-125014837D01*
X190450000Y-125014837D01*
X190472836Y-125069968D01*
X190515032Y-125112164D01*
X190570163Y-125135000D01*
X190629837Y-125135000D01*
X190684968Y-125112164D01*
X190727164Y-125069968D01*
X190750000Y-125014837D01*
X190750000Y-124984999D01*
X190953553Y-124984999D01*
X191300000Y-125331446D01*
X191300001Y-125331446D01*
X191663107Y-124968338D01*
X191649301Y-124959663D01*
X191479142Y-124900121D01*
X191478346Y-124899940D01*
X191477883Y-124899681D01*
X191472570Y-124897822D01*
X191472895Y-124896890D01*
X191417370Y-124865827D01*
X191388049Y-124812125D01*
X191387177Y-124812431D01*
X191385321Y-124807128D01*
X191385057Y-124806644D01*
X191384878Y-124805862D01*
X191325333Y-124635692D01*
X191316661Y-124621892D01*
X191316660Y-124621892D01*
X190953553Y-124984998D01*
X190953553Y-124984999D01*
X190750000Y-124984999D01*
X190750000Y-124955163D01*
X190727164Y-124900032D01*
X190684968Y-124857836D01*
X190629837Y-124835000D01*
X190570163Y-124835000D01*
X190515032Y-124857836D01*
X190472836Y-124900032D01*
X190450000Y-124955163D01*
X190450000Y-125014837D01*
X190191608Y-125014837D01*
X190233946Y-124972499D01*
X190233946Y-124972498D01*
X189900000Y-124638553D01*
X189553553Y-124985000D01*
X189350000Y-124985000D01*
X189350000Y-124955163D01*
X189327164Y-124900032D01*
X189284968Y-124857836D01*
X189229837Y-124835000D01*
X189170163Y-124835000D01*
X189115032Y-124857836D01*
X189072836Y-124900032D01*
X189050000Y-124955163D01*
X189050000Y-125014837D01*
X188816607Y-125014837D01*
X188846446Y-124984998D01*
X188483338Y-124621891D01*
X188483337Y-124621891D01*
X188474667Y-124635691D01*
X188474662Y-124635701D01*
X188415119Y-124805866D01*
X188414939Y-124806656D01*
X188414682Y-124807113D01*
X188412823Y-124812429D01*
X188411891Y-124812103D01*
X188380824Y-124867631D01*
X188327124Y-124896952D01*
X188327429Y-124897823D01*
X188322145Y-124899671D01*
X188321656Y-124899939D01*
X188320866Y-124900119D01*
X188150701Y-124959662D01*
X188150691Y-124959667D01*
X188136891Y-124968337D01*
X188136891Y-124968338D01*
X168900500Y-124968338D01*
X168900500Y-124268338D01*
X188836891Y-124268338D01*
X189200000Y-124631446D01*
X189200001Y-124631446D01*
X189563107Y-124268338D01*
X190236891Y-124268338D01*
X190600000Y-124631446D01*
X190600001Y-124631446D01*
X190963107Y-124268338D01*
X190949304Y-124259665D01*
X190779138Y-124200121D01*
X190600003Y-124179938D01*
X190599997Y-124179938D01*
X190420861Y-124200121D01*
X190420858Y-124200122D01*
X190250701Y-124259662D01*
X190250691Y-124259667D01*
X190236891Y-124268337D01*
X190236891Y-124268338D01*
X189563107Y-124268338D01*
X189549304Y-124259665D01*
X189379138Y-124200121D01*
X189200003Y-124179938D01*
X189199997Y-124179938D01*
X189020861Y-124200121D01*
X189020858Y-124200122D01*
X188850701Y-124259662D01*
X188850691Y-124259667D01*
X188836891Y-124268337D01*
X188836891Y-124268338D01*
X168900500Y-124268338D01*
X168900500Y-119755318D01*
X168920185Y-119688279D01*
X168940957Y-119663685D01*
X169016764Y-119594579D01*
X169139673Y-119431821D01*
X169230582Y-119249250D01*
X169286397Y-119053083D01*
X169305215Y-118850000D01*
X169303127Y-118827471D01*
X169286397Y-118646917D01*
X169238692Y-118479254D01*
X169230582Y-118450750D01*
X169226389Y-118442330D01*
X169155269Y-118299500D01*
X169139673Y-118268179D01*
X169046894Y-118145320D01*
X169016762Y-118105418D01*
X168866041Y-117968019D01*
X168866039Y-117968017D01*
X168692642Y-117860655D01*
X168692635Y-117860651D01*
X168639655Y-117840127D01*
X168584253Y-117797554D01*
X168560663Y-117731787D01*
X168576374Y-117663707D01*
X168626398Y-117614928D01*
X168684449Y-117600500D01*
X169599903Y-117600500D01*
X169666942Y-117620185D01*
X169687583Y-117636818D01*
X171431284Y-119380520D01*
X171431286Y-119380521D01*
X171431290Y-119380524D01*
X171550261Y-119449211D01*
X171568216Y-119459577D01*
X171720943Y-119500501D01*
X171720945Y-119500501D01*
X171886654Y-119500501D01*
X171886670Y-119500500D01*
X179617588Y-119500500D01*
X179684627Y-119520185D01*
X179694903Y-119527555D01*
X179697736Y-119529814D01*
X179697738Y-119529816D01*
X179850478Y-119625789D01*
X179984648Y-119672737D01*
X180020745Y-119685368D01*
X180020750Y-119685369D01*
X180199996Y-119705565D01*
X180200000Y-119705565D01*
X180200004Y-119705565D01*
X180379249Y-119685369D01*
X180379252Y-119685368D01*
X180379255Y-119685368D01*
X180549522Y-119625789D01*
X180702262Y-119529816D01*
X180829816Y-119402262D01*
X180925789Y-119249522D01*
X180985368Y-119079255D01*
X180988317Y-119053082D01*
X181005565Y-118900003D01*
X181005565Y-118899996D01*
X180985369Y-118720750D01*
X180985368Y-118720745D01*
X180932882Y-118570750D01*
X180925789Y-118550478D01*
X180829816Y-118397738D01*
X180702262Y-118270184D01*
X180691117Y-118263181D01*
X180549523Y-118174211D01*
X180379254Y-118114631D01*
X180379249Y-118114630D01*
X180200004Y-118094435D01*
X180199996Y-118094435D01*
X180020750Y-118114630D01*
X180020745Y-118114631D01*
X179850476Y-118174211D01*
X179697736Y-118270185D01*
X179694903Y-118272445D01*
X179692724Y-118273334D01*
X179691842Y-118273889D01*
X179691744Y-118273734D01*
X179630217Y-118298855D01*
X179617588Y-118299500D01*
X172100098Y-118299500D01*
X172033059Y-118279815D01*
X172012417Y-118263181D01*
X170387590Y-116638355D01*
X170387588Y-116638352D01*
X170268717Y-116519481D01*
X170268709Y-116519475D01*
X170166936Y-116460717D01*
X170166934Y-116460716D01*
X170131790Y-116440425D01*
X170131789Y-116440424D01*
X170119263Y-116437067D01*
X169979057Y-116399499D01*
X169820943Y-116399499D01*
X169813347Y-116399499D01*
X169813331Y-116399500D01*
X165682412Y-116399500D01*
X165615373Y-116379815D01*
X165605097Y-116372445D01*
X165602263Y-116370185D01*
X165602262Y-116370184D01*
X165545496Y-116334515D01*
X165449523Y-116274211D01*
X165279254Y-116214631D01*
X165279249Y-116214630D01*
X165100004Y-116194435D01*
X165099996Y-116194435D01*
X164920750Y-116214630D01*
X164920745Y-116214631D01*
X164750476Y-116274211D01*
X164597737Y-116370184D01*
X164470184Y-116497737D01*
X164374211Y-116650476D01*
X164314631Y-116820745D01*
X164314630Y-116820750D01*
X164294435Y-116999996D01*
X164294435Y-117000003D01*
X164314630Y-117179249D01*
X164314631Y-117179254D01*
X164374211Y-117349523D01*
X164470184Y-117502262D01*
X164505741Y-117537819D01*
X164539226Y-117599142D01*
X164534242Y-117668834D01*
X164492370Y-117724767D01*
X164426906Y-117749184D01*
X164418060Y-117749500D01*
X164248024Y-117749500D01*
X164047544Y-117786976D01*
X164047541Y-117786976D01*
X164047541Y-117786977D01*
X163857364Y-117860651D01*
X163857357Y-117860655D01*
X163683960Y-117968017D01*
X163683958Y-117968019D01*
X163533237Y-118105418D01*
X163410327Y-118268178D01*
X163319422Y-118450739D01*
X163319417Y-118450752D01*
X163263602Y-118646917D01*
X163244785Y-118849999D01*
X163244785Y-118850000D01*
X62000000Y-118850000D01*
X62000000Y-109150003D01*
X158944435Y-109150003D01*
X158964630Y-109329249D01*
X158964631Y-109329254D01*
X159024211Y-109499523D01*
X159120185Y-109652263D01*
X159122445Y-109655097D01*
X159123334Y-109657275D01*
X159123889Y-109658158D01*
X159123734Y-109658255D01*
X159148855Y-109719783D01*
X159149500Y-109732412D01*
X159149500Y-109763330D01*
X159149499Y-109763348D01*
X159149499Y-109929054D01*
X159149498Y-109929054D01*
X159149499Y-109929057D01*
X159190423Y-110081785D01*
X159200651Y-110099500D01*
X159269477Y-110218712D01*
X159269481Y-110218717D01*
X159388349Y-110337585D01*
X159388355Y-110337590D01*
X159769298Y-110718533D01*
X159802783Y-110779856D01*
X159804837Y-110792330D01*
X159814630Y-110879249D01*
X159874210Y-111049521D01*
X159874211Y-111049522D01*
X159970184Y-111202262D01*
X160097738Y-111329816D01*
X160250478Y-111425789D01*
X160420745Y-111485368D01*
X160420750Y-111485369D01*
X160599996Y-111505565D01*
X160600000Y-111505565D01*
X160600004Y-111505565D01*
X160779249Y-111485369D01*
X160779252Y-111485368D01*
X160779255Y-111485368D01*
X160949522Y-111425789D01*
X161102262Y-111329816D01*
X161153741Y-111278336D01*
X161215062Y-111244852D01*
X161284754Y-111249836D01*
X161329102Y-111278337D01*
X161419298Y-111368533D01*
X161452783Y-111429856D01*
X161454837Y-111442330D01*
X161464630Y-111529249D01*
X161524210Y-111699521D01*
X161600384Y-111820750D01*
X161620184Y-111852262D01*
X161747738Y-111979816D01*
X161900478Y-112075789D01*
X162070739Y-112135366D01*
X162070745Y-112135368D01*
X162070750Y-112135369D01*
X162249996Y-112155565D01*
X162250000Y-112155565D01*
X162250004Y-112155565D01*
X162429249Y-112135369D01*
X162429251Y-112135368D01*
X162429255Y-112135368D01*
X162429258Y-112135366D01*
X162429262Y-112135366D01*
X162600387Y-112075487D01*
X162670166Y-112071925D01*
X162730793Y-112106653D01*
X162763021Y-112168647D01*
X162764561Y-112178635D01*
X162764629Y-112179246D01*
X162764631Y-112179254D01*
X162824211Y-112349523D01*
X162883849Y-112444435D01*
X162920184Y-112502262D01*
X163047738Y-112629816D01*
X163103149Y-112664633D01*
X163197966Y-112724211D01*
X163200478Y-112725789D01*
X163250839Y-112743411D01*
X163370745Y-112785368D01*
X163370750Y-112785369D01*
X163549996Y-112805565D01*
X163550000Y-112805565D01*
X163550004Y-112805565D01*
X163729249Y-112785369D01*
X163729252Y-112785368D01*
X163729255Y-112785368D01*
X163899522Y-112725789D01*
X164052262Y-112629816D01*
X164179816Y-112502262D01*
X164275789Y-112349522D01*
X164335368Y-112179255D01*
X164336305Y-112170939D01*
X164355565Y-112000003D01*
X164355565Y-111999996D01*
X164335369Y-111820750D01*
X164335368Y-111820745D01*
X164282171Y-111668717D01*
X164275789Y-111650478D01*
X164179816Y-111497738D01*
X164052262Y-111370184D01*
X164052261Y-111370183D01*
X164047185Y-111366135D01*
X164007046Y-111308946D01*
X164000500Y-111269190D01*
X164000500Y-110670942D01*
X163998290Y-110662695D01*
X163998289Y-110662692D01*
X163985610Y-110615373D01*
X163959577Y-110518215D01*
X163930639Y-110468095D01*
X163880520Y-110381284D01*
X163768716Y-110269480D01*
X163768715Y-110269479D01*
X163764385Y-110265149D01*
X163764374Y-110265139D01*
X162277399Y-108778164D01*
X162243914Y-108716841D01*
X162248898Y-108647149D01*
X162260086Y-108624513D01*
X162275789Y-108599522D01*
X162335368Y-108429255D01*
X162335369Y-108429249D01*
X162355565Y-108250003D01*
X162355565Y-108249996D01*
X162335369Y-108070750D01*
X162335368Y-108070745D01*
X162298237Y-107964630D01*
X162275789Y-107900478D01*
X162179816Y-107747738D01*
X162052262Y-107620184D01*
X161899523Y-107524211D01*
X161729254Y-107464631D01*
X161729249Y-107464630D01*
X161550004Y-107444435D01*
X161549996Y-107444435D01*
X161370750Y-107464630D01*
X161370745Y-107464631D01*
X161200476Y-107524211D01*
X161047737Y-107620184D01*
X160920184Y-107747737D01*
X160920182Y-107747740D01*
X160825044Y-107899149D01*
X160772709Y-107945440D01*
X160706168Y-107956396D01*
X160600004Y-107944435D01*
X160599996Y-107944435D01*
X160420750Y-107964630D01*
X160420745Y-107964631D01*
X160250476Y-108024211D01*
X160097737Y-108120184D01*
X159970182Y-108247739D01*
X159970181Y-108247741D01*
X159940336Y-108295239D01*
X159888002Y-108341529D01*
X159821460Y-108352486D01*
X159750004Y-108344435D01*
X159749996Y-108344435D01*
X159570750Y-108364630D01*
X159570745Y-108364631D01*
X159400476Y-108424211D01*
X159247737Y-108520184D01*
X159120184Y-108647737D01*
X159024211Y-108800476D01*
X158964631Y-108970745D01*
X158964630Y-108970750D01*
X158944435Y-109149996D01*
X158944435Y-109150003D01*
X62000000Y-109150003D01*
X62000000Y-104250000D01*
X64400000Y-104250000D01*
X64400000Y-104547844D01*
X64406401Y-104607372D01*
X64406403Y-104607379D01*
X64456645Y-104742086D01*
X64456649Y-104742093D01*
X64542809Y-104857187D01*
X64542812Y-104857190D01*
X64657906Y-104943350D01*
X64657913Y-104943354D01*
X64792620Y-104993596D01*
X64792627Y-104993598D01*
X64852155Y-104999999D01*
X64852172Y-105000000D01*
X65150000Y-105000000D01*
X65150000Y-104250000D01*
X65650000Y-104250000D01*
X65650000Y-105000000D01*
X65947828Y-105000000D01*
X65947844Y-104999999D01*
X66007372Y-104993598D01*
X66007379Y-104993596D01*
X66142086Y-104943354D01*
X66142093Y-104943350D01*
X66257187Y-104857190D01*
X66257190Y-104857187D01*
X66343350Y-104742093D01*
X66343354Y-104742086D01*
X66393596Y-104607379D01*
X66393598Y-104607372D01*
X66399999Y-104547844D01*
X66400000Y-104547827D01*
X66400000Y-104250000D01*
X65650000Y-104250000D01*
X65150000Y-104250000D01*
X64400000Y-104250000D01*
X62000000Y-104250000D01*
X62000000Y-103750000D01*
X64400000Y-103750000D01*
X65150000Y-103750000D01*
X65150000Y-103000000D01*
X65650000Y-103000000D01*
X65650000Y-103750000D01*
X66400000Y-103750000D01*
X66400000Y-103452172D01*
X66399999Y-103452155D01*
X66393598Y-103392627D01*
X66393596Y-103392620D01*
X66343354Y-103257913D01*
X66343350Y-103257906D01*
X66257190Y-103142812D01*
X66257187Y-103142809D01*
X66142093Y-103056649D01*
X66142086Y-103056645D01*
X66007379Y-103006403D01*
X66007372Y-103006401D01*
X65947844Y-103000000D01*
X65650000Y-103000000D01*
X65150000Y-103000000D01*
X64852155Y-103000000D01*
X64792627Y-103006401D01*
X64792620Y-103006403D01*
X64657913Y-103056645D01*
X64657906Y-103056649D01*
X64542812Y-103142809D01*
X64542809Y-103142812D01*
X64456649Y-103257906D01*
X64456645Y-103257913D01*
X64406403Y-103392620D01*
X64406401Y-103392627D01*
X64400000Y-103452155D01*
X64400000Y-103750000D01*
X62000000Y-103750000D01*
X62000000Y-102550003D01*
X140244435Y-102550003D01*
X140264630Y-102729249D01*
X140264631Y-102729254D01*
X140324211Y-102899523D01*
X140391369Y-103006403D01*
X140420184Y-103052262D01*
X140547738Y-103179816D01*
X140579861Y-103200000D01*
X140672028Y-103257913D01*
X140700478Y-103275789D01*
X140790789Y-103307390D01*
X140837515Y-103336750D01*
X143719298Y-106218533D01*
X143752783Y-106279856D01*
X143754837Y-106292330D01*
X143764630Y-106379249D01*
X143824210Y-106549521D01*
X143829637Y-106558158D01*
X143920184Y-106702262D01*
X144047738Y-106829816D01*
X144200478Y-106925789D01*
X144370745Y-106985368D01*
X144370750Y-106985369D01*
X144549996Y-107005565D01*
X144550000Y-107005565D01*
X144550004Y-107005565D01*
X144729249Y-106985369D01*
X144729252Y-106985368D01*
X144729255Y-106985368D01*
X144899522Y-106925789D01*
X145052262Y-106829816D01*
X145179816Y-106702262D01*
X145275789Y-106549522D01*
X145335368Y-106379255D01*
X145345162Y-106292330D01*
X145355565Y-106200003D01*
X145355565Y-106199996D01*
X145338665Y-106050003D01*
X174244435Y-106050003D01*
X174264630Y-106229249D01*
X174264631Y-106229254D01*
X174324211Y-106399523D01*
X174384515Y-106495496D01*
X174418462Y-106549522D01*
X174420185Y-106552263D01*
X174422445Y-106555097D01*
X174423334Y-106557275D01*
X174423889Y-106558158D01*
X174423734Y-106558255D01*
X174448855Y-106619783D01*
X174449500Y-106632412D01*
X174449500Y-112163330D01*
X174449499Y-112163348D01*
X174449499Y-112329054D01*
X174449498Y-112329054D01*
X174454983Y-112349523D01*
X174490423Y-112481785D01*
X174502246Y-112502262D01*
X174540223Y-112568040D01*
X174569479Y-112618715D01*
X174688349Y-112737585D01*
X174688355Y-112737590D01*
X175640162Y-113689398D01*
X175669522Y-113736122D01*
X175674209Y-113749518D01*
X175674210Y-113749519D01*
X175674211Y-113749522D01*
X175770184Y-113902262D01*
X175805531Y-113937609D01*
X175839016Y-113998932D01*
X175834032Y-114068624D01*
X175801251Y-114113849D01*
X175802662Y-114115260D01*
X175670184Y-114247737D01*
X175574211Y-114400476D01*
X175514631Y-114570745D01*
X175514630Y-114570750D01*
X175494435Y-114749996D01*
X175494435Y-114750003D01*
X175514630Y-114929249D01*
X175514631Y-114929254D01*
X175574211Y-115099523D01*
X175637511Y-115200264D01*
X175670184Y-115252262D01*
X175797738Y-115379816D01*
X175950478Y-115475789D01*
X176093367Y-115525788D01*
X176120745Y-115535368D01*
X176120750Y-115535369D01*
X176299996Y-115555565D01*
X176300000Y-115555565D01*
X176300004Y-115555565D01*
X176479249Y-115535369D01*
X176479252Y-115535368D01*
X176479255Y-115535368D01*
X176649522Y-115475789D01*
X176802262Y-115379816D01*
X176929816Y-115252262D01*
X176929816Y-115252261D01*
X176934740Y-115247338D01*
X176936174Y-115248772D01*
X176985241Y-115214332D01*
X177055052Y-115211482D01*
X177115322Y-115246827D01*
X177119044Y-115251122D01*
X177120184Y-115252262D01*
X177247738Y-115379816D01*
X177400478Y-115475789D01*
X177543367Y-115525788D01*
X177570745Y-115535368D01*
X177570750Y-115535369D01*
X177749996Y-115555565D01*
X177750000Y-115555565D01*
X177750004Y-115555565D01*
X177929249Y-115535369D01*
X177929252Y-115535368D01*
X177929255Y-115535368D01*
X178099522Y-115475789D01*
X178252262Y-115379816D01*
X178262316Y-115369762D01*
X178323638Y-115336275D01*
X178393330Y-115341257D01*
X178437681Y-115369759D01*
X178497738Y-115429816D01*
X178650478Y-115525789D01*
X178735573Y-115555565D01*
X178820745Y-115585368D01*
X178820750Y-115585369D01*
X178999996Y-115605565D01*
X179000000Y-115605565D01*
X179000004Y-115605565D01*
X179179249Y-115585369D01*
X179179252Y-115585368D01*
X179179255Y-115585368D01*
X179349522Y-115525789D01*
X179502262Y-115429816D01*
X179629816Y-115302262D01*
X179725789Y-115149522D01*
X179785368Y-114979255D01*
X179791002Y-114929254D01*
X179805565Y-114800003D01*
X179805565Y-114799997D01*
X179791357Y-114673902D01*
X179803411Y-114605080D01*
X179826893Y-114572340D01*
X181780519Y-112618716D01*
X182608506Y-111790727D01*
X182608511Y-111790724D01*
X182618714Y-111780520D01*
X182618716Y-111780520D01*
X182730520Y-111668716D01*
X182790129Y-111565470D01*
X182809577Y-111531785D01*
X182850501Y-111379057D01*
X182850501Y-111220943D01*
X182850501Y-111213348D01*
X182850500Y-111213330D01*
X182850500Y-110682412D01*
X182870185Y-110615373D01*
X182877555Y-110605097D01*
X182879810Y-110602267D01*
X182879816Y-110602262D01*
X182920506Y-110537503D01*
X182972841Y-110491213D01*
X183041894Y-110480565D01*
X183105743Y-110508940D01*
X183144115Y-110567330D01*
X183149500Y-110603476D01*
X183149500Y-115263330D01*
X183149499Y-115263348D01*
X183149499Y-115270943D01*
X183149499Y-115429057D01*
X183162021Y-115475788D01*
X183190422Y-115581783D01*
X183192493Y-115585370D01*
X183192492Y-115585370D01*
X183192496Y-115585375D01*
X183269477Y-115718712D01*
X183269481Y-115718717D01*
X183388349Y-115837585D01*
X183388355Y-115837590D01*
X186569298Y-119018534D01*
X186602783Y-119079857D01*
X186604837Y-119092331D01*
X186614630Y-119179249D01*
X186674210Y-119349521D01*
X186743363Y-119459577D01*
X186770184Y-119502262D01*
X186897738Y-119629816D01*
X186897740Y-119629817D01*
X187046661Y-119723391D01*
X187050478Y-119725789D01*
X187068174Y-119731981D01*
X187220745Y-119785368D01*
X187220750Y-119785369D01*
X187399996Y-119805565D01*
X187400000Y-119805565D01*
X187400004Y-119805565D01*
X187579249Y-119785369D01*
X187579252Y-119785368D01*
X187579255Y-119785368D01*
X187749522Y-119725789D01*
X187902262Y-119629816D01*
X187973769Y-119558308D01*
X188035089Y-119524825D01*
X188102400Y-119528948D01*
X188120745Y-119535368D01*
X188120748Y-119535368D01*
X188120750Y-119535369D01*
X188299996Y-119555565D01*
X188300000Y-119555565D01*
X188300004Y-119555565D01*
X188479249Y-119535369D01*
X188479252Y-119535368D01*
X188479255Y-119535368D01*
X188649522Y-119475789D01*
X188802262Y-119379816D01*
X188929816Y-119252262D01*
X189025789Y-119099522D01*
X189085368Y-118929255D01*
X189088664Y-118900003D01*
X189105565Y-118750003D01*
X189105565Y-118749996D01*
X189085369Y-118570750D01*
X189085368Y-118570745D01*
X189053352Y-118479249D01*
X189025789Y-118400478D01*
X189024995Y-118399215D01*
X188943920Y-118270185D01*
X188929816Y-118247738D01*
X188802262Y-118120184D01*
X188686965Y-118047738D01*
X188649521Y-118024210D01*
X188479249Y-117964630D01*
X188392330Y-117954837D01*
X188327916Y-117927770D01*
X188318533Y-117919298D01*
X185686819Y-115287584D01*
X185653334Y-115226261D01*
X185650500Y-115199903D01*
X185650500Y-114300003D01*
X186694435Y-114300003D01*
X186714630Y-114479249D01*
X186714631Y-114479254D01*
X186774211Y-114649523D01*
X186830602Y-114739267D01*
X186857187Y-114781578D01*
X186870185Y-114802263D01*
X186872445Y-114805097D01*
X186873334Y-114807275D01*
X186873889Y-114808158D01*
X186873734Y-114808255D01*
X186898855Y-114869783D01*
X186899500Y-114882412D01*
X186899500Y-115313330D01*
X186899499Y-115313348D01*
X186899499Y-115479054D01*
X186899498Y-115479054D01*
X186940423Y-115631785D01*
X186969358Y-115681900D01*
X186969359Y-115681904D01*
X186969360Y-115681904D01*
X187019479Y-115768714D01*
X187019481Y-115768717D01*
X187138349Y-115887585D01*
X187138355Y-115887590D01*
X189969298Y-118718534D01*
X190002783Y-118779857D01*
X190004837Y-118792331D01*
X190014630Y-118879249D01*
X190074210Y-119049521D01*
X190109425Y-119105565D01*
X190170184Y-119202262D01*
X190297738Y-119329816D01*
X190378430Y-119380518D01*
X190392934Y-119389632D01*
X190450478Y-119425789D01*
X190547027Y-119459573D01*
X190620745Y-119485368D01*
X190620750Y-119485369D01*
X190799996Y-119505565D01*
X190800000Y-119505565D01*
X190800004Y-119505565D01*
X190979249Y-119485369D01*
X190979252Y-119485368D01*
X190979255Y-119485368D01*
X191149522Y-119425789D01*
X191302262Y-119329816D01*
X191380595Y-119251482D01*
X191441914Y-119218000D01*
X191511606Y-119222984D01*
X191534244Y-119234171D01*
X191600478Y-119275789D01*
X191754878Y-119329816D01*
X191770745Y-119335368D01*
X191770750Y-119335369D01*
X191949996Y-119355565D01*
X191950000Y-119355565D01*
X191950004Y-119355565D01*
X192129249Y-119335369D01*
X192129252Y-119335368D01*
X192129255Y-119335368D01*
X192299522Y-119275789D01*
X192452262Y-119179816D01*
X192579816Y-119052262D01*
X192675789Y-118899522D01*
X192735368Y-118729255D01*
X192735369Y-118729249D01*
X192755565Y-118550003D01*
X192755565Y-118549996D01*
X192735369Y-118370750D01*
X192735368Y-118370745D01*
X192710438Y-118299500D01*
X192675789Y-118200478D01*
X192579816Y-118047738D01*
X192452262Y-117920184D01*
X192450852Y-117919298D01*
X192299521Y-117824210D01*
X192129249Y-117764630D01*
X192042330Y-117754837D01*
X191977916Y-117727770D01*
X191968533Y-117719298D01*
X189119517Y-114870282D01*
X189086032Y-114808959D01*
X189091016Y-114739267D01*
X189102200Y-114716638D01*
X189175789Y-114599522D01*
X189235368Y-114429255D01*
X189236375Y-114420312D01*
X189263440Y-114355899D01*
X189321033Y-114316342D01*
X189390870Y-114314202D01*
X189447277Y-114346512D01*
X193469298Y-118368533D01*
X193502783Y-118429856D01*
X193504837Y-118442330D01*
X193514630Y-118529249D01*
X193574210Y-118699521D01*
X193605436Y-118749216D01*
X193670184Y-118852262D01*
X193797738Y-118979816D01*
X193859357Y-119018534D01*
X193914341Y-119053083D01*
X193950478Y-119075789D01*
X194018306Y-119099523D01*
X194120745Y-119135368D01*
X194120750Y-119135369D01*
X194299996Y-119155565D01*
X194300000Y-119155565D01*
X194300004Y-119155565D01*
X194479249Y-119135369D01*
X194479252Y-119135368D01*
X194479255Y-119135368D01*
X194649522Y-119075789D01*
X194802262Y-118979816D01*
X194862319Y-118919759D01*
X194923642Y-118886274D01*
X194993334Y-118891258D01*
X195037681Y-118919759D01*
X195047738Y-118929816D01*
X195138080Y-118986582D01*
X195188931Y-119018534D01*
X195200478Y-119025789D01*
X195370745Y-119085368D01*
X195370750Y-119085369D01*
X195549996Y-119105565D01*
X195550000Y-119105565D01*
X195550004Y-119105565D01*
X195729249Y-119085369D01*
X195729252Y-119085368D01*
X195729255Y-119085368D01*
X195899522Y-119025789D01*
X196052262Y-118929816D01*
X196179816Y-118802262D01*
X196275789Y-118649522D01*
X196335368Y-118479255D01*
X196335369Y-118479249D01*
X196355565Y-118300003D01*
X196355565Y-118299996D01*
X196335369Y-118120750D01*
X196335368Y-118120745D01*
X196281926Y-117968017D01*
X196275789Y-117950478D01*
X196179816Y-117797738D01*
X196052262Y-117670184D01*
X195988014Y-117629814D01*
X195899521Y-117574210D01*
X195729249Y-117514630D01*
X195642330Y-117504837D01*
X195577916Y-117477770D01*
X195568533Y-117469298D01*
X191330700Y-113231465D01*
X191297215Y-113170142D01*
X191295163Y-113157686D01*
X191285368Y-113070745D01*
X191225789Y-112900478D01*
X191129816Y-112747738D01*
X191002262Y-112620184D01*
X190993426Y-112614632D01*
X190849523Y-112524211D01*
X190679254Y-112464631D01*
X190679249Y-112464630D01*
X190500004Y-112444435D01*
X190499996Y-112444435D01*
X190320750Y-112464630D01*
X190320745Y-112464631D01*
X190150476Y-112524211D01*
X189997739Y-112620183D01*
X189907995Y-112709927D01*
X189846671Y-112743411D01*
X189776980Y-112738427D01*
X189754349Y-112727243D01*
X189749521Y-112724210D01*
X189579262Y-112664633D01*
X189579249Y-112664630D01*
X189400004Y-112644435D01*
X189399996Y-112644435D01*
X189220750Y-112664630D01*
X189220745Y-112664631D01*
X189050476Y-112724211D01*
X188897737Y-112820184D01*
X188770184Y-112947737D01*
X188674211Y-113100476D01*
X188614631Y-113270745D01*
X188614630Y-113270749D01*
X188607126Y-113337354D01*
X188580059Y-113401768D01*
X188522464Y-113441323D01*
X188470026Y-113446691D01*
X188455395Y-113445042D01*
X188450000Y-113444435D01*
X188449999Y-113444435D01*
X188449996Y-113444435D01*
X188270750Y-113464630D01*
X188270745Y-113464631D01*
X188100474Y-113524212D01*
X188001183Y-113586600D01*
X187933946Y-113605600D01*
X187869241Y-113586600D01*
X187849525Y-113574212D01*
X187679254Y-113514631D01*
X187679249Y-113514630D01*
X187500004Y-113494435D01*
X187499996Y-113494435D01*
X187320750Y-113514630D01*
X187320745Y-113514631D01*
X187150476Y-113574211D01*
X186997737Y-113670184D01*
X186870184Y-113797737D01*
X186774211Y-113950476D01*
X186714631Y-114120745D01*
X186714630Y-114120750D01*
X186694435Y-114299996D01*
X186694435Y-114300003D01*
X185650500Y-114300003D01*
X185650500Y-109220945D01*
X185650500Y-109220943D01*
X185623705Y-109120943D01*
X185609577Y-109068215D01*
X185566256Y-108993182D01*
X185530520Y-108931284D01*
X185418716Y-108819480D01*
X185418715Y-108819479D01*
X185414385Y-108815149D01*
X185414374Y-108815139D01*
X181049235Y-104450000D01*
X236400000Y-104450000D01*
X236400000Y-104747844D01*
X236406401Y-104807372D01*
X236406403Y-104807379D01*
X236456645Y-104942086D01*
X236456649Y-104942093D01*
X236542809Y-105057187D01*
X236542812Y-105057190D01*
X236657906Y-105143350D01*
X236657913Y-105143354D01*
X236792620Y-105193596D01*
X236792627Y-105193598D01*
X236852155Y-105199999D01*
X236852172Y-105200000D01*
X237150000Y-105200000D01*
X237150000Y-104450000D01*
X237650000Y-104450000D01*
X237650000Y-105200000D01*
X237947828Y-105200000D01*
X237947844Y-105199999D01*
X238007372Y-105193598D01*
X238007379Y-105193596D01*
X238142086Y-105143354D01*
X238142093Y-105143350D01*
X238257187Y-105057190D01*
X238257190Y-105057187D01*
X238343350Y-104942093D01*
X238343354Y-104942086D01*
X238393596Y-104807379D01*
X238393598Y-104807372D01*
X238399999Y-104747844D01*
X238400000Y-104747827D01*
X238400000Y-104450000D01*
X237650000Y-104450000D01*
X237150000Y-104450000D01*
X236400000Y-104450000D01*
X181049235Y-104450000D01*
X180737590Y-104138355D01*
X180737588Y-104138352D01*
X180618717Y-104019481D01*
X180618709Y-104019475D01*
X180516936Y-103960717D01*
X180516934Y-103960716D01*
X180498374Y-103950000D01*
X236400000Y-103950000D01*
X237150000Y-103950000D01*
X237150000Y-103200000D01*
X237650000Y-103200000D01*
X237650000Y-103950000D01*
X238400000Y-103950000D01*
X238400000Y-103652172D01*
X238399999Y-103652155D01*
X238393598Y-103592627D01*
X238393596Y-103592620D01*
X238343354Y-103457913D01*
X238343350Y-103457906D01*
X238257190Y-103342812D01*
X238257187Y-103342809D01*
X238142093Y-103256649D01*
X238142086Y-103256645D01*
X238007379Y-103206403D01*
X238007372Y-103206401D01*
X237947844Y-103200000D01*
X237650000Y-103200000D01*
X237150000Y-103200000D01*
X236852155Y-103200000D01*
X236792627Y-103206401D01*
X236792620Y-103206403D01*
X236657913Y-103256645D01*
X236657906Y-103256649D01*
X236542812Y-103342809D01*
X236542809Y-103342812D01*
X236456649Y-103457906D01*
X236456645Y-103457913D01*
X236406403Y-103592620D01*
X236406401Y-103592627D01*
X236400000Y-103652155D01*
X236400000Y-103950000D01*
X180498374Y-103950000D01*
X180481790Y-103940425D01*
X180481789Y-103940424D01*
X180469263Y-103937067D01*
X180329057Y-103899499D01*
X180170943Y-103899499D01*
X180163347Y-103899499D01*
X180163331Y-103899500D01*
X179932412Y-103899500D01*
X179865373Y-103879815D01*
X179855097Y-103872445D01*
X179852263Y-103870185D01*
X179852262Y-103870184D01*
X179795496Y-103834515D01*
X179699523Y-103774211D01*
X179529254Y-103714631D01*
X179529249Y-103714630D01*
X179350004Y-103694435D01*
X179349996Y-103694435D01*
X179170750Y-103714630D01*
X179170745Y-103714631D01*
X179000476Y-103774211D01*
X178847737Y-103870184D01*
X178720184Y-103997737D01*
X178624211Y-104150476D01*
X178564631Y-104320745D01*
X178564630Y-104320750D01*
X178544435Y-104499996D01*
X178544435Y-104500003D01*
X178564630Y-104679249D01*
X178564631Y-104679254D01*
X178624211Y-104849523D01*
X178714739Y-104993596D01*
X178720184Y-105002262D01*
X178847738Y-105129816D01*
X178869284Y-105143354D01*
X178911700Y-105170006D01*
X178957991Y-105222341D01*
X178968639Y-105291395D01*
X178940264Y-105355243D01*
X178911700Y-105379994D01*
X178847737Y-105420184D01*
X178720184Y-105547737D01*
X178624211Y-105700476D01*
X178564631Y-105870745D01*
X178564630Y-105870750D01*
X178544435Y-106049996D01*
X178544435Y-106050003D01*
X178564630Y-106229249D01*
X178564631Y-106229254D01*
X178624211Y-106399523D01*
X178718462Y-106549521D01*
X178720184Y-106552262D01*
X178847738Y-106679816D01*
X179000478Y-106775789D01*
X179154878Y-106829816D01*
X179170745Y-106835368D01*
X179170750Y-106835369D01*
X179349996Y-106855565D01*
X179350000Y-106855565D01*
X179350004Y-106855565D01*
X179529246Y-106835369D01*
X179529245Y-106835369D01*
X179529255Y-106835368D01*
X179571928Y-106820435D01*
X179641702Y-106816873D01*
X179700561Y-106849796D01*
X182001318Y-109150553D01*
X182034803Y-109211876D01*
X182029819Y-109281568D01*
X181987947Y-109337501D01*
X181954593Y-109355275D01*
X181938848Y-109360784D01*
X181900473Y-109374212D01*
X181900472Y-109374213D01*
X181830757Y-109418018D01*
X181763520Y-109437018D01*
X181698815Y-109418018D01*
X181549522Y-109324211D01*
X181522147Y-109314632D01*
X181379254Y-109264631D01*
X181379249Y-109264630D01*
X181200004Y-109244435D01*
X181199996Y-109244435D01*
X181020750Y-109264630D01*
X181020737Y-109264633D01*
X180850480Y-109324209D01*
X180815970Y-109345893D01*
X180748733Y-109364892D01*
X180684030Y-109345893D01*
X180649519Y-109324209D01*
X180479262Y-109264633D01*
X180479249Y-109264630D01*
X180300004Y-109244435D01*
X180299996Y-109244435D01*
X180120750Y-109264630D01*
X180120745Y-109264631D01*
X179950476Y-109324211D01*
X179797737Y-109420184D01*
X179670184Y-109547737D01*
X179574211Y-109700476D01*
X179514631Y-109870745D01*
X179514630Y-109870750D01*
X179494435Y-110049996D01*
X179494435Y-110050003D01*
X179514630Y-110229249D01*
X179514633Y-110229262D01*
X179574210Y-110399521D01*
X179577231Y-110405794D01*
X179574353Y-110407179D01*
X179589621Y-110460779D01*
X179569395Y-110527657D01*
X179553306Y-110547457D01*
X177204102Y-112896662D01*
X177142779Y-112930147D01*
X177073087Y-112925163D01*
X177028740Y-112896662D01*
X176902262Y-112770184D01*
X176749523Y-112674211D01*
X176579254Y-112614631D01*
X176579249Y-112614630D01*
X176400004Y-112594435D01*
X176399997Y-112594435D01*
X176318839Y-112603579D01*
X176250017Y-112591524D01*
X176217275Y-112568040D01*
X175686819Y-112037583D01*
X175653334Y-111976260D01*
X175650500Y-111949902D01*
X175650500Y-106632412D01*
X175670185Y-106565373D01*
X175677555Y-106555097D01*
X175679810Y-106552267D01*
X175679816Y-106552262D01*
X175775789Y-106399522D01*
X175835368Y-106229255D01*
X175838664Y-106200003D01*
X175855565Y-106050003D01*
X175855565Y-106049996D01*
X175835369Y-105870750D01*
X175835368Y-105870745D01*
X175775788Y-105700476D01*
X175736582Y-105638080D01*
X175679816Y-105547738D01*
X175552262Y-105420184D01*
X175543423Y-105414630D01*
X175399523Y-105324211D01*
X175229254Y-105264631D01*
X175229249Y-105264630D01*
X175050004Y-105244435D01*
X175049996Y-105244435D01*
X174870750Y-105264630D01*
X174870745Y-105264631D01*
X174700476Y-105324211D01*
X174547737Y-105420184D01*
X174420184Y-105547737D01*
X174324211Y-105700476D01*
X174264631Y-105870745D01*
X174264630Y-105870750D01*
X174244435Y-106049996D01*
X174244435Y-106050003D01*
X145338665Y-106050003D01*
X145335369Y-106020750D01*
X145335368Y-106020745D01*
X145282882Y-105870750D01*
X145275789Y-105850478D01*
X145179816Y-105697738D01*
X145052262Y-105570184D01*
X145051134Y-105569475D01*
X144899521Y-105474210D01*
X144729249Y-105414630D01*
X144642330Y-105404837D01*
X144577916Y-105377770D01*
X144568533Y-105369298D01*
X141887022Y-102687787D01*
X141853537Y-102626464D01*
X141851483Y-102586223D01*
X141855565Y-102550000D01*
X141835368Y-102370745D01*
X141775789Y-102200478D01*
X141679816Y-102047738D01*
X141552262Y-101920184D01*
X141399523Y-101824211D01*
X141229254Y-101764631D01*
X141229249Y-101764630D01*
X141050004Y-101744435D01*
X141049996Y-101744435D01*
X140870750Y-101764630D01*
X140870745Y-101764631D01*
X140700476Y-101824211D01*
X140547737Y-101920184D01*
X140420184Y-102047737D01*
X140324211Y-102200476D01*
X140264631Y-102370745D01*
X140264630Y-102370750D01*
X140244435Y-102549996D01*
X140244435Y-102550003D01*
X62000000Y-102550003D01*
X62000000Y-96900003D01*
X103194435Y-96900003D01*
X103214630Y-97079249D01*
X103214631Y-97079254D01*
X103274211Y-97249523D01*
X103370184Y-97402262D01*
X103497738Y-97529816D01*
X103650478Y-97625789D01*
X103820745Y-97685368D01*
X103820750Y-97685369D01*
X103999996Y-97705565D01*
X104000000Y-97705565D01*
X104000004Y-97705565D01*
X104179249Y-97685369D01*
X104179252Y-97685368D01*
X104179255Y-97685368D01*
X104349522Y-97625789D01*
X104502262Y-97529816D01*
X104629816Y-97402262D01*
X104725789Y-97249522D01*
X104785368Y-97079255D01*
X104805565Y-96900000D01*
X104785368Y-96720745D01*
X104725789Y-96550478D01*
X104629816Y-96397738D01*
X104629814Y-96397736D01*
X104629813Y-96397734D01*
X104627550Y-96394896D01*
X104626659Y-96392715D01*
X104626111Y-96391842D01*
X104626264Y-96391745D01*
X104601144Y-96330209D01*
X104600500Y-96317587D01*
X104600500Y-95300003D01*
X174244435Y-95300003D01*
X174264630Y-95479249D01*
X174264631Y-95479254D01*
X174324211Y-95649523D01*
X174387045Y-95749522D01*
X174420184Y-95802262D01*
X174547738Y-95929816D01*
X174700478Y-96025789D01*
X174785573Y-96055565D01*
X174870745Y-96085368D01*
X174870750Y-96085369D01*
X175049996Y-96105565D01*
X175050000Y-96105565D01*
X175050004Y-96105565D01*
X175229249Y-96085369D01*
X175229252Y-96085368D01*
X175229255Y-96085368D01*
X175399522Y-96025789D01*
X175552262Y-95929816D01*
X175679816Y-95802262D01*
X175775789Y-95649522D01*
X175835368Y-95479255D01*
X175841002Y-95429254D01*
X175849931Y-95350003D01*
X176694435Y-95350003D01*
X176714630Y-95529249D01*
X176714631Y-95529254D01*
X176774211Y-95699523D01*
X176838767Y-95802262D01*
X176870184Y-95852262D01*
X176997738Y-95979816D01*
X177081667Y-96032552D01*
X177106511Y-96048163D01*
X177150478Y-96075789D01*
X177235573Y-96105565D01*
X177320745Y-96135368D01*
X177320750Y-96135369D01*
X177499996Y-96155565D01*
X177500000Y-96155565D01*
X177500004Y-96155565D01*
X177679249Y-96135369D01*
X177679252Y-96135368D01*
X177679255Y-96135368D01*
X177849522Y-96075789D01*
X177893489Y-96048163D01*
X177913850Y-96035369D01*
X178002262Y-95979816D01*
X178002263Y-95979814D01*
X178007871Y-95976291D01*
X178075108Y-95957290D01*
X178141943Y-95977657D01*
X178161525Y-95993603D01*
X178197738Y-96029816D01*
X178350478Y-96125789D01*
X178435573Y-96155565D01*
X178520745Y-96185368D01*
X178520750Y-96185369D01*
X178699996Y-96205565D01*
X178700000Y-96205565D01*
X178700004Y-96205565D01*
X178879249Y-96185369D01*
X178879252Y-96185368D01*
X178879255Y-96185368D01*
X179049522Y-96125789D01*
X179202262Y-96029816D01*
X179329816Y-95902262D01*
X179425789Y-95749522D01*
X179425789Y-95749519D01*
X179426423Y-95748512D01*
X179478758Y-95702221D01*
X179547811Y-95691573D01*
X179611660Y-95719948D01*
X179636409Y-95748510D01*
X179670184Y-95802262D01*
X179797738Y-95929816D01*
X179950478Y-96025789D01*
X180035573Y-96055565D01*
X180120745Y-96085368D01*
X180120750Y-96085369D01*
X180299996Y-96105565D01*
X180300000Y-96105565D01*
X180300004Y-96105565D01*
X180479249Y-96085369D01*
X180479252Y-96085368D01*
X180479255Y-96085368D01*
X180479256Y-96085367D01*
X180479259Y-96085367D01*
X180518188Y-96071744D01*
X180620012Y-96036114D01*
X180689788Y-96032552D01*
X180726935Y-96048161D01*
X180770902Y-96075788D01*
X180850475Y-96125788D01*
X181020745Y-96185368D01*
X181020750Y-96185369D01*
X181199996Y-96205565D01*
X181200000Y-96205565D01*
X181200004Y-96205565D01*
X181379249Y-96185369D01*
X181379252Y-96185368D01*
X181379255Y-96185368D01*
X181549522Y-96125789D01*
X181702262Y-96029816D01*
X181725609Y-96006468D01*
X181786931Y-95972983D01*
X181854246Y-95977108D01*
X182020737Y-96035366D01*
X182020743Y-96035367D01*
X182020745Y-96035368D01*
X182020746Y-96035368D01*
X182020750Y-96035369D01*
X182199996Y-96055565D01*
X182200000Y-96055565D01*
X182200004Y-96055565D01*
X182379249Y-96035369D01*
X182379252Y-96035368D01*
X182379255Y-96035368D01*
X182549522Y-95975789D01*
X182702262Y-95879816D01*
X182829816Y-95752262D01*
X182925789Y-95599522D01*
X182985368Y-95429255D01*
X182985369Y-95429249D01*
X183005565Y-95250003D01*
X183005565Y-95249996D01*
X182985369Y-95070750D01*
X182985368Y-95070745D01*
X182963562Y-95008426D01*
X182925789Y-94900478D01*
X182924067Y-94897738D01*
X182861232Y-94797737D01*
X182829816Y-94747738D01*
X182829814Y-94747736D01*
X182829813Y-94747734D01*
X182827550Y-94744896D01*
X182826659Y-94742715D01*
X182826111Y-94741842D01*
X182826264Y-94741745D01*
X182801144Y-94680209D01*
X182800500Y-94667587D01*
X182800500Y-90650005D01*
X201344357Y-90650005D01*
X201364890Y-90897812D01*
X201364892Y-90897824D01*
X201425936Y-91138881D01*
X201525826Y-91366606D01*
X201661833Y-91574782D01*
X201661836Y-91574785D01*
X201830256Y-91757738D01*
X202026491Y-91910474D01*
X202135840Y-91969651D01*
X202191920Y-92000000D01*
X202245190Y-92028828D01*
X202480386Y-92109571D01*
X202725665Y-92150500D01*
X202974335Y-92150500D01*
X203219614Y-92109571D01*
X203454810Y-92028828D01*
X203673509Y-91910474D01*
X203869744Y-91757738D01*
X204038164Y-91574785D01*
X204174173Y-91366607D01*
X204274063Y-91138881D01*
X204335108Y-90897821D01*
X204337825Y-90865032D01*
X204355643Y-90650005D01*
X211344357Y-90650005D01*
X211364890Y-90897812D01*
X211364892Y-90897824D01*
X211425936Y-91138881D01*
X211525826Y-91366606D01*
X211661833Y-91574782D01*
X211661836Y-91574785D01*
X211830256Y-91757738D01*
X212026491Y-91910474D01*
X212135840Y-91969651D01*
X212191920Y-92000000D01*
X212245190Y-92028828D01*
X212480386Y-92109571D01*
X212725665Y-92150500D01*
X212974335Y-92150500D01*
X213219614Y-92109571D01*
X213454810Y-92028828D01*
X213673509Y-91910474D01*
X213869744Y-91757738D01*
X214038164Y-91574785D01*
X214174173Y-91366607D01*
X214274063Y-91138881D01*
X214335108Y-90897821D01*
X214337825Y-90865032D01*
X214355643Y-90650005D01*
X214355643Y-90649994D01*
X214335109Y-90402187D01*
X214335107Y-90402175D01*
X214274063Y-90161118D01*
X214174173Y-89933393D01*
X214038166Y-89725217D01*
X213961800Y-89642262D01*
X213869744Y-89542262D01*
X213673509Y-89389526D01*
X213673507Y-89389525D01*
X213673506Y-89389524D01*
X213454811Y-89271172D01*
X213454802Y-89271169D01*
X213219616Y-89190429D01*
X212974335Y-89149500D01*
X212725665Y-89149500D01*
X212480383Y-89190429D01*
X212245197Y-89271169D01*
X212245188Y-89271172D01*
X212026493Y-89389524D01*
X211830257Y-89542261D01*
X211661833Y-89725217D01*
X211525826Y-89933393D01*
X211425936Y-90161118D01*
X211364892Y-90402175D01*
X211364890Y-90402187D01*
X211344357Y-90649994D01*
X211344357Y-90650005D01*
X204355643Y-90650005D01*
X204355643Y-90649994D01*
X204335109Y-90402187D01*
X204335107Y-90402175D01*
X204274063Y-90161118D01*
X204174173Y-89933393D01*
X204038166Y-89725217D01*
X203961800Y-89642262D01*
X203869744Y-89542262D01*
X203673509Y-89389526D01*
X203673507Y-89389525D01*
X203673506Y-89389524D01*
X203454811Y-89271172D01*
X203454802Y-89271169D01*
X203219616Y-89190429D01*
X202974335Y-89149500D01*
X202725665Y-89149500D01*
X202480383Y-89190429D01*
X202245197Y-89271169D01*
X202245188Y-89271172D01*
X202026493Y-89389524D01*
X201830257Y-89542261D01*
X201661833Y-89725217D01*
X201525826Y-89933393D01*
X201425936Y-90161118D01*
X201364892Y-90402175D01*
X201364890Y-90402187D01*
X201344357Y-90649994D01*
X201344357Y-90650005D01*
X182800500Y-90650005D01*
X182800500Y-86632412D01*
X182820185Y-86565373D01*
X182827555Y-86555097D01*
X182829810Y-86552267D01*
X182829816Y-86552262D01*
X182925789Y-86399522D01*
X182985368Y-86229255D01*
X182988664Y-86200003D01*
X183005565Y-86050003D01*
X183005565Y-86049996D01*
X182985369Y-85870750D01*
X182985368Y-85870745D01*
X182956759Y-85788985D01*
X182925789Y-85700478D01*
X182924067Y-85697738D01*
X182850239Y-85580241D01*
X182829816Y-85547738D01*
X182702262Y-85420184D01*
X182693426Y-85414632D01*
X182549523Y-85324211D01*
X182379254Y-85264631D01*
X182379249Y-85264630D01*
X182200004Y-85244435D01*
X182199996Y-85244435D01*
X182020750Y-85264630D01*
X182020737Y-85264633D01*
X181850480Y-85324209D01*
X181805757Y-85352310D01*
X181738520Y-85371309D01*
X181673815Y-85352309D01*
X181549523Y-85274211D01*
X181379254Y-85214631D01*
X181379249Y-85214630D01*
X181200004Y-85194435D01*
X181199996Y-85194435D01*
X181020750Y-85214630D01*
X181020737Y-85214633D01*
X180850480Y-85274209D01*
X180815970Y-85295893D01*
X180748733Y-85314892D01*
X180684030Y-85295893D01*
X180649519Y-85274209D01*
X180479262Y-85214633D01*
X180479249Y-85214630D01*
X180300004Y-85194435D01*
X180299996Y-85194435D01*
X180120750Y-85214630D01*
X180120745Y-85214631D01*
X179950476Y-85274211D01*
X179797737Y-85370184D01*
X179670184Y-85497737D01*
X179670182Y-85497740D01*
X179621568Y-85575108D01*
X179569233Y-85621399D01*
X179500180Y-85632046D01*
X179436331Y-85603671D01*
X179428894Y-85596816D01*
X179302262Y-85470184D01*
X179149523Y-85374211D01*
X178979254Y-85314631D01*
X178979249Y-85314630D01*
X178800004Y-85294435D01*
X178799996Y-85294435D01*
X178620750Y-85314630D01*
X178620745Y-85314631D01*
X178450476Y-85374211D01*
X178297737Y-85470184D01*
X178187681Y-85580241D01*
X178126358Y-85613726D01*
X178056666Y-85608742D01*
X178012319Y-85580241D01*
X178002262Y-85570184D01*
X177849523Y-85474211D01*
X177679254Y-85414631D01*
X177679249Y-85414630D01*
X177500004Y-85394435D01*
X177499996Y-85394435D01*
X177320750Y-85414630D01*
X177320745Y-85414631D01*
X177150476Y-85474211D01*
X176997737Y-85570184D01*
X176870184Y-85697737D01*
X176774211Y-85850476D01*
X176714631Y-86020745D01*
X176714630Y-86020750D01*
X176694435Y-86199996D01*
X176694435Y-86200003D01*
X176714630Y-86379249D01*
X176714631Y-86379254D01*
X176774211Y-86549523D01*
X176808112Y-86603475D01*
X176837046Y-86649524D01*
X176870185Y-86702263D01*
X176872445Y-86705097D01*
X176873334Y-86707275D01*
X176873889Y-86708158D01*
X176873734Y-86708255D01*
X176898855Y-86769783D01*
X176899500Y-86782412D01*
X176899500Y-94767587D01*
X176879815Y-94834626D01*
X176872450Y-94844896D01*
X176870186Y-94847734D01*
X176774211Y-95000476D01*
X176714631Y-95170745D01*
X176714630Y-95170750D01*
X176694435Y-95349996D01*
X176694435Y-95350003D01*
X175849931Y-95350003D01*
X175855565Y-95300003D01*
X175855565Y-95299996D01*
X175835369Y-95120750D01*
X175835368Y-95120745D01*
X175817872Y-95070745D01*
X175775789Y-94950478D01*
X175679816Y-94797738D01*
X175679814Y-94797736D01*
X175679813Y-94797734D01*
X175677550Y-94794896D01*
X175676659Y-94792715D01*
X175676111Y-94791842D01*
X175676264Y-94791745D01*
X175651144Y-94730209D01*
X175650500Y-94717587D01*
X175650500Y-86932940D01*
X175670185Y-86865901D01*
X175686819Y-86845259D01*
X175692309Y-86839769D01*
X175729816Y-86802262D01*
X175825789Y-86649522D01*
X175885368Y-86479255D01*
X175888664Y-86450003D01*
X175905565Y-86300003D01*
X175905565Y-86299996D01*
X175885369Y-86120750D01*
X175885368Y-86120745D01*
X175825788Y-85950476D01*
X175786582Y-85888080D01*
X175729816Y-85797738D01*
X175602262Y-85670184D01*
X175593426Y-85664632D01*
X175449523Y-85574211D01*
X175279254Y-85514631D01*
X175279249Y-85514630D01*
X175100004Y-85494435D01*
X175099996Y-85494435D01*
X174920750Y-85514630D01*
X174920745Y-85514631D01*
X174750476Y-85574211D01*
X174597737Y-85670184D01*
X174470184Y-85797737D01*
X174374211Y-85950476D01*
X174314631Y-86120745D01*
X174314630Y-86120750D01*
X174294435Y-86299996D01*
X174294435Y-86300003D01*
X174314630Y-86479249D01*
X174314631Y-86479254D01*
X174374211Y-86649524D01*
X174430493Y-86739094D01*
X174449500Y-86805067D01*
X174449500Y-94717587D01*
X174429815Y-94784626D01*
X174422450Y-94794896D01*
X174420186Y-94797734D01*
X174324211Y-94950476D01*
X174264631Y-95120745D01*
X174264630Y-95120750D01*
X174244435Y-95299996D01*
X174244435Y-95300003D01*
X104600500Y-95300003D01*
X104600500Y-93850003D01*
X163594435Y-93850003D01*
X163614630Y-94029249D01*
X163614631Y-94029254D01*
X163674211Y-94199523D01*
X163770184Y-94352262D01*
X163897738Y-94479816D01*
X164050478Y-94575789D01*
X164220745Y-94635368D01*
X164220750Y-94635369D01*
X164399996Y-94655565D01*
X164400000Y-94655565D01*
X164400004Y-94655565D01*
X164579249Y-94635369D01*
X164579252Y-94635368D01*
X164579255Y-94635368D01*
X164749522Y-94575789D01*
X164902262Y-94479816D01*
X165029816Y-94352262D01*
X165125789Y-94199522D01*
X165185368Y-94029255D01*
X165205565Y-93850000D01*
X165185368Y-93670745D01*
X165185367Y-93670743D01*
X165185366Y-93670737D01*
X165125790Y-93500479D01*
X165119506Y-93490478D01*
X165100500Y-93424507D01*
X165100500Y-86875493D01*
X165119508Y-86809519D01*
X165125787Y-86799525D01*
X165125786Y-86799525D01*
X165125789Y-86799522D01*
X165185368Y-86629255D01*
X165188273Y-86603475D01*
X165205565Y-86450003D01*
X165205565Y-86449996D01*
X165185369Y-86270750D01*
X165185368Y-86270745D01*
X165160612Y-86199996D01*
X165125789Y-86100478D01*
X165029816Y-85947738D01*
X164902262Y-85820184D01*
X164749523Y-85724211D01*
X164579254Y-85664631D01*
X164579249Y-85664630D01*
X164400004Y-85644435D01*
X164399996Y-85644435D01*
X164220750Y-85664630D01*
X164220745Y-85664631D01*
X164050476Y-85724211D01*
X163897737Y-85820184D01*
X163770184Y-85947737D01*
X163674211Y-86100476D01*
X163614631Y-86270745D01*
X163614630Y-86270750D01*
X163594435Y-86449996D01*
X163594435Y-86450003D01*
X163614630Y-86629249D01*
X163614631Y-86629254D01*
X163674212Y-86799525D01*
X163680492Y-86809519D01*
X163699500Y-86875493D01*
X163699500Y-93424507D01*
X163680494Y-93490478D01*
X163674209Y-93500479D01*
X163614633Y-93670737D01*
X163614630Y-93670750D01*
X163594435Y-93849996D01*
X163594435Y-93850003D01*
X104600500Y-93850003D01*
X104600500Y-92600003D01*
X145644435Y-92600003D01*
X145664630Y-92779249D01*
X145664631Y-92779254D01*
X145724211Y-92949523D01*
X145820184Y-93102262D01*
X145947738Y-93229816D01*
X146100478Y-93325789D01*
X146270745Y-93385368D01*
X146270750Y-93385369D01*
X146449996Y-93405565D01*
X146450000Y-93405565D01*
X146450004Y-93405565D01*
X146629249Y-93385369D01*
X146629252Y-93385368D01*
X146629255Y-93385368D01*
X146799522Y-93325789D01*
X146952262Y-93229816D01*
X147079816Y-93102262D01*
X147175789Y-92949522D01*
X147235368Y-92779255D01*
X147235369Y-92779249D01*
X147246522Y-92680266D01*
X154123285Y-92680266D01*
X154282056Y-92735824D01*
X154449996Y-92754746D01*
X154450004Y-92754746D01*
X154617943Y-92735824D01*
X154776713Y-92680267D01*
X154776714Y-92680266D01*
X155173285Y-92680266D01*
X155332056Y-92735824D01*
X155499996Y-92754746D01*
X155500004Y-92754746D01*
X155667943Y-92735824D01*
X155826713Y-92680267D01*
X155826714Y-92680266D01*
X156223285Y-92680266D01*
X156382056Y-92735824D01*
X156549996Y-92754746D01*
X156550004Y-92754746D01*
X156717943Y-92735824D01*
X156876713Y-92680267D01*
X156876714Y-92680266D01*
X156550001Y-92353553D01*
X156550000Y-92353553D01*
X156223285Y-92680266D01*
X155826714Y-92680266D01*
X155500001Y-92353553D01*
X155500000Y-92353553D01*
X155173285Y-92680266D01*
X154776714Y-92680266D01*
X154450001Y-92353553D01*
X154450000Y-92353553D01*
X154123285Y-92680266D01*
X147246522Y-92680266D01*
X147255565Y-92600003D01*
X147255565Y-92599996D01*
X147235369Y-92420750D01*
X147235366Y-92420737D01*
X147175790Y-92250479D01*
X147169506Y-92240478D01*
X147150500Y-92174507D01*
X147150500Y-92000003D01*
X153695254Y-92000003D01*
X153714175Y-92167938D01*
X153714176Y-92167943D01*
X153769732Y-92326714D01*
X154066610Y-92029837D01*
X154300000Y-92029837D01*
X154322836Y-92084968D01*
X154365032Y-92127164D01*
X154420163Y-92150000D01*
X154479837Y-92150000D01*
X154534968Y-92127164D01*
X154577164Y-92084968D01*
X154600000Y-92029837D01*
X154600000Y-92000000D01*
X154803553Y-92000000D01*
X154975000Y-92171447D01*
X155116610Y-92029837D01*
X155350000Y-92029837D01*
X155372836Y-92084968D01*
X155415032Y-92127164D01*
X155470163Y-92150000D01*
X155529837Y-92150000D01*
X155584968Y-92127164D01*
X155627164Y-92084968D01*
X155650000Y-92029837D01*
X155650000Y-92000000D01*
X155853553Y-92000000D01*
X156025000Y-92171447D01*
X156166610Y-92029837D01*
X156400000Y-92029837D01*
X156422836Y-92084968D01*
X156465032Y-92127164D01*
X156520163Y-92150000D01*
X156579837Y-92150000D01*
X156634968Y-92127164D01*
X156677164Y-92084968D01*
X156700000Y-92029837D01*
X156700000Y-92000001D01*
X156903553Y-92000001D01*
X157230266Y-92326714D01*
X157230267Y-92326713D01*
X157285824Y-92167943D01*
X157304746Y-92000003D01*
X157304746Y-91999996D01*
X157285824Y-91832056D01*
X157230266Y-91673285D01*
X156903553Y-91999999D01*
X156903553Y-92000001D01*
X156700000Y-92000001D01*
X156700000Y-91970163D01*
X156677164Y-91915032D01*
X156634968Y-91872836D01*
X156579837Y-91850000D01*
X156520163Y-91850000D01*
X156465032Y-91872836D01*
X156422836Y-91915032D01*
X156400000Y-91970163D01*
X156400000Y-92029837D01*
X156166610Y-92029837D01*
X156196447Y-92000000D01*
X156025000Y-91828553D01*
X155853553Y-92000000D01*
X155650000Y-92000000D01*
X155650000Y-91970163D01*
X155627164Y-91915032D01*
X155584968Y-91872836D01*
X155529837Y-91850000D01*
X155470163Y-91850000D01*
X155415032Y-91872836D01*
X155372836Y-91915032D01*
X155350000Y-91970163D01*
X155350000Y-92029837D01*
X155116610Y-92029837D01*
X155146447Y-92000000D01*
X154975000Y-91828553D01*
X154803553Y-92000000D01*
X154600000Y-92000000D01*
X154600000Y-91970163D01*
X154577164Y-91915032D01*
X154534968Y-91872836D01*
X154479837Y-91850000D01*
X154420163Y-91850000D01*
X154365032Y-91872836D01*
X154322836Y-91915032D01*
X154300000Y-91970163D01*
X154300000Y-92029837D01*
X154066610Y-92029837D01*
X154096447Y-92000000D01*
X153769732Y-91673285D01*
X153714176Y-91832053D01*
X153714175Y-91832058D01*
X153695254Y-91999996D01*
X153695254Y-92000003D01*
X147150500Y-92000003D01*
X147150500Y-91475000D01*
X154278553Y-91475000D01*
X154450000Y-91646447D01*
X154621447Y-91475000D01*
X155328553Y-91475000D01*
X155500000Y-91646447D01*
X155671447Y-91475000D01*
X156378553Y-91475000D01*
X156550000Y-91646447D01*
X156721447Y-91475000D01*
X156550000Y-91303553D01*
X156378553Y-91475000D01*
X155671447Y-91475000D01*
X155500000Y-91303553D01*
X155328553Y-91475000D01*
X154621447Y-91475000D01*
X154450000Y-91303553D01*
X154278553Y-91475000D01*
X147150500Y-91475000D01*
X147150500Y-90950003D01*
X153695254Y-90950003D01*
X153714175Y-91117938D01*
X153714176Y-91117943D01*
X153769732Y-91276714D01*
X154066610Y-90979837D01*
X154300000Y-90979837D01*
X154322836Y-91034968D01*
X154365032Y-91077164D01*
X154420163Y-91100000D01*
X154479837Y-91100000D01*
X154534968Y-91077164D01*
X154577164Y-91034968D01*
X154600000Y-90979837D01*
X154600000Y-90950000D01*
X154803553Y-90950000D01*
X154975000Y-91121447D01*
X155116610Y-90979837D01*
X155350000Y-90979837D01*
X155372836Y-91034968D01*
X155415032Y-91077164D01*
X155470163Y-91100000D01*
X155529837Y-91100000D01*
X155584968Y-91077164D01*
X155627164Y-91034968D01*
X155650000Y-90979837D01*
X155650000Y-90950000D01*
X155853553Y-90950000D01*
X156025000Y-91121447D01*
X156166610Y-90979837D01*
X156400000Y-90979837D01*
X156422836Y-91034968D01*
X156465032Y-91077164D01*
X156520163Y-91100000D01*
X156579837Y-91100000D01*
X156634968Y-91077164D01*
X156677164Y-91034968D01*
X156700000Y-90979837D01*
X156700000Y-90950001D01*
X156903553Y-90950001D01*
X157230266Y-91276714D01*
X157230267Y-91276713D01*
X157285824Y-91117943D01*
X157304746Y-90950003D01*
X157304746Y-90949996D01*
X157285824Y-90782056D01*
X157230266Y-90623285D01*
X156903553Y-90949999D01*
X156903553Y-90950001D01*
X156700000Y-90950001D01*
X156700000Y-90920163D01*
X156677164Y-90865032D01*
X156634968Y-90822836D01*
X156579837Y-90800000D01*
X156520163Y-90800000D01*
X156465032Y-90822836D01*
X156422836Y-90865032D01*
X156400000Y-90920163D01*
X156400000Y-90979837D01*
X156166610Y-90979837D01*
X156196447Y-90950000D01*
X156025000Y-90778553D01*
X155853553Y-90950000D01*
X155650000Y-90950000D01*
X155650000Y-90920163D01*
X155627164Y-90865032D01*
X155584968Y-90822836D01*
X155529837Y-90800000D01*
X155470163Y-90800000D01*
X155415032Y-90822836D01*
X155372836Y-90865032D01*
X155350000Y-90920163D01*
X155350000Y-90979837D01*
X155116610Y-90979837D01*
X155146447Y-90950000D01*
X154975000Y-90778553D01*
X154803553Y-90950000D01*
X154600000Y-90950000D01*
X154600000Y-90920163D01*
X154577164Y-90865032D01*
X154534968Y-90822836D01*
X154479837Y-90800000D01*
X154420163Y-90800000D01*
X154365032Y-90822836D01*
X154322836Y-90865032D01*
X154300000Y-90920163D01*
X154300000Y-90979837D01*
X154066610Y-90979837D01*
X154096447Y-90950000D01*
X153769732Y-90623285D01*
X153714176Y-90782053D01*
X153714175Y-90782058D01*
X153695254Y-90949996D01*
X153695254Y-90950003D01*
X147150500Y-90950003D01*
X147150500Y-90425000D01*
X154278553Y-90425000D01*
X154450000Y-90596447D01*
X154621447Y-90425000D01*
X155328553Y-90425000D01*
X155500000Y-90596447D01*
X155671447Y-90425000D01*
X156378553Y-90425000D01*
X156550000Y-90596447D01*
X156721447Y-90425000D01*
X156550000Y-90253553D01*
X156378553Y-90425000D01*
X155671447Y-90425000D01*
X155500000Y-90253553D01*
X155328553Y-90425000D01*
X154621447Y-90425000D01*
X154450000Y-90253553D01*
X154278553Y-90425000D01*
X147150500Y-90425000D01*
X147150500Y-89900003D01*
X153695254Y-89900003D01*
X153714175Y-90067938D01*
X153714176Y-90067943D01*
X153769732Y-90226714D01*
X154066610Y-89929837D01*
X154300000Y-89929837D01*
X154322836Y-89984968D01*
X154365032Y-90027164D01*
X154420163Y-90050000D01*
X154479837Y-90050000D01*
X154534968Y-90027164D01*
X154577164Y-89984968D01*
X154600000Y-89929837D01*
X154600000Y-89900000D01*
X154803553Y-89900000D01*
X154975000Y-90071447D01*
X155116610Y-89929837D01*
X155350000Y-89929837D01*
X155372836Y-89984968D01*
X155415032Y-90027164D01*
X155470163Y-90050000D01*
X155529837Y-90050000D01*
X155584968Y-90027164D01*
X155627164Y-89984968D01*
X155650000Y-89929837D01*
X155650000Y-89900000D01*
X155853553Y-89900000D01*
X156025000Y-90071447D01*
X156166610Y-89929837D01*
X156400000Y-89929837D01*
X156422836Y-89984968D01*
X156465032Y-90027164D01*
X156520163Y-90050000D01*
X156579837Y-90050000D01*
X156634968Y-90027164D01*
X156677164Y-89984968D01*
X156700000Y-89929837D01*
X156700000Y-89900001D01*
X156903553Y-89900001D01*
X157230266Y-90226714D01*
X157230267Y-90226713D01*
X157285824Y-90067943D01*
X157304746Y-89900003D01*
X157304746Y-89899996D01*
X157285824Y-89732056D01*
X157230266Y-89573285D01*
X156903553Y-89899999D01*
X156903553Y-89900001D01*
X156700000Y-89900001D01*
X156700000Y-89870163D01*
X156677164Y-89815032D01*
X156634968Y-89772836D01*
X156579837Y-89750000D01*
X156520163Y-89750000D01*
X156465032Y-89772836D01*
X156422836Y-89815032D01*
X156400000Y-89870163D01*
X156400000Y-89929837D01*
X156166610Y-89929837D01*
X156196447Y-89900000D01*
X156025000Y-89728553D01*
X155853553Y-89900000D01*
X155650000Y-89900000D01*
X155650000Y-89870163D01*
X155627164Y-89815032D01*
X155584968Y-89772836D01*
X155529837Y-89750000D01*
X155470163Y-89750000D01*
X155415032Y-89772836D01*
X155372836Y-89815032D01*
X155350000Y-89870163D01*
X155350000Y-89929837D01*
X155116610Y-89929837D01*
X155146447Y-89900000D01*
X154975000Y-89728553D01*
X154803553Y-89900000D01*
X154600000Y-89900000D01*
X154600000Y-89870163D01*
X154577164Y-89815032D01*
X154534968Y-89772836D01*
X154479837Y-89750000D01*
X154420163Y-89750000D01*
X154365032Y-89772836D01*
X154322836Y-89815032D01*
X154300000Y-89870163D01*
X154300000Y-89929837D01*
X154066610Y-89929837D01*
X154096447Y-89900000D01*
X153769732Y-89573285D01*
X153714176Y-89732053D01*
X153714175Y-89732058D01*
X153695254Y-89899996D01*
X153695254Y-89900003D01*
X147150500Y-89900003D01*
X147150500Y-89219732D01*
X154123285Y-89219732D01*
X154450000Y-89546447D01*
X154450001Y-89546447D01*
X154776714Y-89219732D01*
X155173285Y-89219732D01*
X155500000Y-89546447D01*
X155500001Y-89546447D01*
X155826714Y-89219732D01*
X156223285Y-89219732D01*
X156550000Y-89546447D01*
X156550001Y-89546447D01*
X156876714Y-89219732D01*
X156717943Y-89164176D01*
X156717938Y-89164175D01*
X156550004Y-89145254D01*
X156549996Y-89145254D01*
X156382058Y-89164175D01*
X156382053Y-89164176D01*
X156223285Y-89219732D01*
X155826714Y-89219732D01*
X155667943Y-89164176D01*
X155667938Y-89164175D01*
X155500004Y-89145254D01*
X155499996Y-89145254D01*
X155332058Y-89164175D01*
X155332053Y-89164176D01*
X155173285Y-89219732D01*
X154776714Y-89219732D01*
X154617943Y-89164176D01*
X154617938Y-89164175D01*
X154450004Y-89145254D01*
X154449996Y-89145254D01*
X154282058Y-89164175D01*
X154282053Y-89164176D01*
X154123285Y-89219732D01*
X147150500Y-89219732D01*
X147150500Y-88425493D01*
X147169508Y-88359519D01*
X147175787Y-88349525D01*
X147175786Y-88349525D01*
X147175789Y-88349522D01*
X147235368Y-88179255D01*
X147255565Y-88000000D01*
X147235368Y-87820745D01*
X147175789Y-87650478D01*
X147079816Y-87497738D01*
X146952262Y-87370184D01*
X146799523Y-87274211D01*
X146629254Y-87214631D01*
X146629249Y-87214630D01*
X146450004Y-87194435D01*
X146449996Y-87194435D01*
X146270750Y-87214630D01*
X146270745Y-87214631D01*
X146100476Y-87274211D01*
X145947737Y-87370184D01*
X145820184Y-87497737D01*
X145724211Y-87650476D01*
X145664631Y-87820745D01*
X145664630Y-87820750D01*
X145644435Y-87999996D01*
X145644435Y-88000003D01*
X145664630Y-88179249D01*
X145664631Y-88179254D01*
X145724212Y-88349525D01*
X145730492Y-88359519D01*
X145749500Y-88425493D01*
X145749500Y-92174507D01*
X145730494Y-92240478D01*
X145724209Y-92250479D01*
X145664633Y-92420737D01*
X145664630Y-92420750D01*
X145644435Y-92599996D01*
X145644435Y-92600003D01*
X104600500Y-92600003D01*
X104600500Y-84795004D01*
X211044592Y-84795004D01*
X211064196Y-85056620D01*
X211064197Y-85056625D01*
X211122576Y-85312402D01*
X211122578Y-85312411D01*
X211122580Y-85312416D01*
X211218432Y-85556643D01*
X211349614Y-85783857D01*
X211418905Y-85870745D01*
X211513198Y-85988985D01*
X211694753Y-86157441D01*
X211705521Y-86167433D01*
X211922296Y-86315228D01*
X211922301Y-86315230D01*
X211922302Y-86315231D01*
X211922303Y-86315232D01*
X211993508Y-86349522D01*
X212158673Y-86429061D01*
X212158674Y-86429061D01*
X212158677Y-86429063D01*
X212409385Y-86506396D01*
X212668818Y-86545500D01*
X212931182Y-86545500D01*
X213190615Y-86506396D01*
X213441323Y-86429063D01*
X213677704Y-86315228D01*
X213894479Y-86167433D01*
X214052566Y-86020750D01*
X214086801Y-85988985D01*
X214086801Y-85988983D01*
X214086805Y-85988981D01*
X214237512Y-85800000D01*
X215750000Y-85800000D01*
X215750000Y-95500000D01*
X229750000Y-95500000D01*
X229750000Y-85800000D01*
X215750000Y-85800000D01*
X214237512Y-85800000D01*
X214250386Y-85783857D01*
X214381568Y-85556643D01*
X214477420Y-85312416D01*
X214535802Y-85056630D01*
X214550790Y-84856625D01*
X214555408Y-84795004D01*
X214555408Y-84794995D01*
X214535803Y-84533379D01*
X214535802Y-84533374D01*
X214535802Y-84533370D01*
X214477420Y-84277584D01*
X214381568Y-84033357D01*
X214250386Y-83806143D01*
X214086805Y-83601019D01*
X214086804Y-83601018D01*
X214086801Y-83601014D01*
X213894479Y-83422567D01*
X213677704Y-83274772D01*
X213677700Y-83274770D01*
X213677697Y-83274768D01*
X213677696Y-83274767D01*
X213441325Y-83160938D01*
X213441327Y-83160938D01*
X213190623Y-83083606D01*
X213190619Y-83083605D01*
X213190615Y-83083604D01*
X213065823Y-83064794D01*
X212931187Y-83044500D01*
X212931182Y-83044500D01*
X212668818Y-83044500D01*
X212668812Y-83044500D01*
X212507247Y-83068853D01*
X212409385Y-83083604D01*
X212409382Y-83083605D01*
X212409376Y-83083606D01*
X212158673Y-83160938D01*
X211922303Y-83274767D01*
X211922302Y-83274768D01*
X211705520Y-83422567D01*
X211513198Y-83601014D01*
X211349614Y-83806143D01*
X211218432Y-84033356D01*
X211122582Y-84277578D01*
X211122576Y-84277597D01*
X211064197Y-84533374D01*
X211064196Y-84533379D01*
X211044592Y-84794995D01*
X211044592Y-84795004D01*
X104600500Y-84795004D01*
X104600500Y-84782412D01*
X104620185Y-84715373D01*
X104627555Y-84705097D01*
X104629810Y-84702267D01*
X104629816Y-84702262D01*
X104725789Y-84549522D01*
X104785368Y-84379255D01*
X104790537Y-84333379D01*
X104805565Y-84200003D01*
X104805565Y-84199996D01*
X104785369Y-84020750D01*
X104785368Y-84020745D01*
X104725788Y-83850476D01*
X104629815Y-83697737D01*
X104502262Y-83570184D01*
X104349523Y-83474211D01*
X104179254Y-83414631D01*
X104179249Y-83414630D01*
X104000004Y-83394435D01*
X103999996Y-83394435D01*
X103820750Y-83414630D01*
X103820745Y-83414631D01*
X103650476Y-83474211D01*
X103497737Y-83570184D01*
X103370184Y-83697737D01*
X103274211Y-83850476D01*
X103214631Y-84020745D01*
X103214630Y-84020750D01*
X103194435Y-84199996D01*
X103194435Y-84200003D01*
X103214630Y-84379249D01*
X103214631Y-84379254D01*
X103274211Y-84549523D01*
X103370185Y-84702263D01*
X103372445Y-84705097D01*
X103373334Y-84707275D01*
X103373889Y-84708158D01*
X103373734Y-84708255D01*
X103398855Y-84769783D01*
X103399500Y-84782412D01*
X103399500Y-96317587D01*
X103379815Y-96384626D01*
X103372450Y-96394896D01*
X103370186Y-96397734D01*
X103274211Y-96550476D01*
X103214631Y-96720745D01*
X103214630Y-96720750D01*
X103194435Y-96899996D01*
X103194435Y-96900003D01*
X62000000Y-96900003D01*
X62000000Y-85800000D01*
X73250000Y-85800000D01*
X73250000Y-95500000D01*
X87250000Y-95500000D01*
X87250000Y-90750005D01*
X89794357Y-90750005D01*
X89814890Y-90997812D01*
X89814892Y-90997824D01*
X89875936Y-91238881D01*
X89975826Y-91466606D01*
X90111833Y-91674782D01*
X90111836Y-91674785D01*
X90280256Y-91857738D01*
X90476491Y-92010474D01*
X90695190Y-92128828D01*
X90930386Y-92209571D01*
X91175665Y-92250500D01*
X91424335Y-92250500D01*
X91669614Y-92209571D01*
X91904810Y-92128828D01*
X92123509Y-92010474D01*
X92319744Y-91857738D01*
X92488164Y-91674785D01*
X92624173Y-91466607D01*
X92724063Y-91238881D01*
X92785108Y-90997821D01*
X92786598Y-90979837D01*
X92805643Y-90750005D01*
X99794357Y-90750005D01*
X99814890Y-90997812D01*
X99814892Y-90997824D01*
X99875936Y-91238881D01*
X99975826Y-91466606D01*
X100111833Y-91674782D01*
X100111836Y-91674785D01*
X100280256Y-91857738D01*
X100476491Y-92010474D01*
X100695190Y-92128828D01*
X100930386Y-92209571D01*
X101175665Y-92250500D01*
X101424335Y-92250500D01*
X101669614Y-92209571D01*
X101904810Y-92128828D01*
X102123509Y-92010474D01*
X102319744Y-91857738D01*
X102488164Y-91674785D01*
X102624173Y-91466607D01*
X102724063Y-91238881D01*
X102785108Y-90997821D01*
X102786598Y-90979837D01*
X102805643Y-90750005D01*
X102805643Y-90749994D01*
X102785109Y-90502187D01*
X102785107Y-90502175D01*
X102724063Y-90261118D01*
X102624173Y-90033393D01*
X102488166Y-89825217D01*
X102439946Y-89772836D01*
X102319744Y-89642262D01*
X102123509Y-89489526D01*
X102123507Y-89489525D01*
X102123506Y-89489524D01*
X101904811Y-89371172D01*
X101904802Y-89371169D01*
X101669616Y-89290429D01*
X101424335Y-89249500D01*
X101175665Y-89249500D01*
X100930383Y-89290429D01*
X100695197Y-89371169D01*
X100695188Y-89371172D01*
X100476493Y-89489524D01*
X100280257Y-89642261D01*
X100111833Y-89825217D01*
X99975826Y-90033393D01*
X99875936Y-90261118D01*
X99814892Y-90502175D01*
X99814890Y-90502187D01*
X99794357Y-90749994D01*
X99794357Y-90750005D01*
X92805643Y-90750005D01*
X92805643Y-90749994D01*
X92785109Y-90502187D01*
X92785107Y-90502175D01*
X92724063Y-90261118D01*
X92624173Y-90033393D01*
X92488166Y-89825217D01*
X92439946Y-89772836D01*
X92319744Y-89642262D01*
X92123509Y-89489526D01*
X92123507Y-89489525D01*
X92123506Y-89489524D01*
X91904811Y-89371172D01*
X91904802Y-89371169D01*
X91669616Y-89290429D01*
X91424335Y-89249500D01*
X91175665Y-89249500D01*
X90930383Y-89290429D01*
X90695197Y-89371169D01*
X90695188Y-89371172D01*
X90476493Y-89489524D01*
X90280257Y-89642261D01*
X90111833Y-89825217D01*
X89975826Y-90033393D01*
X89875936Y-90261118D01*
X89814892Y-90502175D01*
X89814890Y-90502187D01*
X89794357Y-90749994D01*
X89794357Y-90750005D01*
X87250000Y-90750005D01*
X87250000Y-85800000D01*
X73250000Y-85800000D01*
X62000000Y-85800000D01*
X62000000Y-84595004D01*
X89094592Y-84595004D01*
X89114196Y-84856620D01*
X89114197Y-84856625D01*
X89172576Y-85112402D01*
X89172578Y-85112411D01*
X89172580Y-85112416D01*
X89268432Y-85356643D01*
X89399614Y-85583857D01*
X89490431Y-85697738D01*
X89563198Y-85788985D01*
X89651321Y-85870750D01*
X89755521Y-85967433D01*
X89972296Y-86115228D01*
X89972301Y-86115230D01*
X89972302Y-86115231D01*
X89972303Y-86115232D01*
X90080699Y-86167432D01*
X90208673Y-86229061D01*
X90208674Y-86229061D01*
X90208677Y-86229063D01*
X90459385Y-86306396D01*
X90718818Y-86345500D01*
X90981182Y-86345500D01*
X91240615Y-86306396D01*
X91491323Y-86229063D01*
X91678111Y-86139110D01*
X91727696Y-86115232D01*
X91727696Y-86115231D01*
X91727704Y-86115228D01*
X91944479Y-85967433D01*
X92103176Y-85820184D01*
X92136801Y-85788985D01*
X92136801Y-85788983D01*
X92136805Y-85788981D01*
X92300386Y-85583857D01*
X92431568Y-85356643D01*
X92527420Y-85112416D01*
X92585802Y-84856630D01*
X92590420Y-84795004D01*
X92605408Y-84595004D01*
X92605408Y-84594995D01*
X92585803Y-84333379D01*
X92585802Y-84333374D01*
X92585802Y-84333370D01*
X92527420Y-84077584D01*
X92431568Y-83833357D01*
X92300386Y-83606143D01*
X92136805Y-83401019D01*
X92136804Y-83401018D01*
X92136801Y-83401014D01*
X91944479Y-83222567D01*
X91854086Y-83160938D01*
X91727704Y-83074772D01*
X91727700Y-83074770D01*
X91727697Y-83074768D01*
X91727696Y-83074767D01*
X91491325Y-82960938D01*
X91491327Y-82960938D01*
X91240623Y-82883606D01*
X91240619Y-82883605D01*
X91240615Y-82883604D01*
X91115823Y-82864794D01*
X90981187Y-82844500D01*
X90981182Y-82844500D01*
X90718818Y-82844500D01*
X90718812Y-82844500D01*
X90557247Y-82868853D01*
X90459385Y-82883604D01*
X90459382Y-82883605D01*
X90459376Y-82883606D01*
X90208673Y-82960938D01*
X89972303Y-83074767D01*
X89972302Y-83074768D01*
X89755520Y-83222567D01*
X89563198Y-83401014D01*
X89399614Y-83606143D01*
X89268432Y-83833356D01*
X89172582Y-84077578D01*
X89172576Y-84077597D01*
X89114197Y-84333374D01*
X89114196Y-84333379D01*
X89094592Y-84594995D01*
X89094592Y-84595004D01*
X62000000Y-84595004D01*
X62000000Y-70200003D01*
X179544435Y-70200003D01*
X179564630Y-70379249D01*
X179564631Y-70379254D01*
X179624211Y-70549523D01*
X179720184Y-70702262D01*
X179847738Y-70829816D01*
X180000478Y-70925789D01*
X180143367Y-70975788D01*
X180170745Y-70985368D01*
X180170750Y-70985369D01*
X180349996Y-71005565D01*
X180350000Y-71005565D01*
X180350004Y-71005565D01*
X180529249Y-70985369D01*
X180529251Y-70985368D01*
X180529255Y-70985368D01*
X180529258Y-70985366D01*
X180529262Y-70985366D01*
X180595840Y-70962068D01*
X180699522Y-70925789D01*
X180709028Y-70919815D01*
X180776263Y-70900815D01*
X180840971Y-70919815D01*
X180850478Y-70925789D01*
X180902318Y-70943928D01*
X181020737Y-70985366D01*
X181020743Y-70985367D01*
X181020745Y-70985368D01*
X181020746Y-70985368D01*
X181020750Y-70985369D01*
X181199996Y-71005565D01*
X181200000Y-71005565D01*
X181200004Y-71005565D01*
X181379249Y-70985369D01*
X181379252Y-70985368D01*
X181379255Y-70985368D01*
X181549522Y-70925789D01*
X181594242Y-70897688D01*
X181661475Y-70878689D01*
X181726183Y-70897689D01*
X181731158Y-70900815D01*
X181850475Y-70975788D01*
X182020745Y-71035368D01*
X182020750Y-71035369D01*
X182199996Y-71055565D01*
X182200000Y-71055565D01*
X182200004Y-71055565D01*
X182379249Y-71035369D01*
X182379252Y-71035368D01*
X182379255Y-71035368D01*
X182549522Y-70975789D01*
X182702262Y-70879816D01*
X182829816Y-70752262D01*
X182925789Y-70599522D01*
X182985368Y-70429255D01*
X182991002Y-70379254D01*
X183005565Y-70250003D01*
X183005565Y-70249996D01*
X182985369Y-70070750D01*
X182985368Y-70070745D01*
X182925788Y-69900476D01*
X182829813Y-69747734D01*
X182827550Y-69744896D01*
X182826659Y-69742715D01*
X182826111Y-69741842D01*
X182826264Y-69741745D01*
X182801144Y-69680209D01*
X182800500Y-69667587D01*
X182800500Y-64982412D01*
X182820185Y-64915373D01*
X182827555Y-64905097D01*
X182829810Y-64902267D01*
X182829816Y-64902262D01*
X182925789Y-64749522D01*
X182985368Y-64579255D01*
X182985369Y-64579249D01*
X183005565Y-64400003D01*
X183005565Y-64399996D01*
X182985369Y-64220750D01*
X182985368Y-64220745D01*
X182937998Y-64085369D01*
X182925789Y-64050478D01*
X182916295Y-64035369D01*
X182829815Y-63897737D01*
X182702262Y-63770184D01*
X182549523Y-63674211D01*
X182379254Y-63614631D01*
X182379250Y-63614630D01*
X182280434Y-63603497D01*
X182216020Y-63576431D01*
X182176465Y-63518836D01*
X182174328Y-63448999D01*
X182206635Y-63392598D01*
X183880519Y-61718716D01*
X183939078Y-61660157D01*
X183939088Y-61660145D01*
X184462417Y-61136819D01*
X184523740Y-61103334D01*
X184550098Y-61100500D01*
X189113331Y-61100500D01*
X189113347Y-61100501D01*
X189120943Y-61100501D01*
X189279054Y-61100501D01*
X189279057Y-61100501D01*
X189431785Y-61059577D01*
X189481904Y-61030639D01*
X189568716Y-60980520D01*
X189680520Y-60868716D01*
X189680520Y-60868714D01*
X189690728Y-60858507D01*
X189690730Y-60858504D01*
X191568713Y-58980521D01*
X191568716Y-58980520D01*
X191680520Y-58868716D01*
X191730639Y-58781904D01*
X191759577Y-58731785D01*
X191800500Y-58579057D01*
X191800500Y-58420943D01*
X191800500Y-57766915D01*
X191820185Y-57699876D01*
X191872989Y-57654121D01*
X191877112Y-57652424D01*
X191878688Y-57651642D01*
X191878693Y-57651641D01*
X192049296Y-57567030D01*
X192197722Y-57447722D01*
X192317030Y-57299296D01*
X192401641Y-57128693D01*
X192447600Y-56943889D01*
X192449483Y-56916108D01*
X192473658Y-56850557D01*
X192529436Y-56808479D01*
X192573199Y-56800500D01*
X192667588Y-56800500D01*
X192734627Y-56820185D01*
X192744903Y-56827555D01*
X192747736Y-56829814D01*
X192747738Y-56829816D01*
X192855834Y-56897737D01*
X192896817Y-56923489D01*
X192900478Y-56925789D01*
X193070739Y-56985366D01*
X193070745Y-56985368D01*
X193070750Y-56985369D01*
X193249996Y-57005565D01*
X193250000Y-57005565D01*
X193250004Y-57005565D01*
X193429249Y-56985369D01*
X193429252Y-56985368D01*
X193429255Y-56985368D01*
X193599522Y-56925789D01*
X193752262Y-56829816D01*
X193879816Y-56702262D01*
X193975789Y-56549522D01*
X194035368Y-56379255D01*
X194038065Y-56355318D01*
X194055565Y-56200003D01*
X194055565Y-56199996D01*
X194035369Y-56020750D01*
X194035368Y-56020745D01*
X193975788Y-55850476D01*
X193879815Y-55697737D01*
X193752262Y-55570184D01*
X193599523Y-55474211D01*
X193429254Y-55414631D01*
X193429249Y-55414630D01*
X193250004Y-55394435D01*
X193249996Y-55394435D01*
X193070750Y-55414630D01*
X193070745Y-55414631D01*
X192900476Y-55474211D01*
X192747736Y-55570185D01*
X192744903Y-55572445D01*
X192742724Y-55573334D01*
X192741842Y-55573889D01*
X192741744Y-55573734D01*
X192680217Y-55598855D01*
X192667588Y-55599500D01*
X192574499Y-55599500D01*
X192507460Y-55579815D01*
X192461705Y-55527011D01*
X192450499Y-55475500D01*
X192450499Y-54498877D01*
X192450498Y-54498876D01*
X192447600Y-54456111D01*
X192412508Y-54315004D01*
X211044592Y-54315004D01*
X211064196Y-54576620D01*
X211064197Y-54576625D01*
X211122576Y-54832402D01*
X211122578Y-54832411D01*
X211122580Y-54832416D01*
X211218432Y-55076643D01*
X211349614Y-55303857D01*
X211437954Y-55414632D01*
X211513198Y-55508985D01*
X211668499Y-55653082D01*
X211705521Y-55687433D01*
X211922296Y-55835228D01*
X211922301Y-55835230D01*
X211922302Y-55835231D01*
X211922303Y-55835232D01*
X212047843Y-55895688D01*
X212158673Y-55949061D01*
X212158674Y-55949061D01*
X212158677Y-55949063D01*
X212409385Y-56026396D01*
X212668818Y-56065500D01*
X212931182Y-56065500D01*
X213190615Y-56026396D01*
X213441323Y-55949063D01*
X213677704Y-55835228D01*
X213894479Y-55687433D01*
X214086805Y-55508981D01*
X214250386Y-55303857D01*
X214381568Y-55076643D01*
X214477420Y-54832416D01*
X214535802Y-54576630D01*
X214535803Y-54576620D01*
X214555408Y-54315004D01*
X214555408Y-54314995D01*
X214535803Y-54053379D01*
X214535802Y-54053374D01*
X214535802Y-54053370D01*
X214477420Y-53797584D01*
X214381568Y-53553357D01*
X214250386Y-53326143D01*
X214086805Y-53121019D01*
X214086804Y-53121018D01*
X214086801Y-53121014D01*
X213894479Y-52942567D01*
X213862874Y-52921019D01*
X213677704Y-52794772D01*
X213677700Y-52794770D01*
X213677697Y-52794768D01*
X213677696Y-52794767D01*
X213441325Y-52680938D01*
X213441327Y-52680938D01*
X213190623Y-52603606D01*
X213190619Y-52603605D01*
X213190615Y-52603604D01*
X213065823Y-52584794D01*
X212931187Y-52564500D01*
X212931182Y-52564500D01*
X212668818Y-52564500D01*
X212668812Y-52564500D01*
X212507247Y-52588853D01*
X212409385Y-52603604D01*
X212409382Y-52603605D01*
X212409376Y-52603606D01*
X212158673Y-52680938D01*
X211922303Y-52794767D01*
X211922302Y-52794768D01*
X211705520Y-52942567D01*
X211513198Y-53121014D01*
X211349614Y-53326143D01*
X211218432Y-53553356D01*
X211122582Y-53797578D01*
X211122576Y-53797597D01*
X211064197Y-54053374D01*
X211064196Y-54053379D01*
X211044592Y-54314995D01*
X211044592Y-54315004D01*
X192412508Y-54315004D01*
X192401641Y-54271307D01*
X192364639Y-54196699D01*
X192317032Y-54100707D01*
X192317030Y-54100704D01*
X192197722Y-53952278D01*
X192197721Y-53952277D01*
X192049295Y-53832969D01*
X192049292Y-53832967D01*
X191878697Y-53748360D01*
X191693892Y-53702400D01*
X191672506Y-53700950D01*
X191651123Y-53699500D01*
X191651120Y-53699500D01*
X190748877Y-53699500D01*
X190748874Y-53699501D01*
X190706113Y-53702399D01*
X190706112Y-53702399D01*
X190521303Y-53748360D01*
X190350707Y-53832967D01*
X190350704Y-53832969D01*
X190202278Y-53952277D01*
X190202277Y-53952278D01*
X190082970Y-54100703D01*
X190060809Y-54145387D01*
X190013387Y-54196699D01*
X189945752Y-54214227D01*
X189879377Y-54192407D01*
X189838632Y-54145385D01*
X189816605Y-54100972D01*
X189697367Y-53952633D01*
X189697366Y-53952632D01*
X189549025Y-53833392D01*
X189549022Y-53833390D01*
X189378523Y-53748831D01*
X189193824Y-53702897D01*
X189151097Y-53700000D01*
X188248903Y-53700000D01*
X188206175Y-53702897D01*
X188021476Y-53748831D01*
X187850977Y-53833390D01*
X187850974Y-53833392D01*
X187702633Y-53952632D01*
X187702632Y-53952633D01*
X187583393Y-54100973D01*
X187561366Y-54145387D01*
X187513944Y-54196699D01*
X187446309Y-54214227D01*
X187379934Y-54192407D01*
X187339190Y-54145385D01*
X187317032Y-54100707D01*
X187317030Y-54100704D01*
X187197722Y-53952278D01*
X187197721Y-53952277D01*
X187049295Y-53832969D01*
X187049292Y-53832967D01*
X186878697Y-53748360D01*
X186693892Y-53702400D01*
X186672506Y-53700950D01*
X186651123Y-53699500D01*
X186651120Y-53699500D01*
X185748877Y-53699500D01*
X185748874Y-53699501D01*
X185706113Y-53702399D01*
X185706112Y-53702399D01*
X185521303Y-53748360D01*
X185350707Y-53832967D01*
X185350704Y-53832969D01*
X185202278Y-53952277D01*
X185202277Y-53952278D01*
X185082969Y-54100704D01*
X185082967Y-54100707D01*
X184998360Y-54271302D01*
X184952400Y-54456107D01*
X184949500Y-54498879D01*
X184949500Y-55351928D01*
X184929815Y-55418967D01*
X184877011Y-55464722D01*
X184807853Y-55474666D01*
X184784546Y-55468970D01*
X184629257Y-55414632D01*
X184629249Y-55414630D01*
X184450004Y-55394435D01*
X184449996Y-55394435D01*
X184270750Y-55414630D01*
X184270745Y-55414631D01*
X184100476Y-55474211D01*
X183947737Y-55570184D01*
X183820184Y-55697737D01*
X183724211Y-55850476D01*
X183664631Y-56020745D01*
X183664630Y-56020750D01*
X183644435Y-56199996D01*
X183644435Y-56200003D01*
X183664630Y-56379249D01*
X183664631Y-56379254D01*
X183724211Y-56549523D01*
X183765122Y-56614632D01*
X183820184Y-56702262D01*
X183947738Y-56829816D01*
X183950498Y-56831550D01*
X184096817Y-56923489D01*
X184100478Y-56925789D01*
X184270739Y-56985366D01*
X184270745Y-56985368D01*
X184270750Y-56985369D01*
X184449996Y-57005565D01*
X184450000Y-57005565D01*
X184450004Y-57005565D01*
X184629249Y-56985369D01*
X184629251Y-56985368D01*
X184629255Y-56985368D01*
X184629258Y-56985366D01*
X184629262Y-56985366D01*
X184806095Y-56923489D01*
X184807006Y-56926095D01*
X184863594Y-56916763D01*
X184927735Y-56944470D01*
X184966715Y-57002456D01*
X184968818Y-57009912D01*
X184998357Y-57128689D01*
X184998360Y-57128696D01*
X185082967Y-57299292D01*
X185082969Y-57299295D01*
X185202277Y-57447721D01*
X185202278Y-57447722D01*
X185350704Y-57567030D01*
X185350707Y-57567032D01*
X185521302Y-57651639D01*
X185521303Y-57651639D01*
X185521307Y-57651641D01*
X185706111Y-57697600D01*
X185748877Y-57700500D01*
X186651122Y-57700499D01*
X186693889Y-57697600D01*
X186878693Y-57651641D01*
X187049296Y-57567030D01*
X187197722Y-57447722D01*
X187317030Y-57299296D01*
X187339190Y-57254613D01*
X187386610Y-57203302D01*
X187454244Y-57185771D01*
X187520620Y-57207590D01*
X187561366Y-57254613D01*
X187583392Y-57299025D01*
X187702632Y-57447366D01*
X187702633Y-57447367D01*
X187850974Y-57566607D01*
X187850977Y-57566609D01*
X188021476Y-57651168D01*
X188206175Y-57697102D01*
X188248903Y-57700000D01*
X189151097Y-57700000D01*
X189193824Y-57697102D01*
X189378523Y-57651168D01*
X189549022Y-57566609D01*
X189549025Y-57566607D01*
X189697366Y-57447367D01*
X189697367Y-57447366D01*
X189816607Y-57299025D01*
X189838632Y-57254615D01*
X189886052Y-57203302D01*
X189953687Y-57185771D01*
X190020063Y-57207590D01*
X190060809Y-57254613D01*
X190082969Y-57299295D01*
X190202277Y-57447721D01*
X190202278Y-57447722D01*
X190350704Y-57567030D01*
X190350707Y-57567032D01*
X190527330Y-57654628D01*
X190526381Y-57656539D01*
X190574397Y-57692113D01*
X190599139Y-57757456D01*
X190599500Y-57766915D01*
X190599500Y-58199903D01*
X190579815Y-58266942D01*
X190563181Y-58287584D01*
X188987584Y-59863181D01*
X188926261Y-59896666D01*
X188899903Y-59899500D01*
X184336670Y-59899500D01*
X184336654Y-59899499D01*
X184329058Y-59899499D01*
X184170943Y-59899499D01*
X184101099Y-59918214D01*
X184018214Y-59940423D01*
X184018209Y-59940426D01*
X183881290Y-60019475D01*
X183881282Y-60019481D01*
X183031284Y-60869481D01*
X180831286Y-63069478D01*
X180831279Y-63069483D01*
X180831280Y-63069484D01*
X180811674Y-63089088D01*
X180750349Y-63122570D01*
X180683043Y-63118444D01*
X180529257Y-63064632D01*
X180529249Y-63064630D01*
X180350004Y-63044435D01*
X180349996Y-63044435D01*
X180170750Y-63064630D01*
X180170745Y-63064631D01*
X180000476Y-63124211D01*
X179847737Y-63220184D01*
X179720184Y-63347737D01*
X179624211Y-63500476D01*
X179564631Y-63670745D01*
X179564630Y-63670750D01*
X179544435Y-63849996D01*
X179544435Y-63850003D01*
X179564630Y-64029249D01*
X179564631Y-64029254D01*
X179624211Y-64199523D01*
X179720185Y-64352263D01*
X179722445Y-64355097D01*
X179723334Y-64357275D01*
X179723889Y-64358158D01*
X179723734Y-64358255D01*
X179748855Y-64419783D01*
X179749500Y-64432412D01*
X179749500Y-69617587D01*
X179729815Y-69684626D01*
X179722450Y-69694896D01*
X179720186Y-69697734D01*
X179624211Y-69850476D01*
X179564631Y-70020745D01*
X179564630Y-70020750D01*
X179544435Y-70199996D01*
X179544435Y-70200003D01*
X62000000Y-70200003D01*
X62000000Y-66750005D01*
X136194357Y-66750005D01*
X136214890Y-66997812D01*
X136214892Y-66997824D01*
X136275936Y-67238881D01*
X136375826Y-67466606D01*
X136511833Y-67674782D01*
X136511836Y-67674785D01*
X136680256Y-67857738D01*
X136876491Y-68010474D01*
X137095190Y-68128828D01*
X137330386Y-68209571D01*
X137575665Y-68250500D01*
X137824335Y-68250500D01*
X138069614Y-68209571D01*
X138304810Y-68128828D01*
X138523509Y-68010474D01*
X138719744Y-67857738D01*
X138818924Y-67750000D01*
X154894785Y-67750000D01*
X154913602Y-67953082D01*
X154969417Y-68149247D01*
X154969422Y-68149260D01*
X155060327Y-68331821D01*
X155183237Y-68494581D01*
X155333958Y-68631980D01*
X155333960Y-68631982D01*
X155433141Y-68693392D01*
X155507363Y-68739348D01*
X155697544Y-68813024D01*
X155898024Y-68850500D01*
X155898026Y-68850500D01*
X156101974Y-68850500D01*
X156101976Y-68850500D01*
X156302456Y-68813024D01*
X156492637Y-68739348D01*
X156666041Y-68631981D01*
X156816764Y-68494579D01*
X156939673Y-68331821D01*
X157030582Y-68149250D01*
X157086397Y-67953083D01*
X157105215Y-67750000D01*
X157098245Y-67674785D01*
X157086397Y-67546917D01*
X157030582Y-67350750D01*
X156939673Y-67168179D01*
X156816764Y-67005421D01*
X156740961Y-66936317D01*
X156704680Y-66876605D01*
X156700500Y-66844680D01*
X156700500Y-66750005D01*
X163194357Y-66750005D01*
X163214890Y-66997812D01*
X163214892Y-66997824D01*
X163275936Y-67238881D01*
X163375826Y-67466606D01*
X163511833Y-67674782D01*
X163511836Y-67674785D01*
X163680256Y-67857738D01*
X163876491Y-68010474D01*
X164095190Y-68128828D01*
X164330386Y-68209571D01*
X164575665Y-68250500D01*
X164824335Y-68250500D01*
X165069614Y-68209571D01*
X165304810Y-68128828D01*
X165523509Y-68010474D01*
X165719744Y-67857738D01*
X165888164Y-67674785D01*
X166024173Y-67466607D01*
X166124063Y-67238881D01*
X166185108Y-66997821D01*
X166185109Y-66997812D01*
X166205643Y-66750005D01*
X166205643Y-66749994D01*
X166185109Y-66502187D01*
X166185107Y-66502175D01*
X166124063Y-66261118D01*
X166024173Y-66033393D01*
X165888166Y-65825217D01*
X165772214Y-65699260D01*
X165719744Y-65642262D01*
X165523509Y-65489526D01*
X165523507Y-65489525D01*
X165523506Y-65489524D01*
X165304811Y-65371172D01*
X165304802Y-65371169D01*
X165069616Y-65290429D01*
X164824335Y-65249500D01*
X164575665Y-65249500D01*
X164330383Y-65290429D01*
X164095197Y-65371169D01*
X164095188Y-65371172D01*
X163876493Y-65489524D01*
X163680257Y-65642261D01*
X163511833Y-65825217D01*
X163375826Y-66033393D01*
X163275936Y-66261118D01*
X163214892Y-66502175D01*
X163214890Y-66502187D01*
X163194357Y-66749994D01*
X163194357Y-66750005D01*
X156700500Y-66750005D01*
X156700500Y-57400003D01*
X164994435Y-57400003D01*
X165014630Y-57579249D01*
X165014631Y-57579254D01*
X165074211Y-57749523D01*
X165134283Y-57845126D01*
X165170184Y-57902262D01*
X165297738Y-58029816D01*
X165450478Y-58125789D01*
X165620745Y-58185368D01*
X165707669Y-58195161D01*
X165772080Y-58222226D01*
X165781465Y-58230700D01*
X168263181Y-60712416D01*
X168296666Y-60773739D01*
X168299500Y-60800097D01*
X168299500Y-62667587D01*
X168279815Y-62734626D01*
X168272450Y-62744896D01*
X168270186Y-62747734D01*
X168174211Y-62900476D01*
X168114631Y-63070745D01*
X168114630Y-63070750D01*
X168094435Y-63249996D01*
X168094435Y-63250003D01*
X168114630Y-63429249D01*
X168114631Y-63429254D01*
X168174211Y-63599523D01*
X168221141Y-63674211D01*
X168270184Y-63752262D01*
X168397738Y-63879816D01*
X168550478Y-63975789D01*
X168693367Y-64025788D01*
X168720745Y-64035368D01*
X168720750Y-64035369D01*
X168899996Y-64055565D01*
X168900000Y-64055565D01*
X168900004Y-64055565D01*
X169079249Y-64035369D01*
X169079252Y-64035368D01*
X169079255Y-64035368D01*
X169249522Y-63975789D01*
X169402262Y-63879816D01*
X169529816Y-63752262D01*
X169625789Y-63599522D01*
X169685368Y-63429255D01*
X169685759Y-63425788D01*
X169705565Y-63250003D01*
X169705565Y-63249996D01*
X169685369Y-63070750D01*
X169685368Y-63070745D01*
X169625788Y-62900476D01*
X169561233Y-62797738D01*
X169529816Y-62747738D01*
X169529814Y-62747736D01*
X169529813Y-62747734D01*
X169527550Y-62744896D01*
X169526659Y-62742715D01*
X169526111Y-62741842D01*
X169526264Y-62741745D01*
X169501144Y-62680209D01*
X169500500Y-62667587D01*
X169500500Y-60589059D01*
X169500501Y-60589046D01*
X169500501Y-60420945D01*
X169500501Y-60420943D01*
X169459577Y-60268215D01*
X169430639Y-60218095D01*
X169380520Y-60131284D01*
X169268716Y-60019480D01*
X169268715Y-60019479D01*
X169264385Y-60015149D01*
X169264374Y-60015139D01*
X167468457Y-58219222D01*
X167434972Y-58157899D01*
X167439956Y-58088207D01*
X167481828Y-58032274D01*
X167547292Y-58007857D01*
X167615565Y-58022709D01*
X167622108Y-58026545D01*
X167700478Y-58075789D01*
X167870745Y-58135368D01*
X167957669Y-58145161D01*
X168022080Y-58172226D01*
X168031465Y-58180700D01*
X170213181Y-60362416D01*
X170246666Y-60423739D01*
X170249500Y-60450097D01*
X170249500Y-62717587D01*
X170229815Y-62784626D01*
X170222450Y-62794896D01*
X170220186Y-62797734D01*
X170124211Y-62950476D01*
X170064631Y-63120745D01*
X170064630Y-63120750D01*
X170044435Y-63299996D01*
X170044435Y-63300003D01*
X170064630Y-63479249D01*
X170064631Y-63479254D01*
X170124211Y-63649523D01*
X170137546Y-63670745D01*
X170220184Y-63802262D01*
X170347738Y-63929816D01*
X170500478Y-64025789D01*
X170585573Y-64055565D01*
X170670745Y-64085368D01*
X170670750Y-64085369D01*
X170849996Y-64105565D01*
X170850000Y-64105565D01*
X170850004Y-64105565D01*
X171029249Y-64085369D01*
X171029252Y-64085368D01*
X171029255Y-64085368D01*
X171199522Y-64025789D01*
X171352262Y-63929816D01*
X171479816Y-63802262D01*
X171575789Y-63649522D01*
X171635368Y-63479255D01*
X171641002Y-63429254D01*
X171655565Y-63300003D01*
X171655565Y-63299996D01*
X171635369Y-63120750D01*
X171635368Y-63120745D01*
X171615733Y-63064631D01*
X171575789Y-62950478D01*
X171479816Y-62797738D01*
X171479814Y-62797736D01*
X171479813Y-62797734D01*
X171477550Y-62794896D01*
X171476659Y-62792715D01*
X171476111Y-62791842D01*
X171476264Y-62791745D01*
X171451144Y-62730209D01*
X171450500Y-62717587D01*
X171450500Y-60239059D01*
X171450501Y-60239046D01*
X171450501Y-60070945D01*
X171450501Y-60070943D01*
X171409577Y-59918215D01*
X171380639Y-59868095D01*
X171330520Y-59781284D01*
X171218716Y-59669480D01*
X171218715Y-59669479D01*
X171214385Y-59665149D01*
X171214374Y-59665139D01*
X168880700Y-57331465D01*
X168847215Y-57270142D01*
X168845163Y-57257686D01*
X168835368Y-57170745D01*
X168775789Y-57000478D01*
X168679816Y-56847738D01*
X168552262Y-56720184D01*
X168399523Y-56624211D01*
X168229254Y-56564631D01*
X168229249Y-56564630D01*
X168050004Y-56544435D01*
X168049996Y-56544435D01*
X167870750Y-56564630D01*
X167870745Y-56564631D01*
X167700476Y-56624211D01*
X167547737Y-56720184D01*
X167420184Y-56847737D01*
X167324211Y-57000476D01*
X167264631Y-57170745D01*
X167264630Y-57170750D01*
X167244435Y-57349996D01*
X167244435Y-57350003D01*
X167264630Y-57529249D01*
X167264631Y-57529254D01*
X167324211Y-57699523D01*
X167373452Y-57777889D01*
X167392452Y-57845126D01*
X167372084Y-57911961D01*
X167318816Y-57957175D01*
X167249560Y-57966412D01*
X167186304Y-57936741D01*
X167180777Y-57931542D01*
X166630700Y-57381465D01*
X166597215Y-57320142D01*
X166595163Y-57307686D01*
X166585368Y-57220745D01*
X166525789Y-57050478D01*
X166429816Y-56897738D01*
X166302262Y-56770184D01*
X166149523Y-56674211D01*
X165979254Y-56614631D01*
X165979249Y-56614630D01*
X165800004Y-56594435D01*
X165799996Y-56594435D01*
X165620750Y-56614630D01*
X165620745Y-56614631D01*
X165450476Y-56674211D01*
X165297737Y-56770184D01*
X165170184Y-56897737D01*
X165074211Y-57050476D01*
X165014631Y-57220745D01*
X165014630Y-57220750D01*
X164994435Y-57399996D01*
X164994435Y-57400003D01*
X156700500Y-57400003D01*
X156700500Y-55605318D01*
X156720185Y-55538279D01*
X156740957Y-55513685D01*
X156816764Y-55444579D01*
X156939673Y-55281821D01*
X157030582Y-55099250D01*
X157086397Y-54903083D01*
X157105215Y-54700000D01*
X157086397Y-54496917D01*
X157030582Y-54300750D01*
X157015921Y-54271307D01*
X156953220Y-54145385D01*
X156939673Y-54118179D01*
X156816764Y-53955421D01*
X156816762Y-53955418D01*
X156666041Y-53818019D01*
X156666039Y-53818017D01*
X156492642Y-53710655D01*
X156492635Y-53710651D01*
X156397546Y-53673814D01*
X156302456Y-53636976D01*
X156101976Y-53599500D01*
X155898024Y-53599500D01*
X155697544Y-53636976D01*
X155697541Y-53636976D01*
X155697541Y-53636977D01*
X155507364Y-53710651D01*
X155507357Y-53710655D01*
X155333960Y-53818017D01*
X155333958Y-53818019D01*
X155183237Y-53955418D01*
X155060327Y-54118178D01*
X154969422Y-54300739D01*
X154969417Y-54300752D01*
X154913602Y-54496917D01*
X154894785Y-54699999D01*
X154894785Y-54700000D01*
X154913602Y-54903082D01*
X154969417Y-55099247D01*
X154969422Y-55099260D01*
X155042947Y-55246917D01*
X155060327Y-55281821D01*
X155183236Y-55444579D01*
X155259039Y-55513682D01*
X155295319Y-55573391D01*
X155299500Y-55605318D01*
X155299500Y-66844680D01*
X155279815Y-66911719D01*
X155259039Y-66936317D01*
X155183235Y-67005421D01*
X155060327Y-67168178D01*
X154969422Y-67350739D01*
X154969417Y-67350752D01*
X154913602Y-67546917D01*
X154894785Y-67749999D01*
X154894785Y-67750000D01*
X138818924Y-67750000D01*
X138888164Y-67674785D01*
X139024173Y-67466607D01*
X139124063Y-67238881D01*
X139185108Y-66997821D01*
X139185109Y-66997812D01*
X139205643Y-66750005D01*
X139205643Y-66749994D01*
X139185109Y-66502187D01*
X139185107Y-66502175D01*
X139124063Y-66261118D01*
X139024173Y-66033393D01*
X138888166Y-65825217D01*
X138772214Y-65699260D01*
X138719744Y-65642262D01*
X138523509Y-65489526D01*
X138523507Y-65489525D01*
X138523506Y-65489524D01*
X138304811Y-65371172D01*
X138304802Y-65371169D01*
X138069616Y-65290429D01*
X137824335Y-65249500D01*
X137575665Y-65249500D01*
X137330383Y-65290429D01*
X137095197Y-65371169D01*
X137095188Y-65371172D01*
X136876493Y-65489524D01*
X136680257Y-65642261D01*
X136511833Y-65825217D01*
X136375826Y-66033393D01*
X136275936Y-66261118D01*
X136214892Y-66502175D01*
X136214890Y-66502187D01*
X136194357Y-66749994D01*
X136194357Y-66750005D01*
X62000000Y-66750005D01*
X62000000Y-63250003D01*
X103194435Y-63250003D01*
X103214630Y-63429249D01*
X103214631Y-63429254D01*
X103274211Y-63599523D01*
X103321141Y-63674211D01*
X103370184Y-63752262D01*
X103497738Y-63879816D01*
X103650478Y-63975789D01*
X103793367Y-64025788D01*
X103820745Y-64035368D01*
X103820750Y-64035369D01*
X103999996Y-64055565D01*
X104000000Y-64055565D01*
X104000004Y-64055565D01*
X104179249Y-64035369D01*
X104179252Y-64035368D01*
X104179255Y-64035368D01*
X104349522Y-63975789D01*
X104502262Y-63879816D01*
X104629816Y-63752262D01*
X104725789Y-63599522D01*
X104785368Y-63429255D01*
X104785759Y-63425788D01*
X104805565Y-63250003D01*
X104805565Y-63249996D01*
X104785369Y-63070750D01*
X104785368Y-63070745D01*
X104725788Y-62900476D01*
X104661233Y-62797738D01*
X104629816Y-62747738D01*
X104629814Y-62747736D01*
X104629813Y-62747734D01*
X104627550Y-62744896D01*
X104626659Y-62742715D01*
X104626111Y-62741842D01*
X104626264Y-62741745D01*
X104601144Y-62680209D01*
X104600500Y-62667587D01*
X104600500Y-58000003D01*
X120994435Y-58000003D01*
X121014630Y-58179249D01*
X121014631Y-58179254D01*
X121074211Y-58349523D01*
X121170185Y-58502263D01*
X121172445Y-58505097D01*
X121173334Y-58507275D01*
X121173889Y-58508158D01*
X121173734Y-58508255D01*
X121198855Y-58569783D01*
X121199500Y-58582412D01*
X121199500Y-61913330D01*
X121199499Y-61913348D01*
X121199499Y-62079054D01*
X121199498Y-62079054D01*
X121240423Y-62231786D01*
X121240424Y-62231787D01*
X121259871Y-62265470D01*
X121308950Y-62350478D01*
X121319481Y-62368717D01*
X121438349Y-62487585D01*
X121438355Y-62487590D01*
X121669298Y-62718533D01*
X121702783Y-62779856D01*
X121704837Y-62792330D01*
X121714630Y-62879249D01*
X121774210Y-63049521D01*
X121820110Y-63122570D01*
X121870184Y-63202262D01*
X121997738Y-63329816D01*
X122150478Y-63425789D01*
X122303258Y-63479249D01*
X122320745Y-63485368D01*
X122320750Y-63485369D01*
X122499996Y-63505565D01*
X122500000Y-63505565D01*
X122500004Y-63505565D01*
X122679249Y-63485369D01*
X122679252Y-63485368D01*
X122679255Y-63485368D01*
X122849522Y-63425789D01*
X123002262Y-63329816D01*
X123129816Y-63202262D01*
X123225789Y-63049522D01*
X123285368Y-62879255D01*
X123296030Y-62784626D01*
X123305565Y-62700003D01*
X123305565Y-62699996D01*
X123285369Y-62520750D01*
X123285368Y-62520745D01*
X123232171Y-62368717D01*
X123225789Y-62350478D01*
X123129816Y-62197738D01*
X123002262Y-62070184D01*
X122849521Y-61974210D01*
X122679249Y-61914630D01*
X122592330Y-61904837D01*
X122527916Y-61877770D01*
X122518533Y-61869298D01*
X122436819Y-61787584D01*
X122403334Y-61726261D01*
X122400500Y-61699903D01*
X122400500Y-58582412D01*
X122420185Y-58515373D01*
X122427555Y-58505097D01*
X122429810Y-58502267D01*
X122429816Y-58502262D01*
X122525789Y-58349522D01*
X122585368Y-58179255D01*
X122586160Y-58172226D01*
X122605565Y-58000003D01*
X122605565Y-57999996D01*
X122585369Y-57820750D01*
X122585368Y-57820745D01*
X122543074Y-57699876D01*
X122525789Y-57650478D01*
X122429816Y-57497738D01*
X122302262Y-57370184D01*
X122270144Y-57350003D01*
X122149523Y-57274211D01*
X121979254Y-57214631D01*
X121979249Y-57214630D01*
X121800004Y-57194435D01*
X121799996Y-57194435D01*
X121620750Y-57214630D01*
X121620745Y-57214631D01*
X121450476Y-57274211D01*
X121297737Y-57370184D01*
X121170184Y-57497737D01*
X121074211Y-57650476D01*
X121014631Y-57820745D01*
X121014630Y-57820750D01*
X120994435Y-57999996D01*
X120994435Y-58000003D01*
X104600500Y-58000003D01*
X104600500Y-57482412D01*
X104620185Y-57415373D01*
X104627555Y-57405097D01*
X104629810Y-57402267D01*
X104629816Y-57402262D01*
X104725789Y-57249522D01*
X104785368Y-57079255D01*
X104785369Y-57079249D01*
X104805565Y-56900003D01*
X104805565Y-56899996D01*
X104785369Y-56720750D01*
X104785368Y-56720745D01*
X104785172Y-56720184D01*
X104725789Y-56550478D01*
X104725188Y-56549522D01*
X104629815Y-56397737D01*
X104502262Y-56270184D01*
X104349523Y-56174211D01*
X104179254Y-56114631D01*
X104179249Y-56114630D01*
X104000004Y-56094435D01*
X103999996Y-56094435D01*
X103820750Y-56114630D01*
X103820745Y-56114631D01*
X103650476Y-56174211D01*
X103497737Y-56270184D01*
X103370184Y-56397737D01*
X103274211Y-56550476D01*
X103214631Y-56720745D01*
X103214630Y-56720750D01*
X103194435Y-56899996D01*
X103194435Y-56900003D01*
X103214630Y-57079249D01*
X103214631Y-57079254D01*
X103274211Y-57249523D01*
X103325699Y-57331465D01*
X103368760Y-57399996D01*
X103370185Y-57402263D01*
X103372445Y-57405097D01*
X103373334Y-57407275D01*
X103373889Y-57408158D01*
X103373734Y-57408255D01*
X103398855Y-57469783D01*
X103399500Y-57482412D01*
X103399500Y-62667587D01*
X103379815Y-62734626D01*
X103372450Y-62744896D01*
X103370186Y-62747734D01*
X103274211Y-62900476D01*
X103214631Y-63070745D01*
X103214630Y-63070750D01*
X103194435Y-63249996D01*
X103194435Y-63250003D01*
X62000000Y-63250003D01*
X62000000Y-54115004D01*
X89094592Y-54115004D01*
X89114196Y-54376620D01*
X89114197Y-54376625D01*
X89114197Y-54376629D01*
X89114198Y-54376630D01*
X89116560Y-54386977D01*
X89172576Y-54632402D01*
X89172578Y-54632411D01*
X89172580Y-54632416D01*
X89268432Y-54876643D01*
X89399614Y-55103857D01*
X89513701Y-55246917D01*
X89563198Y-55308985D01*
X89715178Y-55450000D01*
X89755521Y-55487433D01*
X89972296Y-55635228D01*
X89972301Y-55635230D01*
X89972302Y-55635231D01*
X89972303Y-55635232D01*
X90080699Y-55687432D01*
X90208673Y-55749061D01*
X90208674Y-55749061D01*
X90208677Y-55749063D01*
X90459385Y-55826396D01*
X90718818Y-55865500D01*
X90981182Y-55865500D01*
X91240615Y-55826396D01*
X91491323Y-55749063D01*
X91727704Y-55635228D01*
X91944479Y-55487433D01*
X91984822Y-55450000D01*
X148394785Y-55450000D01*
X148413602Y-55653082D01*
X148469417Y-55849247D01*
X148469422Y-55849260D01*
X148554812Y-56020745D01*
X148560327Y-56031821D01*
X148683236Y-56194579D01*
X148759039Y-56263682D01*
X148795319Y-56323391D01*
X148799500Y-56355318D01*
X148799500Y-61531006D01*
X148799500Y-61668994D01*
X148799500Y-61668996D01*
X148799499Y-61668996D01*
X148826418Y-61804322D01*
X148826421Y-61804332D01*
X148879222Y-61931807D01*
X148955887Y-62046545D01*
X148955888Y-62046546D01*
X152063338Y-65153995D01*
X152096823Y-65215318D01*
X152099128Y-65253114D01*
X152094785Y-65299995D01*
X152094785Y-65300000D01*
X152113602Y-65503082D01*
X152169417Y-65699247D01*
X152169422Y-65699260D01*
X152260327Y-65881821D01*
X152383237Y-66044581D01*
X152533958Y-66181980D01*
X152533960Y-66181982D01*
X152633141Y-66243392D01*
X152707363Y-66289348D01*
X152897544Y-66363024D01*
X153098024Y-66400500D01*
X153098026Y-66400500D01*
X153301974Y-66400500D01*
X153301976Y-66400500D01*
X153502456Y-66363024D01*
X153692637Y-66289348D01*
X153866041Y-66181981D01*
X154016764Y-66044579D01*
X154139673Y-65881821D01*
X154230582Y-65699250D01*
X154286397Y-65503083D01*
X154305215Y-65300000D01*
X154300870Y-65253114D01*
X154286397Y-65096917D01*
X154239353Y-64931578D01*
X154230582Y-64900750D01*
X154139673Y-64718179D01*
X154016764Y-64555421D01*
X154016762Y-64555418D01*
X153866041Y-64418019D01*
X153866039Y-64418017D01*
X153692642Y-64310655D01*
X153692635Y-64310651D01*
X153597546Y-64273814D01*
X153502456Y-64236976D01*
X153301976Y-64199500D01*
X153141519Y-64199500D01*
X153074480Y-64179815D01*
X153053838Y-64163181D01*
X150236819Y-61346162D01*
X150203334Y-61284839D01*
X150200500Y-61258481D01*
X150200500Y-56355318D01*
X150220185Y-56288279D01*
X150240957Y-56263685D01*
X150316764Y-56194579D01*
X150439673Y-56031821D01*
X150530582Y-55849250D01*
X150586397Y-55653083D01*
X150605215Y-55450000D01*
X150604712Y-55444577D01*
X150586397Y-55246917D01*
X150544384Y-55099260D01*
X150530582Y-55050750D01*
X150439673Y-54868179D01*
X150316764Y-54705421D01*
X150316762Y-54705418D01*
X150166041Y-54568019D01*
X150166039Y-54568017D01*
X149992642Y-54460655D01*
X149992635Y-54460651D01*
X149897546Y-54423814D01*
X149802456Y-54386976D01*
X149601976Y-54349500D01*
X149398024Y-54349500D01*
X149197544Y-54386976D01*
X149197541Y-54386976D01*
X149197541Y-54386977D01*
X149007364Y-54460651D01*
X149007357Y-54460655D01*
X148833960Y-54568017D01*
X148833958Y-54568019D01*
X148683237Y-54705418D01*
X148560327Y-54868178D01*
X148469422Y-55050739D01*
X148469417Y-55050752D01*
X148413602Y-55246917D01*
X148394785Y-55449999D01*
X148394785Y-55450000D01*
X91984822Y-55450000D01*
X92136805Y-55308981D01*
X92300386Y-55103857D01*
X92431568Y-54876643D01*
X92527420Y-54632416D01*
X92585802Y-54376630D01*
X92590420Y-54315004D01*
X92605408Y-54115004D01*
X92605408Y-54114995D01*
X92585803Y-53853379D01*
X92585802Y-53853374D01*
X92585802Y-53853370D01*
X92527420Y-53597584D01*
X92431568Y-53353357D01*
X92300386Y-53126143D01*
X92136805Y-52921019D01*
X92136804Y-52921018D01*
X92136801Y-52921014D01*
X91944479Y-52742567D01*
X91854086Y-52680938D01*
X91727704Y-52594772D01*
X91727700Y-52594770D01*
X91727697Y-52594768D01*
X91727696Y-52594767D01*
X91491325Y-52480938D01*
X91491327Y-52480938D01*
X91240623Y-52403606D01*
X91240619Y-52403605D01*
X91240615Y-52403604D01*
X91115823Y-52384794D01*
X90981187Y-52364500D01*
X90981182Y-52364500D01*
X90718818Y-52364500D01*
X90718812Y-52364500D01*
X90557247Y-52388853D01*
X90459385Y-52403604D01*
X90459382Y-52403605D01*
X90459376Y-52403606D01*
X90208673Y-52480938D01*
X89972303Y-52594767D01*
X89972302Y-52594768D01*
X89755520Y-52742567D01*
X89563198Y-52921014D01*
X89399614Y-53126143D01*
X89268432Y-53353356D01*
X89172582Y-53597578D01*
X89172576Y-53597597D01*
X89114197Y-53853374D01*
X89114196Y-53853379D01*
X89094592Y-54114995D01*
X89094592Y-54115004D01*
X62000000Y-54115004D01*
X62000000Y-50279056D01*
X178099500Y-50279056D01*
X178140423Y-50431783D01*
X178140426Y-50431790D01*
X178219475Y-50568709D01*
X178219479Y-50568714D01*
X178219480Y-50568716D01*
X178331284Y-50680520D01*
X178331286Y-50680521D01*
X178331290Y-50680524D01*
X178468209Y-50759573D01*
X178468216Y-50759577D01*
X178620943Y-50800500D01*
X178620945Y-50800500D01*
X198779055Y-50800500D01*
X198779057Y-50800500D01*
X198931784Y-50759577D01*
X199068716Y-50680520D01*
X199180520Y-50568716D01*
X199259577Y-50431784D01*
X199300500Y-50279057D01*
X199300500Y-49370943D01*
X199300500Y-46870943D01*
X199300500Y-46120943D01*
X199259577Y-45968216D01*
X199237407Y-45929816D01*
X199180524Y-45831290D01*
X199180518Y-45831282D01*
X199068717Y-45719481D01*
X199068709Y-45719475D01*
X198931790Y-45640426D01*
X198931786Y-45640424D01*
X198931784Y-45640423D01*
X198779057Y-45599500D01*
X178779057Y-45599500D01*
X178620943Y-45599500D01*
X178468216Y-45640423D01*
X178468209Y-45640426D01*
X178331290Y-45719475D01*
X178331282Y-45719481D01*
X178219481Y-45831282D01*
X178219475Y-45831290D01*
X178140426Y-45968209D01*
X178140423Y-45968216D01*
X178099500Y-46120943D01*
X178099500Y-50279056D01*
X62000000Y-50279056D01*
X62000000Y-46900005D01*
X120294357Y-46900005D01*
X120314890Y-47147812D01*
X120314892Y-47147824D01*
X120375936Y-47388881D01*
X120475826Y-47616606D01*
X120611833Y-47824782D01*
X120611836Y-47824785D01*
X120780256Y-48007738D01*
X120976491Y-48160474D01*
X121195190Y-48278828D01*
X121430386Y-48359571D01*
X121675665Y-48400500D01*
X121924335Y-48400500D01*
X122169614Y-48359571D01*
X122404810Y-48278828D01*
X122623509Y-48160474D01*
X122819744Y-48007738D01*
X122988164Y-47824785D01*
X123124173Y-47616607D01*
X123224063Y-47388881D01*
X123285108Y-47147821D01*
X123305643Y-46900000D01*
X123303235Y-46870943D01*
X123285109Y-46652187D01*
X123285107Y-46652175D01*
X123224063Y-46411118D01*
X123124173Y-46183393D01*
X122988166Y-45975217D01*
X122946370Y-45929815D01*
X122819744Y-45792262D01*
X122623509Y-45639526D01*
X122623507Y-45639525D01*
X122623506Y-45639524D01*
X122404811Y-45521172D01*
X122404802Y-45521169D01*
X122169616Y-45440429D01*
X121924335Y-45399500D01*
X121675665Y-45399500D01*
X121430383Y-45440429D01*
X121195197Y-45521169D01*
X121195188Y-45521172D01*
X120976493Y-45639524D01*
X120780257Y-45792261D01*
X120611833Y-45975217D01*
X120475826Y-46183393D01*
X120375936Y-46411118D01*
X120314892Y-46652175D01*
X120314890Y-46652187D01*
X120294357Y-46899994D01*
X120294357Y-46900005D01*
X62000000Y-46900005D01*
X62000000Y-43425015D01*
X98299500Y-43425015D01*
X98310000Y-43527795D01*
X98310001Y-43527796D01*
X98365186Y-43694335D01*
X98365187Y-43694337D01*
X98457286Y-43843651D01*
X98457289Y-43843655D01*
X98581344Y-43967710D01*
X98581348Y-43967713D01*
X98730662Y-44059812D01*
X98730664Y-44059813D01*
X98730666Y-44059814D01*
X98827004Y-44091737D01*
X98884449Y-44131509D01*
X98911272Y-44196025D01*
X98912000Y-44209443D01*
X98912000Y-44704560D01*
X98892315Y-44771599D01*
X98875681Y-44792241D01*
X98870184Y-44797737D01*
X98774211Y-44950476D01*
X98714631Y-45120745D01*
X98714630Y-45120750D01*
X98694435Y-45299996D01*
X98694435Y-45300003D01*
X98714630Y-45479249D01*
X98714631Y-45479254D01*
X98774211Y-45649523D01*
X98818169Y-45719481D01*
X98870184Y-45802262D01*
X98997738Y-45929816D01*
X99150478Y-46025789D01*
X99320745Y-46085368D01*
X99320750Y-46085369D01*
X99499996Y-46105565D01*
X99500000Y-46105565D01*
X99500004Y-46105565D01*
X99679249Y-46085369D01*
X99679252Y-46085368D01*
X99679255Y-46085368D01*
X99849522Y-46025789D01*
X100002262Y-45929816D01*
X100129816Y-45802262D01*
X100225789Y-45649522D01*
X100285368Y-45479255D01*
X100305565Y-45300000D01*
X100285368Y-45120745D01*
X100225789Y-44950478D01*
X100132006Y-44801223D01*
X100113000Y-44735251D01*
X100113000Y-44209443D01*
X100132685Y-44142404D01*
X100185489Y-44096649D01*
X100197990Y-44091738D01*
X100294334Y-44059814D01*
X100443655Y-43967711D01*
X100567711Y-43843655D01*
X100659814Y-43694334D01*
X100714999Y-43527797D01*
X100725500Y-43425008D01*
X100725500Y-43000000D01*
X101275000Y-43000000D01*
X101275000Y-43424985D01*
X101285493Y-43527689D01*
X101285494Y-43527696D01*
X101340641Y-43694118D01*
X101340643Y-43694123D01*
X101432684Y-43843344D01*
X101556655Y-43967315D01*
X101705876Y-44059356D01*
X101705881Y-44059358D01*
X101872303Y-44114505D01*
X101872310Y-44114506D01*
X101975014Y-44124999D01*
X101975027Y-44125000D01*
X102237500Y-44125000D01*
X102237500Y-43000000D01*
X102737500Y-43000000D01*
X102737500Y-44125000D01*
X102999973Y-44125000D01*
X102999985Y-44124999D01*
X103102689Y-44114506D01*
X103102696Y-44114505D01*
X103269118Y-44059358D01*
X103269123Y-44059356D01*
X103418344Y-43967315D01*
X103542315Y-43843344D01*
X103634356Y-43694123D01*
X103634358Y-43694118D01*
X103689505Y-43527696D01*
X103689506Y-43527689D01*
X103699999Y-43424985D01*
X103700000Y-43424972D01*
X103700000Y-43000000D01*
X102737500Y-43000000D01*
X102237500Y-43000000D01*
X101275000Y-43000000D01*
X100725500Y-43000000D01*
X100725500Y-42950005D01*
X120294859Y-42950005D01*
X120315385Y-43197729D01*
X120315387Y-43197738D01*
X120376412Y-43438717D01*
X120476266Y-43666364D01*
X120576564Y-43819882D01*
X121317037Y-43079409D01*
X121334075Y-43142993D01*
X121399901Y-43257007D01*
X121492993Y-43350099D01*
X121607007Y-43415925D01*
X121670590Y-43432962D01*
X120929942Y-44173609D01*
X120976768Y-44210055D01*
X120976770Y-44210056D01*
X121195385Y-44328364D01*
X121195396Y-44328369D01*
X121430506Y-44409083D01*
X121675707Y-44450000D01*
X121924293Y-44450000D01*
X122169493Y-44409083D01*
X122404603Y-44328369D01*
X122404614Y-44328364D01*
X122623228Y-44210057D01*
X122623231Y-44210055D01*
X122670056Y-44173609D01*
X121929409Y-43432962D01*
X121992993Y-43415925D01*
X122107007Y-43350099D01*
X122200099Y-43257007D01*
X122265925Y-43142993D01*
X122282962Y-43079410D01*
X123023434Y-43819882D01*
X123123731Y-43666369D01*
X123223587Y-43438717D01*
X123284612Y-43197738D01*
X123284614Y-43197729D01*
X123305141Y-42950005D01*
X123305141Y-42949994D01*
X123284614Y-42702270D01*
X123284612Y-42702261D01*
X123223587Y-42461282D01*
X123123731Y-42233630D01*
X123023434Y-42080116D01*
X122282962Y-42820589D01*
X122265925Y-42757007D01*
X122200099Y-42642993D01*
X122107007Y-42549901D01*
X121992993Y-42484075D01*
X121929410Y-42467037D01*
X122670057Y-41726390D01*
X122670056Y-41726389D01*
X122623229Y-41689943D01*
X122404614Y-41571635D01*
X122404603Y-41571630D01*
X122169493Y-41490916D01*
X121924293Y-41450000D01*
X121675707Y-41450000D01*
X121430506Y-41490916D01*
X121195396Y-41571630D01*
X121195390Y-41571632D01*
X120976761Y-41689949D01*
X120929942Y-41726388D01*
X120929942Y-41726390D01*
X121670590Y-42467037D01*
X121607007Y-42484075D01*
X121492993Y-42549901D01*
X121399901Y-42642993D01*
X121334075Y-42757007D01*
X121317037Y-42820589D01*
X120576564Y-42080116D01*
X120476267Y-42233632D01*
X120376412Y-42461282D01*
X120315387Y-42702261D01*
X120315385Y-42702270D01*
X120294859Y-42949994D01*
X120294859Y-42950005D01*
X100725500Y-42950005D01*
X100725500Y-42500000D01*
X101275000Y-42500000D01*
X102237500Y-42500000D01*
X102237500Y-41375000D01*
X102737500Y-41375000D01*
X102737500Y-42500000D01*
X103700000Y-42500000D01*
X103700000Y-42075027D01*
X103699999Y-42075014D01*
X103689506Y-41972310D01*
X103689505Y-41972303D01*
X103634358Y-41805881D01*
X103634356Y-41805876D01*
X103542315Y-41656655D01*
X103418344Y-41532684D01*
X103269123Y-41440643D01*
X103269118Y-41440641D01*
X103102696Y-41385494D01*
X103102689Y-41385493D01*
X102999985Y-41375000D01*
X102737500Y-41375000D01*
X102237500Y-41375000D01*
X101975014Y-41375000D01*
X101872310Y-41385493D01*
X101872303Y-41385494D01*
X101705881Y-41440641D01*
X101705876Y-41440643D01*
X101556655Y-41532684D01*
X101432684Y-41656655D01*
X101340643Y-41805876D01*
X101340641Y-41805881D01*
X101285494Y-41972303D01*
X101285493Y-41972310D01*
X101275000Y-42075014D01*
X101275000Y-42500000D01*
X100725500Y-42500000D01*
X100725500Y-42074992D01*
X100714999Y-41972203D01*
X100659814Y-41805666D01*
X100610914Y-41726388D01*
X100567713Y-41656348D01*
X100567710Y-41656344D01*
X100443655Y-41532289D01*
X100443651Y-41532286D01*
X100294337Y-41440187D01*
X100294335Y-41440186D01*
X100211065Y-41412593D01*
X100127797Y-41385001D01*
X100127795Y-41385000D01*
X100025015Y-41374500D01*
X100025008Y-41374500D01*
X98999992Y-41374500D01*
X98999984Y-41374500D01*
X98897204Y-41385000D01*
X98897203Y-41385001D01*
X98730664Y-41440186D01*
X98730662Y-41440187D01*
X98581348Y-41532286D01*
X98581344Y-41532289D01*
X98457289Y-41656344D01*
X98457286Y-41656348D01*
X98365187Y-41805662D01*
X98365186Y-41805664D01*
X98310001Y-41972203D01*
X98310000Y-41972204D01*
X98299500Y-42074984D01*
X98299500Y-43425015D01*
X62000000Y-43425015D01*
X62000000Y-39323514D01*
X62019685Y-39256475D01*
X62072489Y-39210720D01*
X62123509Y-39199515D01*
X136240100Y-38909024D01*
X136307214Y-38928446D01*
X136353176Y-38981070D01*
X136363390Y-39050189D01*
X136354140Y-39082833D01*
X136275936Y-39261118D01*
X136214892Y-39502175D01*
X136214890Y-39502187D01*
X136194357Y-39749994D01*
X136194357Y-39750005D01*
X136214890Y-39997812D01*
X136214892Y-39997824D01*
X136275936Y-40238881D01*
X136375826Y-40466606D01*
X136511833Y-40674782D01*
X136511836Y-40674785D01*
X136680256Y-40857738D01*
X136876491Y-41010474D01*
X137095190Y-41128828D01*
X137330386Y-41209571D01*
X137575665Y-41250500D01*
X137824335Y-41250500D01*
X138069614Y-41209571D01*
X138304810Y-41128828D01*
X138523509Y-41010474D01*
X138719744Y-40857738D01*
X138888164Y-40674785D01*
X139024173Y-40466607D01*
X139124063Y-40238881D01*
X139185108Y-39997821D01*
X139185109Y-39997812D01*
X139205643Y-39750005D01*
X139205643Y-39749994D01*
X139185109Y-39502187D01*
X139185107Y-39502175D01*
X139124063Y-39261118D01*
X139040850Y-39071412D01*
X139031947Y-39002112D01*
X139061924Y-38939000D01*
X139121263Y-38902113D01*
X139153911Y-38897604D01*
X146301211Y-38869591D01*
X146368319Y-38889011D01*
X146414281Y-38941635D01*
X146424495Y-39010754D01*
X146403265Y-39064710D01*
X146362899Y-39122359D01*
X146362898Y-39122361D01*
X146270426Y-39320668D01*
X146270422Y-39320677D01*
X146213793Y-39532020D01*
X146213793Y-39532024D01*
X146194723Y-39749997D01*
X146194723Y-39750002D01*
X146213793Y-39967975D01*
X146213793Y-39967979D01*
X146270422Y-40179322D01*
X146270424Y-40179326D01*
X146270425Y-40179330D01*
X146288149Y-40217339D01*
X146362897Y-40377638D01*
X146362898Y-40377639D01*
X146488402Y-40556877D01*
X146643123Y-40711598D01*
X146822361Y-40837102D01*
X147020670Y-40929575D01*
X147232023Y-40986207D01*
X147414926Y-41002208D01*
X147449998Y-41005277D01*
X147450000Y-41005277D01*
X147450002Y-41005277D01*
X147478254Y-41002805D01*
X147667977Y-40986207D01*
X147879330Y-40929575D01*
X148077639Y-40837102D01*
X148256877Y-40711598D01*
X148411598Y-40556877D01*
X148537102Y-40377639D01*
X148587894Y-40268714D01*
X148634066Y-40216275D01*
X148701259Y-40197123D01*
X148768141Y-40217339D01*
X148812658Y-40268715D01*
X148863331Y-40377384D01*
X148863332Y-40377386D01*
X148906874Y-40439571D01*
X149467037Y-39879408D01*
X149484075Y-39942993D01*
X149549901Y-40057007D01*
X149642993Y-40150099D01*
X149757007Y-40215925D01*
X149820590Y-40232962D01*
X149260427Y-40793124D01*
X149322612Y-40836666D01*
X149520840Y-40929101D01*
X149520849Y-40929105D01*
X149732105Y-40985710D01*
X149732115Y-40985712D01*
X149949999Y-41004775D01*
X149950001Y-41004775D01*
X150167884Y-40985712D01*
X150167894Y-40985710D01*
X150379150Y-40929105D01*
X150379164Y-40929100D01*
X150577383Y-40836669D01*
X150577385Y-40836668D01*
X150639571Y-40793124D01*
X150079410Y-40232962D01*
X150142993Y-40215925D01*
X150257007Y-40150099D01*
X150350099Y-40057007D01*
X150415925Y-39942993D01*
X150432962Y-39879408D01*
X150993124Y-40439570D01*
X151036668Y-40377385D01*
X151036669Y-40377383D01*
X151087342Y-40268715D01*
X151133514Y-40216275D01*
X151200707Y-40197123D01*
X151267588Y-40217338D01*
X151312106Y-40268715D01*
X151362779Y-40377385D01*
X151362898Y-40377639D01*
X151488402Y-40556877D01*
X151643123Y-40711598D01*
X151822361Y-40837102D01*
X152020670Y-40929575D01*
X152232023Y-40986207D01*
X152414926Y-41002208D01*
X152449998Y-41005277D01*
X152450000Y-41005277D01*
X152450002Y-41005277D01*
X152478254Y-41002805D01*
X152667977Y-40986207D01*
X152879330Y-40929575D01*
X153077639Y-40837102D01*
X153256877Y-40711598D01*
X153411598Y-40556877D01*
X153537102Y-40377639D01*
X153587618Y-40269306D01*
X153633790Y-40216867D01*
X153700984Y-40197715D01*
X153767865Y-40217931D01*
X153812382Y-40269307D01*
X153862779Y-40377385D01*
X153862898Y-40377639D01*
X153988402Y-40556877D01*
X154143123Y-40711598D01*
X154322361Y-40837102D01*
X154520670Y-40929575D01*
X154732023Y-40986207D01*
X154914926Y-41002208D01*
X154949998Y-41005277D01*
X154950000Y-41005277D01*
X154950002Y-41005277D01*
X154978254Y-41002805D01*
X155167977Y-40986207D01*
X155379330Y-40929575D01*
X155577639Y-40837102D01*
X155756877Y-40711598D01*
X155911598Y-40556877D01*
X156037102Y-40377639D01*
X156129575Y-40179330D01*
X156186207Y-39967977D01*
X156205277Y-39750000D01*
X156205276Y-39749994D01*
X156199518Y-39684174D01*
X156186207Y-39532023D01*
X156151548Y-39402675D01*
X156129577Y-39320677D01*
X156129576Y-39320676D01*
X156129575Y-39320670D01*
X156037102Y-39122362D01*
X155969923Y-39026420D01*
X155947597Y-38960217D01*
X155964607Y-38892449D01*
X156015555Y-38844636D01*
X156071012Y-38831300D01*
X163296749Y-38802979D01*
X163363862Y-38822401D01*
X163409824Y-38875025D01*
X163420038Y-38944144D01*
X163401041Y-38994799D01*
X163375826Y-39033393D01*
X163275936Y-39261118D01*
X163214892Y-39502175D01*
X163214890Y-39502187D01*
X163194357Y-39749994D01*
X163194357Y-39750005D01*
X163214890Y-39997812D01*
X163214892Y-39997824D01*
X163275936Y-40238881D01*
X163375826Y-40466606D01*
X163511833Y-40674782D01*
X163511836Y-40674785D01*
X163680256Y-40857738D01*
X163876491Y-41010474D01*
X164095190Y-41128828D01*
X164330386Y-41209571D01*
X164575665Y-41250500D01*
X164824335Y-41250500D01*
X165069614Y-41209571D01*
X165304810Y-41128828D01*
X165523509Y-41010474D01*
X165719744Y-40857738D01*
X165888164Y-40674785D01*
X166024173Y-40466607D01*
X166124063Y-40238881D01*
X166185108Y-39997821D01*
X166185109Y-39997812D01*
X166205643Y-39750005D01*
X166205643Y-39749994D01*
X166185109Y-39502187D01*
X166185107Y-39502175D01*
X166124063Y-39261118D01*
X166024173Y-39033393D01*
X165991793Y-38983831D01*
X165971605Y-38916942D01*
X165990786Y-38849756D01*
X166043245Y-38803606D01*
X166095112Y-38792011D01*
X185141861Y-38717360D01*
X185208975Y-38736782D01*
X185254937Y-38789406D01*
X185265151Y-38858525D01*
X185236375Y-38922194D01*
X185220035Y-38938004D01*
X185202277Y-38952278D01*
X185082969Y-39100704D01*
X185082967Y-39100707D01*
X184998360Y-39271302D01*
X184952400Y-39456107D01*
X184949500Y-39498879D01*
X184949500Y-39816936D01*
X184929815Y-39883975D01*
X184877011Y-39929730D01*
X184807853Y-39939674D01*
X184784547Y-39933978D01*
X184729260Y-39914633D01*
X184729249Y-39914630D01*
X184550004Y-39894435D01*
X184549996Y-39894435D01*
X184370750Y-39914630D01*
X184370745Y-39914631D01*
X184200476Y-39974211D01*
X184047737Y-40070184D01*
X183920184Y-40197737D01*
X183824211Y-40350476D01*
X183764631Y-40520745D01*
X183764630Y-40520750D01*
X183744435Y-40699996D01*
X183744435Y-40700003D01*
X183764630Y-40879249D01*
X183764631Y-40879254D01*
X183824211Y-41049523D01*
X183920184Y-41202262D01*
X184047738Y-41329816D01*
X184200478Y-41425789D01*
X184370742Y-41485367D01*
X184370745Y-41485368D01*
X184370750Y-41485369D01*
X184549996Y-41505565D01*
X184550000Y-41505565D01*
X184550004Y-41505565D01*
X184729249Y-41485369D01*
X184729250Y-41485368D01*
X184729255Y-41485368D01*
X184784545Y-41466020D01*
X184854322Y-41462458D01*
X184914950Y-41497186D01*
X184947178Y-41559179D01*
X184949500Y-41583062D01*
X184949500Y-41901121D01*
X184949501Y-41901125D01*
X184952399Y-41943886D01*
X184952399Y-41943887D01*
X184998360Y-42128696D01*
X185082967Y-42299292D01*
X185082969Y-42299295D01*
X185202277Y-42447721D01*
X185202278Y-42447722D01*
X185350704Y-42567030D01*
X185350707Y-42567032D01*
X185521302Y-42651639D01*
X185521303Y-42651639D01*
X185521307Y-42651641D01*
X185706111Y-42697600D01*
X185748877Y-42700500D01*
X186651122Y-42700499D01*
X186693889Y-42697600D01*
X186878693Y-42651641D01*
X187049296Y-42567030D01*
X187197722Y-42447722D01*
X187317030Y-42299296D01*
X187359887Y-42212882D01*
X190040669Y-42212882D01*
X190083393Y-42299027D01*
X190202632Y-42447366D01*
X190202633Y-42447367D01*
X190350974Y-42566607D01*
X190350977Y-42566609D01*
X190521476Y-42651168D01*
X190706175Y-42697102D01*
X190748903Y-42700000D01*
X191651097Y-42700000D01*
X191693824Y-42697102D01*
X191878523Y-42651168D01*
X192049022Y-42566609D01*
X192049025Y-42566607D01*
X192197364Y-42447368D01*
X192316608Y-42299024D01*
X192359329Y-42212881D01*
X191200000Y-41053553D01*
X190040669Y-42212882D01*
X187359887Y-42212882D01*
X187401641Y-42128693D01*
X187447600Y-41943889D01*
X187450500Y-41901123D01*
X187450499Y-39803552D01*
X189950000Y-39803552D01*
X189950000Y-41596447D01*
X190846447Y-40700000D01*
X191553553Y-40700000D01*
X192449999Y-41596447D01*
X192450000Y-41596446D01*
X192450000Y-39803553D01*
X192449999Y-39803552D01*
X191553553Y-40699999D01*
X191553553Y-40700000D01*
X190846447Y-40700000D01*
X190846447Y-40699999D01*
X189950000Y-39803552D01*
X187450499Y-39803552D01*
X187450499Y-39498878D01*
X187447600Y-39456111D01*
X187401641Y-39271307D01*
X187359886Y-39187116D01*
X187317032Y-39100707D01*
X187317030Y-39100704D01*
X187197722Y-38952278D01*
X187197721Y-38952277D01*
X187169702Y-38929755D01*
X187129783Y-38872412D01*
X187127203Y-38802590D01*
X187162781Y-38742457D01*
X187225222Y-38711105D01*
X187246889Y-38709110D01*
X190167164Y-38697664D01*
X190234275Y-38717085D01*
X190280237Y-38769709D01*
X190290451Y-38838828D01*
X190261676Y-38902497D01*
X190245334Y-38918308D01*
X190202631Y-38952634D01*
X190083392Y-39100974D01*
X190040669Y-39187116D01*
X191200000Y-40346447D01*
X191200001Y-40346447D01*
X192359329Y-39187116D01*
X192316607Y-39100974D01*
X192197367Y-38952633D01*
X192197366Y-38952632D01*
X192144648Y-38910256D01*
X192104729Y-38852913D01*
X192102149Y-38783091D01*
X192137728Y-38722958D01*
X192200169Y-38691606D01*
X192221831Y-38689611D01*
X240475454Y-38500488D01*
X240542570Y-38519910D01*
G37*
G04 #@! TD.AperFunction*
M02*
