G04 #@! TF.GenerationSoftware,KiCad,Pcbnew,8.0.1*
G04 #@! TF.CreationDate,2024-07-09T16:40:46+03:00*
G04 #@! TF.ProjectId,UA-1_v2,55412d31-5f76-4322-9e6b-696361645f70,rev?*
G04 #@! TF.SameCoordinates,Original*
G04 #@! TF.FileFunction,Profile,NP*
%FSLAX46Y46*%
G04 Gerber Fmt 4.6, Leading zero omitted, Abs format (unit mm)*
G04 Created by KiCad (PCBNEW 8.0.1) date 2024-07-09 16:40:46*
%MOMM*%
%LPD*%
G01*
G04 APERTURE LIST*
G04 #@! TA.AperFunction,Profile*
%ADD10C,0.050000*%
G04 #@! TD*
G04 #@! TA.AperFunction,Profile*
%ADD11C,3.275000*%
G04 #@! TD*
G04 #@! TA.AperFunction,Profile*
%ADD12C,1.025000*%
G04 #@! TD*
G04 #@! TA.AperFunction,Profile*
%ADD13C,0.000000*%
G04 #@! TD*
G04 APERTURE END LIST*
D10*
X252906461Y-59102461D02*
G75*
G02*
X243762539Y-49958461I139J9144061D01*
G01*
X59104461Y-49958461D02*
X59104461Y-39036461D01*
X254938461Y-61134461D02*
X254938461Y-70075261D01*
X254938461Y-111121661D02*
X254938461Y-120062461D01*
X47928461Y-61134461D02*
G75*
G02*
X49960461Y-59102461I2033299J-1299D01*
G01*
X243762461Y-39036461D02*
X243762461Y-49958461D01*
X243762461Y-131238461D02*
X243762461Y-142160461D01*
X55040461Y-111121661D02*
X55040461Y-70075261D01*
X247826461Y-70075261D02*
X247826461Y-111121661D01*
X61136461Y-37004461D02*
X241730461Y-37004461D01*
X243762461Y-131238461D02*
G75*
G02*
X252906461Y-122094461I9143999J1D01*
G01*
X55040461Y-70075261D02*
X47928461Y-70075261D01*
D11*
X249587500Y-116600000D02*
G75*
G02*
X246312500Y-116600000I-1637500J0D01*
G01*
X246312500Y-116600000D02*
G75*
G02*
X249587500Y-116600000I1637500J0D01*
G01*
D10*
X247826461Y-111121661D02*
X254938461Y-111121661D01*
X243762461Y-142160461D02*
G75*
G02*
X241730461Y-144192461I-2033261J1261D01*
G01*
X47928461Y-70075261D02*
X47928461Y-61134461D01*
X49960461Y-122094461D02*
G75*
G02*
X59104459Y-131238461I-1J-9143999D01*
G01*
X59104461Y-142160461D02*
X59104461Y-131238461D01*
X47928461Y-111121661D02*
X55040461Y-111121661D01*
X241730461Y-37004461D02*
G75*
G02*
X243762539Y-39036461I139J-2031939D01*
G01*
X252906461Y-59102461D02*
G75*
G02*
X254938539Y-61134461I139J-2031939D01*
G01*
X61136461Y-144192461D02*
G75*
G02*
X59104539Y-142160461I1339J2033261D01*
G01*
X59104461Y-39036461D02*
G75*
G02*
X61136461Y-37004461I2033299J-1299D01*
G01*
X47928461Y-120062461D02*
X47928461Y-111121661D01*
X254938461Y-120062461D02*
G75*
G02*
X252906461Y-122094461I-2033261J1261D01*
G01*
D11*
X249587500Y-64600000D02*
G75*
G02*
X246312500Y-64600000I-1637500J0D01*
G01*
X246312500Y-64600000D02*
G75*
G02*
X249587500Y-64600000I1637500J0D01*
G01*
D10*
X59104461Y-49958461D02*
G75*
G02*
X49960461Y-59102461I-9144001J1D01*
G01*
X241730461Y-144192461D02*
X61136461Y-144192461D01*
X49960461Y-122094461D02*
G75*
G02*
X47928539Y-120062461I1339J2033261D01*
G01*
D11*
X56537500Y-64600000D02*
G75*
G02*
X53262500Y-64600000I-1637500J0D01*
G01*
X53262500Y-64600000D02*
G75*
G02*
X56537500Y-64600000I1637500J0D01*
G01*
D10*
X254938461Y-70075261D02*
X247826461Y-70075261D01*
D11*
X56687500Y-116600000D02*
G75*
G02*
X53412500Y-116600000I-1637500J0D01*
G01*
X53412500Y-116600000D02*
G75*
G02*
X56687500Y-116600000I1637500J0D01*
G01*
D12*
X138212500Y-39750000D02*
G75*
G02*
X137187500Y-39750000I-512500J0D01*
G01*
X137187500Y-39750000D02*
G75*
G02*
X138212500Y-39750000I512500J0D01*
G01*
X138212500Y-66750000D02*
G75*
G02*
X137187500Y-66750000I-512500J0D01*
G01*
X137187500Y-66750000D02*
G75*
G02*
X138212500Y-66750000I512500J0D01*
G01*
X165212500Y-39750000D02*
G75*
G02*
X164187500Y-39750000I-512500J0D01*
G01*
X164187500Y-39750000D02*
G75*
G02*
X165212500Y-39750000I512500J0D01*
G01*
X165212500Y-66750000D02*
G75*
G02*
X164187500Y-66750000I-512500J0D01*
G01*
X164187500Y-66750000D02*
G75*
G02*
X165212500Y-66750000I512500J0D01*
G01*
D13*
G04 #@! TA.AperFunction,Profile*
G36*
X192725000Y-47725000D02*
G01*
X192725000Y-47725000D01*
G75*
G02*
X192725000Y-48675000I0J-475000D01*
G01*
X184675000Y-48675000D01*
G75*
G02*
X184675000Y-47725000I0J475000D01*
G01*
X192725000Y-47725000D01*
G37*
G04 #@! TD.AperFunction*
M02*
